<?xml version="1.0" encoding="UTF-8" standalone="no"?>
<!DOCTYPE svg PUBLIC "-//W3C//DTD SVG 1.1//EN"
 "http://www.w3.org/Graphics/SVG/1.1/DTD/svg11.dtd">
<!-- Generated by graphviz version 2.43.0 (0)
 -->
<!-- Title: template Pages: 1 -->
<svg width="2977pt" height="752pt"
 viewBox="0.00 0.00 2976.75 752.00" xmlns="http://www.w3.org/2000/svg" xmlns:xlink="http://www.w3.org/1999/xlink">
<g id="graph0" class="graph" transform="scale(1 1) rotate(0) translate(4 748)">
<title>template</title>
<polygon fill="white" stroke="transparent" points="-4,4 -4,-748 2972.75,-748 2972.75,4 -4,4"/>
<g id="clust1" class="cluster">
<title>cluster_0</title>
<polygon fill="dimgray" stroke="black" points="8,-8 8,-736 2960.75,-736 2960.75,-8 8,-8"/>
</g>
<g id="clust2" class="cluster">
<title>cluster_net_0</title>
<polygon fill="white" stroke="black" points="823.64,-16 823.64,-728 2952.75,-728 2952.75,-16 823.64,-16"/>
</g>
<g id="clust3" class="cluster">
<title>cluster_1</title>
<polygon fill="yellow" stroke="black" points="1490.38,-24 1490.38,-720 2286.01,-720 2286.01,-24 1490.38,-24"/>
</g>
<!-- n0_condition -->
<g id="node1" class="node">
<title>n0_condition</title>
<polygon fill="white" stroke="black" points="365.82,-683 365.82,-719 445.82,-719 445.82,-683 365.82,-683"/>
<text text-anchor="middle" x="405.82" y="-697.3" font-family="Times,serif" font-size="14.00">template</text>
</g>
<!-- n0_port_0 -->
<g id="node2" class="node">
<title>n0_port_0</title>
<polygon fill="white" stroke="black" points="507.84,-633.33 405.82,-656.43 303.79,-633.33 303.89,-595.96 507.75,-595.96 507.84,-633.33"/>
<text text-anchor="middle" x="405.82" y="-626.8" font-family="Times,serif" font-size="14.00">base_filename</text>
<text text-anchor="middle" x="405.82" y="-611.8" font-family="Times,serif" font-size="14.00">string</text>
</g>
<!-- n0_place_1 -->
<g id="node7" class="node">
<title>n0_place_1</title>
<ellipse fill="white" stroke="black" cx="1147.01" cy="-623" rx="113.69" ry="26.74"/>
<text text-anchor="middle" x="1147.01" y="-626.8" font-family="Times,serif" font-size="14.00">place_base_filename</text>
<text text-anchor="middle" x="1147.01" y="-611.8" font-family="Times,serif" font-size="14.00">string</text>
</g>
<!-- n0_port_0&#45;&gt;n0_place_1 -->
<g id="edge8" class="edge">
<title>n0_port_0&#45;&gt;n0_place_1</title>
<path fill="none" stroke="black" stroke-dasharray="1,5" d="M508.05,-623C645.35,-623 889.86,-623 1033,-623"/>
</g>
<!-- n0_port_1 -->
<g id="node3" class="node">
<title>n0_port_1</title>
<polygon fill="white" stroke="black" points="502.11,-549.33 405.82,-572.43 309.53,-549.33 309.62,-511.96 502.02,-511.96 502.11,-549.33"/>
<text text-anchor="middle" x="405.82" y="-542.8" font-family="Times,serif" font-size="14.00">library_name</text>
<text text-anchor="middle" x="405.82" y="-527.8" font-family="Times,serif" font-size="14.00">string</text>
</g>
<!-- n0_place_3 -->
<g id="node9" class="node">
<title>n0_place_3</title>
<ellipse fill="white" stroke="black" cx="1147.01" cy="-539" rx="109.7" ry="26.74"/>
<text text-anchor="middle" x="1147.01" y="-542.8" font-family="Times,serif" font-size="14.00">place_library_name</text>
<text text-anchor="middle" x="1147.01" y="-527.8" font-family="Times,serif" font-size="14.00">string</text>
</g>
<!-- n0_port_1&#45;&gt;n0_place_3 -->
<g id="edge9" class="edge">
<title>n0_port_1&#45;&gt;n0_place_3</title>
<path fill="none" stroke="black" stroke-dasharray="1,5" d="M502.32,-539C639.8,-539 892.78,-539 1037.27,-539"/>
</g>
<!-- n0_port_2 -->
<g id="node4" class="node">
<title>n0_port_2</title>
<polygon fill="white" stroke="black" points="457.45,-465.33 405.82,-488.43 354.18,-465.33 354.23,-427.96 457.41,-427.96 457.45,-465.33"/>
<text text-anchor="middle" x="405.82" y="-458.8" font-family="Times,serif" font-size="14.00">input</text>
<text text-anchor="middle" x="405.82" y="-443.8" font-family="Times,serif" font-size="14.00">string</text>
</g>
<!-- n0_place_0 -->
<g id="node6" class="node">
<title>n0_place_0</title>
<ellipse fill="white" stroke="black" cx="1147.01" cy="-455" rx="69.09" ry="26.74"/>
<text text-anchor="middle" x="1147.01" y="-458.8" font-family="Times,serif" font-size="14.00">place_input</text>
<text text-anchor="middle" x="1147.01" y="-443.8" font-family="Times,serif" font-size="14.00">string</text>
</g>
<!-- n0_port_2&#45;&gt;n0_place_0 -->
<g id="edge10" class="edge">
<title>n0_port_2&#45;&gt;n0_place_0</title>
<path fill="none" stroke="black" stroke-dasharray="1,5" d="M457.63,-455C587.28,-455 930.54,-455 1077.58,-455"/>
</g>
<!-- n0_port_3 -->
<g id="node5" class="node">
<title>n0_port_3</title>
<polygon fill="white" stroke="black" points="16.18,-159.67 405.82,-136.57 795.45,-159.67 795.09,-197.04 16.55,-197.04 16.18,-159.67"/>
<text text-anchor="middle" x="405.82" y="-173.8" font-family="Times,serif" font-size="14.00">output</text>
<text text-anchor="middle" x="405.82" y="-158.8" font-family="Times,serif" font-size="14.00">feynman :: [MI :: string, reducedIBPs :: string, web :: string]</text>
</g>
<!-- n0_place_6 -->
<g id="node12" class="node">
<title>n0_place_6</title>
<ellipse fill="white" stroke="black" cx="1147.01" cy="-170" rx="315.24" ry="26.74"/>
<text text-anchor="middle" x="1147.01" y="-173.8" font-family="Times,serif" font-size="14.00">mi_ibp</text>
<text text-anchor="middle" x="1147.01" y="-158.8" font-family="Times,serif" font-size="14.00">feynman :: [MI :: string, reducedIBPs :: string, web :: string]</text>
</g>
<!-- n0_port_3&#45;&gt;n0_place_6 -->
<g id="edge11" class="edge">
<title>n0_port_3&#45;&gt;n0_place_6</title>
<path fill="none" stroke="black" stroke-dasharray="1,5" d="M795.62,-170C807.63,-170 819.61,-170 831.51,-170"/>
</g>
<!-- n1_port_3 -->
<g id="node18" class="node">
<title>n1_port_3</title>
<polygon fill="white" stroke="black" points="1939.83,-465.33 1888.19,-488.43 1836.56,-465.33 1836.61,-427.96 1939.78,-427.96 1939.83,-465.33"/>
<text text-anchor="middle" x="1888.19" y="-458.8" font-family="Times,serif" font-size="14.00">input</text>
<text text-anchor="middle" x="1888.19" y="-443.8" font-family="Times,serif" font-size="14.00">string</text>
</g>
<!-- n0_place_0&#45;&gt;n1_port_3 -->
<g id="edge5" class="edge">
<title>n0_place_0&#45;&gt;n1_port_3</title>
<path fill="none" stroke="black" stroke-dasharray="5,2" d="M1216.55,-455C1359.92,-455 1689.44,-455 1826.09,-455"/>
<polygon fill="black" stroke="black" points="1826.37,-458.5 1836.37,-455 1826.37,-451.5 1826.37,-458.5"/>
</g>
<!-- n1_port_2 -->
<g id="node17" class="node">
<title>n1_port_2</title>
<polygon fill="white" stroke="black" points="1990.22,-633.33 1888.19,-656.43 1786.17,-633.33 1786.27,-595.96 1990.12,-595.96 1990.22,-633.33"/>
<text text-anchor="middle" x="1888.19" y="-626.8" font-family="Times,serif" font-size="14.00">base_filename</text>
<text text-anchor="middle" x="1888.19" y="-611.8" font-family="Times,serif" font-size="14.00">string</text>
</g>
<!-- n0_place_1&#45;&gt;n1_port_2 -->
<g id="edge6" class="edge">
<title>n0_place_1&#45;&gt;n1_port_2</title>
<path fill="none" stroke="black" stroke-dasharray="5,2" d="M1261.08,-623C1400.75,-623 1636.87,-623 1775.78,-623"/>
<polygon fill="black" stroke="black" points="1776.02,-626.5 1786.02,-623 1776.02,-619.5 1776.02,-626.5"/>
</g>
<!-- n0_place_2 -->
<g id="node8" class="node">
<title>n0_place_2</title>
<ellipse fill="white" stroke="black" cx="2629.38" cy="-287" rx="315.24" ry="26.74"/>
<text text-anchor="middle" x="2629.38" y="-290.8" font-family="Times,serif" font-size="14.00">data</text>
<text text-anchor="middle" x="2629.38" y="-275.8" font-family="Times,serif" font-size="14.00">feynman :: [MI :: string, reducedIBPs :: string, web :: string]</text>
</g>
<!-- n1_port_1 -->
<g id="node16" class="node">
<title>n1_port_1</title>
<polygon fill="white" stroke="black" points="1984.48,-549.33 1888.19,-572.43 1791.91,-549.33 1792,-511.96 1984.39,-511.96 1984.48,-549.33"/>
<text text-anchor="middle" x="1888.19" y="-542.8" font-family="Times,serif" font-size="14.00">library_name</text>
<text text-anchor="middle" x="1888.19" y="-527.8" font-family="Times,serif" font-size="14.00">string</text>
</g>
<!-- n0_place_3&#45;&gt;n1_port_1 -->
<g id="edge7" class="edge">
<title>n0_place_3&#45;&gt;n1_port_1</title>
<path fill="none" stroke="black" stroke-dasharray="5,2" d="M1256.68,-539C1397.72,-539 1642.22,-539 1781.69,-539"/>
<polygon fill="black" stroke="black" points="1781.96,-542.5 1791.96,-539 1781.96,-535.5 1781.96,-542.5"/>
</g>
<!-- n0_place_4 -->
<g id="node10" class="node">
<title>n0_place_4</title>
<ellipse fill="white" stroke="black" cx="2629.38" cy="-203" rx="60.62" ry="26.74"/>
<text text-anchor="middle" x="2629.38" y="-206.8" font-family="Times,serif" font-size="14.00">web_copy</text>
<text text-anchor="middle" x="2629.38" y="-191.8" font-family="Times,serif" font-size="14.00">string</text>
</g>
<!-- n0_place_5 -->
<g id="node11" class="node">
<title>n0_place_5</title>
<ellipse fill="white" stroke="black" cx="1147.01" cy="-371" rx="78.48" ry="37.45"/>
<text text-anchor="middle" x="1147.01" y="-382.3" font-family="Times,serif" font-size="14.00">input_control</text>
<text text-anchor="middle" x="1147.01" y="-367.3" font-family="Times,serif" font-size="14.00">control</text>
<text text-anchor="middle" x="1147.01" y="-352.3" font-family="Times,serif" font-size="14.00">[]</text>
</g>
<!-- n1_port_0 -->
<g id="node15" class="node">
<title>n1_port_0</title>
<polygon fill="white" stroke="black" points="1985.23,-381.33 1888.19,-404.43 1791.16,-381.33 1791.25,-343.96 1985.14,-343.96 1985.23,-381.33"/>
<text text-anchor="middle" x="1888.19" y="-374.8" font-family="Times,serif" font-size="14.00">input_control</text>
<text text-anchor="middle" x="1888.19" y="-359.8" font-family="Times,serif" font-size="14.00">control</text>
</g>
<!-- n0_place_5&#45;&gt;n1_port_0 -->
<g id="edge4" class="edge">
<title>n0_place_5&#45;&gt;n1_port_0</title>
<path fill="none" stroke="black" d="M1225.72,-371C1358.79,-371 1630.46,-371 1780.94,-371"/>
<polygon fill="black" stroke="black" points="1781.12,-374.5 1791.12,-371 1781.12,-367.5 1781.12,-374.5"/>
</g>
<!-- n0_place_7 -->
<g id="node13" class="node">
<title>n0_place_7</title>
<ellipse fill="white" stroke="black" cx="2629.38" cy="-119" rx="77.56" ry="26.74"/>
<text text-anchor="middle" x="2629.38" y="-122.8" font-family="Times,serif" font-size="14.00">labeledgraph</text>
<text text-anchor="middle" x="2629.38" y="-107.8" font-family="Times,serif" font-size="14.00">string</text>
</g>
<!-- n1_condition -->
<g id="node14" class="node">
<title>n1_condition</title>
<polygon fill="white" stroke="black" points="1849.19,-675 1849.19,-711 1927.19,-711 1927.19,-675 1849.19,-675"/>
<text text-anchor="middle" x="1888.19" y="-689.3" font-family="Times,serif" font-size="14.00">compute</text>
</g>
<!-- n1_port_4 -->
<g id="node19" class="node">
<title>n1_port_4</title>
<polygon fill="white" stroke="black" points="1791.91,-108.67 1888.19,-85.57 1984.48,-108.67 1984.39,-146.04 1792,-146.04 1791.91,-108.67"/>
<text text-anchor="middle" x="1888.19" y="-122.8" font-family="Times,serif" font-size="14.00">labeledgraph</text>
<text text-anchor="middle" x="1888.19" y="-107.8" font-family="Times,serif" font-size="14.00">string</text>
</g>
<!-- n1_port_4&#45;&gt;n0_place_7 -->
<g id="edge3" class="edge">
<title>n1_port_4&#45;&gt;n0_place_7</title>
<path fill="none" stroke="black" d="M1984.69,-119C2129.29,-119 2401.65,-119 2541.17,-119"/>
<polygon fill="black" stroke="black" points="2541.39,-122.5 2551.39,-119 2541.39,-115.5 2541.39,-122.5"/>
</g>
<!-- n1_port_5 -->
<g id="node20" class="node">
<title>n1_port_5</title>
<polygon fill="white" stroke="black" points="1812.86,-192.67 1888.19,-169.57 1963.53,-192.67 1963.46,-230.04 1812.93,-230.04 1812.86,-192.67"/>
<text text-anchor="middle" x="1888.19" y="-206.8" font-family="Times,serif" font-size="14.00">web_copy</text>
<text text-anchor="middle" x="1888.19" y="-191.8" font-family="Times,serif" font-size="14.00">string</text>
</g>
<!-- n1_port_5&#45;&gt;n0_place_4 -->
<g id="edge2" class="edge">
<title>n1_port_5&#45;&gt;n0_place_4</title>
<path fill="none" stroke="black" d="M1963.45,-203C2106.5,-203 2418.45,-203 2558.21,-203"/>
<polygon fill="black" stroke="black" points="2558.38,-206.5 2568.38,-203 2558.38,-199.5 2558.38,-206.5"/>
</g>
<!-- n1_port_6 -->
<g id="node21" class="node">
<title>n1_port_6</title>
<polygon fill="white" stroke="black" points="1498.56,-276.67 1888.19,-253.57 2277.83,-276.67 2277.47,-314.04 1498.92,-314.04 1498.56,-276.67"/>
<text text-anchor="middle" x="1888.19" y="-290.8" font-family="Times,serif" font-size="14.00">data</text>
<text text-anchor="middle" x="1888.19" y="-275.8" font-family="Times,serif" font-size="14.00">feynman :: [MI :: string, reducedIBPs :: string, web :: string]</text>
</g>
<!-- n1_port_6&#45;&gt;n0_place_2 -->
<g id="edge1" class="edge">
<title>n1_port_6&#45;&gt;n0_place_2</title>
<path fill="none" stroke="black" d="M2278,-287C2286.63,-287 2295.24,-287 2303.83,-287"/>
<polygon fill="black" stroke="black" points="2303.89,-290.5 2313.89,-287 2303.89,-283.5 2303.89,-290.5"/>
</g>
<!-- n1_modcall -->
<g id="node22" class="node">
<title>n1_modcall</title>
<polygon fill="white" stroke="black" points="1994.19,-68 1782.19,-68 1782.19,-32 1994.19,-32 1994.19,-68"/>
<text text-anchor="middle" x="1888.19" y="-46.3" font-family="Times,serif" font-size="14.00">singular_template.compute</text>
</g>
</g>
</svg>
