<?xml version="1.0" encoding="UTF-8" standalone="no"?>
<!DOCTYPE svg PUBLIC "-//W3C//DTD SVG 1.1//EN"
 "http://www.w3.org/Graphics/SVG/1.1/DTD/svg11.dtd">
<!-- Generated by graphviz version 2.43.0 (0)
 -->
<!-- Title: template Pages: 1 -->
<svg width="956pt" height="826pt"
 viewBox="0.00 0.00 955.78 826.00" xmlns="http://www.w3.org/2000/svg" xmlns:xlink="http://www.w3.org/1999/xlink">
<g id="graph0" class="graph" transform="scale(1 1) rotate(0) translate(4 822)">
<title>template</title>
<polygon fill="white" stroke="transparent" points="-4,4 -4,-822 951.78,-822 951.78,4 -4,4"/>
<g id="clust1" class="cluster">
<title>cluster_0</title>
<polygon fill="dimgray" stroke="black" points="8,-8 8,-810 939.78,-810 939.78,-8 8,-8"/>
</g>
<g id="clust2" class="cluster">
<title>cluster_net_0</title>
<polygon fill="white" stroke="black" points="248.52,-90 248.52,-802 931.78,-802 931.78,-90 248.52,-90"/>
</g>
<g id="clust3" class="cluster">
<title>cluster_1</title>
<polygon fill="yellow" stroke="black" points="512.21,-98 512.21,-794 740.21,-794 740.21,-98 512.21,-98"/>
</g>
<!-- n0_condition -->
<g id="node1" class="node">
<title>n0_condition</title>
<polygon fill="white" stroke="black" points="78.26,-757 78.26,-793 158.26,-793 158.26,-757 78.26,-757"/>
<text text-anchor="middle" x="118.26" y="-771.3" font-family="Times,serif" font-size="14.00">template</text>
</g>
<!-- n0_port_0 -->
<g id="node2" class="node">
<title>n0_port_0</title>
<polygon fill="white" stroke="black" points="220.29,-707.33 118.26,-730.43 16.24,-707.33 16.33,-669.96 220.19,-669.96 220.29,-707.33"/>
<text text-anchor="middle" x="118.26" y="-700.8" font-family="Times,serif" font-size="14.00">base_filename</text>
<text text-anchor="middle" x="118.26" y="-685.8" font-family="Times,serif" font-size="14.00">string</text>
</g>
<!-- n0_place_2 -->
<g id="node8" class="node">
<title>n0_place_2</title>
<ellipse fill="white" stroke="black" cx="370.37" cy="-697" rx="113.69" ry="26.74"/>
<text text-anchor="middle" x="370.37" y="-700.8" font-family="Times,serif" font-size="14.00">place_base_filename</text>
<text text-anchor="middle" x="370.37" y="-685.8" font-family="Times,serif" font-size="14.00">string</text>
</g>
<!-- n0_port_0&#45;&gt;n0_place_2 -->
<g id="edge8" class="edge">
<title>n0_port_0&#45;&gt;n0_place_2</title>
<path fill="none" stroke="black" stroke-dasharray="1,5" d="M220.27,-697C232.2,-697 244.43,-697 256.51,-697"/>
</g>
<!-- n0_port_1 -->
<g id="node3" class="node">
<title>n0_port_1</title>
<polygon fill="white" stroke="black" points="214.55,-623.33 118.26,-646.43 21.97,-623.33 22.06,-585.96 214.46,-585.96 214.55,-623.33"/>
<text text-anchor="middle" x="118.26" y="-616.8" font-family="Times,serif" font-size="14.00">library_name</text>
<text text-anchor="middle" x="118.26" y="-601.8" font-family="Times,serif" font-size="14.00">string</text>
</g>
<!-- n0_place_6 -->
<g id="node12" class="node">
<title>n0_place_6</title>
<ellipse fill="white" stroke="black" cx="370.37" cy="-613" rx="109.7" ry="26.74"/>
<text text-anchor="middle" x="370.37" y="-616.8" font-family="Times,serif" font-size="14.00">place_library_name</text>
<text text-anchor="middle" x="370.37" y="-601.8" font-family="Times,serif" font-size="14.00">string</text>
</g>
<!-- n0_port_1&#45;&gt;n0_place_6 -->
<g id="edge9" class="edge">
<title>n0_port_1&#45;&gt;n0_place_6</title>
<path fill="none" stroke="black" stroke-dasharray="1,5" d="M214.53,-613C229.58,-613 245.23,-613 260.56,-613"/>
</g>
<!-- n0_port_2 -->
<g id="node4" class="node">
<title>n0_port_2</title>
<polygon fill="white" stroke="black" points="169.9,-539.33 118.26,-562.43 66.63,-539.33 66.67,-501.96 169.85,-501.96 169.9,-539.33"/>
<text text-anchor="middle" x="118.26" y="-532.8" font-family="Times,serif" font-size="14.00">input</text>
<text text-anchor="middle" x="118.26" y="-517.8" font-family="Times,serif" font-size="14.00">string</text>
</g>
<!-- n0_place_0 -->
<g id="node6" class="node">
<title>n0_place_0</title>
<ellipse fill="white" stroke="black" cx="370.37" cy="-529" rx="69.09" ry="26.74"/>
<text text-anchor="middle" x="370.37" y="-532.8" font-family="Times,serif" font-size="14.00">place_input</text>
<text text-anchor="middle" x="370.37" y="-517.8" font-family="Times,serif" font-size="14.00">string</text>
</g>
<!-- n0_port_2&#45;&gt;n0_place_0 -->
<g id="edge10" class="edge">
<title>n0_port_2&#45;&gt;n0_place_0</title>
<path fill="none" stroke="black" stroke-dasharray="1,5" d="M169.87,-529C207.56,-529 259.42,-529 300.82,-529"/>
</g>
<!-- n0_port_3 -->
<g id="node5" class="node">
<title>n0_port_3</title>
<polygon fill="white" stroke="black" points="570.34,-38.67 626.21,-15.57 682.09,-38.67 682.04,-76.04 570.39,-76.04 570.34,-38.67"/>
<text text-anchor="middle" x="626.21" y="-52.8" font-family="Times,serif" font-size="14.00">output</text>
<text text-anchor="middle" x="626.21" y="-37.8" font-family="Times,serif" font-size="14.00">string</text>
</g>
<!-- n0_place_4 -->
<g id="node10" class="node">
<title>n0_place_4</title>
<ellipse fill="white" stroke="black" cx="845.99" cy="-159" rx="41.94" ry="26.74"/>
<text text-anchor="middle" x="845.99" y="-162.8" font-family="Times,serif" font-size="14.00">web</text>
<text text-anchor="middle" x="845.99" y="-147.8" font-family="Times,serif" font-size="14.00">string</text>
</g>
<!-- n0_port_3&#45;&gt;n0_place_4 -->
<g id="edge11" class="edge">
<title>n0_port_3&#45;&gt;n0_place_4</title>
<path fill="none" stroke="black" stroke-dasharray="1,5" d="M682.1,-68.62C700.84,-75.9 721.73,-84.68 740.21,-94 767.16,-107.59 796.21,-125.93 816.87,-139.66"/>
</g>
<!-- n1_port_3 -->
<g id="node16" class="node">
<title>n1_port_3</title>
<polygon fill="white" stroke="black" points="677.85,-539.33 626.21,-562.43 574.58,-539.33 574.62,-501.96 677.8,-501.96 677.85,-539.33"/>
<text text-anchor="middle" x="626.21" y="-532.8" font-family="Times,serif" font-size="14.00">input</text>
<text text-anchor="middle" x="626.21" y="-517.8" font-family="Times,serif" font-size="14.00">string</text>
</g>
<!-- n0_place_0&#45;&gt;n1_port_3 -->
<g id="edge5" class="edge">
<title>n0_place_0&#45;&gt;n1_port_3</title>
<path fill="none" stroke="black" d="M439.73,-529C478.52,-529 526.66,-529 564.17,-529"/>
<polygon fill="black" stroke="black" points="564.45,-532.5 574.45,-529 564.45,-525.5 564.45,-532.5"/>
</g>
<!-- n0_place_1 -->
<g id="node7" class="node">
<title>n0_place_1</title>
<ellipse fill="white" stroke="black" cx="845.99" cy="-445" rx="75.82" ry="26.74"/>
<text text-anchor="middle" x="845.99" y="-448.8" font-family="Times,serif" font-size="14.00">reducedIBPs</text>
<text text-anchor="middle" x="845.99" y="-433.8" font-family="Times,serif" font-size="14.00">string</text>
</g>
<!-- n1_port_2 -->
<g id="node15" class="node">
<title>n1_port_2</title>
<polygon fill="white" stroke="black" points="728.24,-707.33 626.21,-730.43 524.19,-707.33 524.28,-669.96 728.14,-669.96 728.24,-707.33"/>
<text text-anchor="middle" x="626.21" y="-700.8" font-family="Times,serif" font-size="14.00">base_filename</text>
<text text-anchor="middle" x="626.21" y="-685.8" font-family="Times,serif" font-size="14.00">string</text>
</g>
<!-- n0_place_2&#45;&gt;n1_port_2 -->
<g id="edge6" class="edge">
<title>n0_place_2&#45;&gt;n1_port_2</title>
<path fill="none" stroke="black" stroke-dasharray="5,2" d="M484.56,-697C494.27,-697 504.09,-697 513.79,-697"/>
<polygon fill="black" stroke="black" points="513.85,-700.5 523.85,-697 513.85,-693.5 513.85,-700.5"/>
</g>
<!-- n0_place_3 -->
<g id="node9" class="node">
<title>n0_place_3</title>
<ellipse fill="white" stroke="black" cx="845.99" cy="-277" rx="77.56" ry="26.74"/>
<text text-anchor="middle" x="845.99" y="-280.8" font-family="Times,serif" font-size="14.00">labeledgraph</text>
<text text-anchor="middle" x="845.99" y="-265.8" font-family="Times,serif" font-size="14.00">string</text>
</g>
<!-- n0_place_5 -->
<g id="node11" class="node">
<title>n0_place_5</title>
<ellipse fill="white" stroke="black" cx="845.99" cy="-361" rx="41.94" ry="26.74"/>
<text text-anchor="middle" x="845.99" y="-364.8" font-family="Times,serif" font-size="14.00">MI</text>
<text text-anchor="middle" x="845.99" y="-349.8" font-family="Times,serif" font-size="14.00">string</text>
</g>
<!-- n1_port_0 -->
<g id="node14" class="node">
<title>n1_port_0</title>
<polygon fill="white" stroke="black" points="722.5,-623.33 626.21,-646.43 529.92,-623.33 530.01,-585.96 722.41,-585.96 722.5,-623.33"/>
<text text-anchor="middle" x="626.21" y="-616.8" font-family="Times,serif" font-size="14.00">library_name</text>
<text text-anchor="middle" x="626.21" y="-601.8" font-family="Times,serif" font-size="14.00">string</text>
</g>
<!-- n0_place_6&#45;&gt;n1_port_0 -->
<g id="edge7" class="edge">
<title>n0_place_6&#45;&gt;n1_port_0</title>
<path fill="none" stroke="black" stroke-dasharray="5,2" d="M480.13,-613C493.19,-613 506.51,-613 519.52,-613"/>
<polygon fill="black" stroke="black" points="519.88,-616.5 529.88,-613 519.88,-609.5 519.88,-616.5"/>
</g>
<!-- n1_condition -->
<g id="node13" class="node">
<title>n1_condition</title>
<polygon fill="white" stroke="black" points="587.21,-749 587.21,-785 665.21,-785 665.21,-749 587.21,-749"/>
<text text-anchor="middle" x="626.21" y="-763.3" font-family="Times,serif" font-size="14.00">compute</text>
</g>
<!-- n1_port_1 -->
<g id="node17" class="node">
<title>n1_port_1</title>
<polygon fill="white" stroke="black" points="532.67,-434.67 626.21,-411.57 719.75,-434.67 719.67,-472.04 532.76,-472.04 532.67,-434.67"/>
<text text-anchor="middle" x="626.21" y="-448.8" font-family="Times,serif" font-size="14.00">reducedIBPs</text>
<text text-anchor="middle" x="626.21" y="-433.8" font-family="Times,serif" font-size="14.00">string</text>
</g>
<!-- n1_port_1&#45;&gt;n0_place_1 -->
<g id="edge2" class="edge">
<title>n1_port_1&#45;&gt;n0_place_1</title>
<path fill="none" stroke="black" d="M719.89,-445C733.13,-445 746.71,-445 759.8,-445"/>
<polygon fill="black" stroke="black" points="760.18,-448.5 770.18,-445 760.18,-441.5 760.18,-448.5"/>
</g>
<!-- n1_port_4 -->
<g id="node18" class="node">
<title>n1_port_4</title>
<polygon fill="white" stroke="black" points="529.92,-266.67 626.21,-243.57 722.5,-266.67 722.41,-304.04 530.01,-304.04 529.92,-266.67"/>
<text text-anchor="middle" x="626.21" y="-280.8" font-family="Times,serif" font-size="14.00">labeledgraph</text>
<text text-anchor="middle" x="626.21" y="-265.8" font-family="Times,serif" font-size="14.00">string</text>
</g>
<!-- n1_port_4&#45;&gt;n0_place_3 -->
<g id="edge3" class="edge">
<title>n1_port_4&#45;&gt;n0_place_3</title>
<path fill="none" stroke="black" d="M722.42,-277C734.19,-277 746.18,-277 757.83,-277"/>
<polygon fill="black" stroke="black" points="757.96,-280.5 767.96,-277 757.96,-273.5 757.96,-280.5"/>
</g>
<!-- n1_port_5 -->
<g id="node19" class="node">
<title>n1_port_5</title>
<polygon fill="white" stroke="black" points="574.58,-182.67 626.21,-159.57 677.85,-182.67 677.8,-220.04 574.62,-220.04 574.58,-182.67"/>
<text text-anchor="middle" x="626.21" y="-196.8" font-family="Times,serif" font-size="14.00">web</text>
<text text-anchor="middle" x="626.21" y="-181.8" font-family="Times,serif" font-size="14.00">string</text>
</g>
<!-- n1_port_5&#45;&gt;n0_place_4 -->
<g id="edge4" class="edge">
<title>n1_port_5&#45;&gt;n0_place_4</title>
<path fill="none" stroke="black" d="M678,-185.07C713.35,-179.55 760.25,-172.23 795.34,-166.75"/>
<polygon fill="black" stroke="black" points="796.03,-170.19 805.37,-165.19 794.95,-163.27 796.03,-170.19"/>
</g>
<!-- n1_port_6 -->
<g id="node20" class="node">
<title>n1_port_6</title>
<polygon fill="white" stroke="black" points="574.58,-350.67 626.21,-327.57 677.85,-350.67 677.8,-388.04 574.62,-388.04 574.58,-350.67"/>
<text text-anchor="middle" x="626.21" y="-364.8" font-family="Times,serif" font-size="14.00">MI</text>
<text text-anchor="middle" x="626.21" y="-349.8" font-family="Times,serif" font-size="14.00">string</text>
</g>
<!-- n1_port_6&#45;&gt;n0_place_5 -->
<g id="edge1" class="edge">
<title>n1_port_6&#45;&gt;n0_place_5</title>
<path fill="none" stroke="black" d="M678,-361C712.74,-361 758.64,-361 793.53,-361"/>
<polygon fill="black" stroke="black" points="793.97,-364.5 803.97,-361 793.97,-357.5 793.97,-364.5"/>
</g>
<!-- n1_modcall -->
<g id="node21" class="node">
<title>n1_modcall</title>
<polygon fill="white" stroke="black" points="732.21,-142 520.21,-142 520.21,-106 732.21,-106 732.21,-142"/>
<text text-anchor="middle" x="626.21" y="-120.3" font-family="Times,serif" font-size="14.00">singular_template.compute</text>
</g>
</g>
</svg>
