<?xml version="1.0" encoding="UTF-8" standalone="no"?>
<!DOCTYPE svg PUBLIC "-//W3C//DTD SVG 1.1//EN"
 "http://www.w3.org/Graphics/SVG/1.1/DTD/svg11.dtd">
<!-- Generated by graphviz version 2.43.0 (0)
 -->
<!-- Title: template Pages: 1 -->
<svg width="1355pt" height="954pt"
 viewBox="0.00 0.00 1354.84 954.00" xmlns="http://www.w3.org/2000/svg" xmlns:xlink="http://www.w3.org/1999/xlink">
<g id="graph0" class="graph" transform="scale(1 1) rotate(0) translate(4 950)">
<title>template</title>
<polygon fill="white" stroke="transparent" points="-4,4 -4,-950 1350.84,-950 1350.84,4 -4,4"/>
<g id="clust1" class="cluster">
<title>cluster_0</title>
<polygon fill="dimgray" stroke="black" points="8,-8 8,-938 1338.84,-938 1338.84,-8 8,-8"/>
</g>
<g id="clust2" class="cluster">
<title>cluster_net_0</title>
<polygon fill="white" stroke="black" points="248.52,-90 248.52,-930 1330.84,-930 1330.84,-90 248.52,-90"/>
</g>
<g id="clust3" class="cluster">
<title>cluster_1</title>
<polygon fill="yellow" stroke="black" points="951.78,-98 951.78,-794 1188.78,-794 1188.78,-98 951.78,-98"/>
</g>
<g id="clust4" class="cluster">
<title>cluster_2</title>
<polygon fill="yellow" stroke="black" points="512.21,-110 512.21,-890 740.21,-890 740.21,-110 512.21,-110"/>
</g>
<!-- n0_condition -->
<g id="node1" class="node">
<title>n0_condition</title>
<polygon fill="white" stroke="black" points="78.26,-887 78.26,-923 158.26,-923 158.26,-887 78.26,-887"/>
<text text-anchor="middle" x="118.26" y="-901.3" font-family="Times,serif" font-size="14.00">template</text>
</g>
<!-- n0_port_0 -->
<g id="node2" class="node">
<title>n0_port_0</title>
<polygon fill="white" stroke="black" points="220.29,-833.33 118.26,-856.43 16.24,-833.33 16.33,-795.96 220.19,-795.96 220.29,-833.33"/>
<text text-anchor="middle" x="118.26" y="-826.8" font-family="Times,serif" font-size="14.00">base_filename</text>
<text text-anchor="middle" x="118.26" y="-811.8" font-family="Times,serif" font-size="14.00">string</text>
</g>
<!-- n0_place_1 -->
<g id="node7" class="node">
<title>n0_place_1</title>
<ellipse fill="white" stroke="black" cx="370.37" cy="-823" rx="113.69" ry="26.74"/>
<text text-anchor="middle" x="370.37" y="-826.8" font-family="Times,serif" font-size="14.00">place_base_filename</text>
<text text-anchor="middle" x="370.37" y="-811.8" font-family="Times,serif" font-size="14.00">string</text>
</g>
<!-- n0_port_0&#45;&gt;n0_place_1 -->
<g id="edge16" class="edge">
<title>n0_port_0&#45;&gt;n0_place_1</title>
<path fill="none" stroke="black" stroke-dasharray="1,5" d="M220.27,-823C232.2,-823 244.43,-823 256.51,-823"/>
</g>
<!-- n0_port_1 -->
<g id="node3" class="node">
<title>n0_port_1</title>
<polygon fill="white" stroke="black" points="214.55,-725.33 118.26,-748.43 21.97,-725.33 22.06,-687.96 214.46,-687.96 214.55,-725.33"/>
<text text-anchor="middle" x="118.26" y="-718.8" font-family="Times,serif" font-size="14.00">library_name</text>
<text text-anchor="middle" x="118.26" y="-703.8" font-family="Times,serif" font-size="14.00">string</text>
</g>
<!-- n0_place_3 -->
<g id="node9" class="node">
<title>n0_place_3</title>
<ellipse fill="white" stroke="black" cx="370.37" cy="-715" rx="109.7" ry="26.74"/>
<text text-anchor="middle" x="370.37" y="-718.8" font-family="Times,serif" font-size="14.00">place_library_name</text>
<text text-anchor="middle" x="370.37" y="-703.8" font-family="Times,serif" font-size="14.00">string</text>
</g>
<!-- n0_port_1&#45;&gt;n0_place_3 -->
<g id="edge17" class="edge">
<title>n0_port_1&#45;&gt;n0_place_3</title>
<path fill="none" stroke="black" stroke-dasharray="1,5" d="M214.53,-715C229.58,-715 245.23,-715 260.56,-715"/>
</g>
<!-- n0_port_2 -->
<g id="node4" class="node">
<title>n0_port_2</title>
<polygon fill="white" stroke="black" points="169.9,-343.33 118.26,-366.43 66.63,-343.33 66.67,-305.96 169.85,-305.96 169.9,-343.33"/>
<text text-anchor="middle" x="118.26" y="-336.8" font-family="Times,serif" font-size="14.00">input</text>
<text text-anchor="middle" x="118.26" y="-321.8" font-family="Times,serif" font-size="14.00">string</text>
</g>
<!-- n0_place_0 -->
<g id="node6" class="node">
<title>n0_place_0</title>
<ellipse fill="white" stroke="black" cx="370.37" cy="-333" rx="69.09" ry="26.74"/>
<text text-anchor="middle" x="370.37" y="-336.8" font-family="Times,serif" font-size="14.00">place_input</text>
<text text-anchor="middle" x="370.37" y="-321.8" font-family="Times,serif" font-size="14.00">string</text>
</g>
<!-- n0_port_2&#45;&gt;n0_place_0 -->
<g id="edge18" class="edge">
<title>n0_port_2&#45;&gt;n0_place_0</title>
<path fill="none" stroke="black" stroke-dasharray="1,5" d="M169.87,-333C207.56,-333 259.42,-333 300.82,-333"/>
</g>
<!-- n0_port_3 -->
<g id="node5" class="node">
<title>n0_port_3</title>
<polygon fill="white" stroke="black" points="1014.4,-38.67 1070.28,-15.57 1126.15,-38.67 1126.1,-76.04 1014.45,-76.04 1014.4,-38.67"/>
<text text-anchor="middle" x="1070.28" y="-52.8" font-family="Times,serif" font-size="14.00">output</text>
<text text-anchor="middle" x="1070.28" y="-37.8" font-family="Times,serif" font-size="14.00">string</text>
</g>
<!-- n0_place_8 -->
<g id="node14" class="node">
<title>n0_place_8</title>
<ellipse fill="white" stroke="black" cx="1269.81" cy="-159" rx="53.07" ry="26.74"/>
<text text-anchor="middle" x="1269.81" y="-162.8" font-family="Times,serif" font-size="14.00">totalIBP</text>
<text text-anchor="middle" x="1269.81" y="-147.8" font-family="Times,serif" font-size="14.00">string</text>
</g>
<!-- n0_port_3&#45;&gt;n0_place_8 -->
<g id="edge19" class="edge">
<title>n0_port_3&#45;&gt;n0_place_8</title>
<path fill="none" stroke="black" stroke-dasharray="1,5" d="M1126.14,-65.95C1146.47,-73.26 1169.29,-82.74 1188.78,-94 1208.77,-105.55 1228.93,-121.97 1244.02,-135.41"/>
</g>
<!-- n1_port_4 -->
<g id="node20" class="node">
<title>n1_port_4</title>
<polygon fill="white" stroke="black" points="1121.91,-287.33 1070.28,-310.43 1018.64,-287.33 1018.69,-249.96 1121.86,-249.96 1121.91,-287.33"/>
<text text-anchor="middle" x="1070.28" y="-280.8" font-family="Times,serif" font-size="14.00">input</text>
<text text-anchor="middle" x="1070.28" y="-265.8" font-family="Times,serif" font-size="14.00">string</text>
</g>
<!-- n0_place_0&#45;&gt;n1_port_4 -->
<g id="edge2" class="edge">
<title>n0_place_0&#45;&gt;n1_port_4</title>
<path fill="none" stroke="black" stroke-dasharray="5,2" d="M378.67,-306.04C393.87,-255.89 434.19,-149.41 512.21,-106 673.92,-16.03 788.39,-42.85 923.78,-169 947.09,-190.72 928.6,-213.13 951.78,-235 967.48,-249.82 988.77,-259.47 1008.92,-265.72"/>
<polygon fill="black" stroke="black" points="1008.11,-269.13 1018.69,-268.53 1010.04,-262.4 1008.11,-269.13"/>
</g>
<!-- n2_port_4 -->
<g id="node28" class="node">
<title>n2_port_4</title>
<polygon fill="white" stroke="black" points="677.85,-551.33 626.21,-574.43 574.58,-551.33 574.62,-513.96 677.8,-513.96 677.85,-551.33"/>
<text text-anchor="middle" x="626.21" y="-544.8" font-family="Times,serif" font-size="14.00">input</text>
<text text-anchor="middle" x="626.21" y="-529.8" font-family="Times,serif" font-size="14.00">string</text>
</g>
<!-- n0_place_0&#45;&gt;n2_port_4 -->
<g id="edge13" class="edge">
<title>n0_place_0&#45;&gt;n2_port_4</title>
<path fill="none" stroke="black" stroke-dasharray="5,2" d="M387.28,-359.08C410.55,-395.21 457.13,-460.38 512.21,-499 527.9,-510 546.82,-518.5 564.65,-524.89"/>
<polygon fill="black" stroke="black" points="563.82,-528.31 574.42,-528.22 566.08,-521.68 563.82,-528.31"/>
</g>
<!-- n1_port_1 -->
<g id="node17" class="node">
<title>n1_port_1</title>
<polygon fill="white" stroke="black" points="1172.3,-707.33 1070.28,-730.43 968.25,-707.33 968.35,-669.96 1172.2,-669.96 1172.3,-707.33"/>
<text text-anchor="middle" x="1070.28" y="-700.8" font-family="Times,serif" font-size="14.00">base_filename</text>
<text text-anchor="middle" x="1070.28" y="-685.8" font-family="Times,serif" font-size="14.00">string</text>
</g>
<!-- n0_place_1&#45;&gt;n1_port_1 -->
<g id="edge6" class="edge">
<title>n0_place_1&#45;&gt;n1_port_1</title>
<path fill="none" stroke="black" stroke-dasharray="5,2" d="M402.86,-848.95C429.95,-869.48 471.08,-896.55 512.21,-908 609.83,-935.17 643.37,-937.84 740.21,-908 834.54,-878.93 854.71,-853.51 923.78,-783 939.73,-766.71 933.93,-754.2 951.78,-740 962.96,-731.1 976.16,-723.93 989.6,-718.2"/>
<polygon fill="black" stroke="black" points="990.95,-721.43 998.92,-714.45 988.34,-714.93 990.95,-721.43"/>
</g>
<!-- n2_port_3 -->
<g id="node27" class="node">
<title>n2_port_3</title>
<polygon fill="white" stroke="black" points="728.24,-803.33 626.21,-826.43 524.19,-803.33 524.28,-765.96 728.14,-765.96 728.24,-803.33"/>
<text text-anchor="middle" x="626.21" y="-796.8" font-family="Times,serif" font-size="14.00">base_filename</text>
<text text-anchor="middle" x="626.21" y="-781.8" font-family="Times,serif" font-size="14.00">string</text>
</g>
<!-- n0_place_1&#45;&gt;n2_port_3 -->
<g id="edge14" class="edge">
<title>n0_place_1&#45;&gt;n2_port_3</title>
<path fill="none" stroke="black" stroke-dasharray="5,2" d="M472.42,-811.06C487.62,-809.26 503.34,-807.4 518.64,-805.59"/>
<polygon fill="black" stroke="black" points="519.12,-809.06 528.64,-804.41 518.29,-802.11 519.12,-809.06"/>
</g>
<!-- n0_place_2 -->
<g id="node8" class="node">
<title>n0_place_2</title>
<ellipse fill="white" stroke="black" cx="845.99" cy="-205" rx="75.82" ry="26.74"/>
<text text-anchor="middle" x="845.99" y="-208.8" font-family="Times,serif" font-size="14.00">reducedIBPs</text>
<text text-anchor="middle" x="845.99" y="-193.8" font-family="Times,serif" font-size="14.00">string</text>
</g>
<!-- n1_port_0 -->
<g id="node16" class="node">
<title>n1_port_0</title>
<polygon fill="white" stroke="black" points="1166.56,-623.33 1070.28,-646.43 973.99,-623.33 974.08,-585.96 1166.47,-585.96 1166.56,-623.33"/>
<text text-anchor="middle" x="1070.28" y="-616.8" font-family="Times,serif" font-size="14.00">library_name</text>
<text text-anchor="middle" x="1070.28" y="-601.8" font-family="Times,serif" font-size="14.00">string</text>
</g>
<!-- n0_place_3&#45;&gt;n1_port_0 -->
<g id="edge7" class="edge">
<title>n0_place_3&#45;&gt;n1_port_0</title>
<path fill="none" stroke="black" stroke-dasharray="5,2" d="M424.93,-738.38C446.21,-750.14 469.16,-766.34 484.21,-787 513.15,-826.74 473.3,-863.96 512.21,-894 552.32,-924.96 694.01,-914.8 740.21,-894 869.56,-835.75 834.27,-734.49 951.78,-655 964.36,-646.49 978.87,-639.49 993.3,-633.81"/>
<polygon fill="black" stroke="black" points="994.62,-637.05 1002.76,-630.26 992.16,-630.5 994.62,-637.05"/>
</g>
<!-- n2_port_1 -->
<g id="node26" class="node">
<title>n2_port_1</title>
<polygon fill="white" stroke="black" points="722.5,-719.33 626.21,-742.43 529.92,-719.33 530.01,-681.96 722.41,-681.96 722.5,-719.33"/>
<text text-anchor="middle" x="626.21" y="-712.8" font-family="Times,serif" font-size="14.00">library_name</text>
<text text-anchor="middle" x="626.21" y="-697.8" font-family="Times,serif" font-size="14.00">string</text>
</g>
<!-- n0_place_3&#45;&gt;n2_port_1 -->
<g id="edge15" class="edge">
<title>n0_place_3&#45;&gt;n2_port_1</title>
<path fill="none" stroke="black" stroke-dasharray="5,2" d="M479.76,-712.44C493.07,-712.12 506.67,-711.8 519.93,-711.49"/>
<polygon fill="black" stroke="black" points="520.09,-714.99 530.01,-711.25 519.93,-707.99 520.09,-714.99"/>
</g>
<!-- n0_place_4 -->
<g id="node10" class="node">
<title>n0_place_4</title>
<ellipse fill="white" stroke="black" cx="370.37" cy="-625" rx="78.48" ry="37.45"/>
<text text-anchor="middle" x="370.37" y="-636.3" font-family="Times,serif" font-size="14.00">input_control</text>
<text text-anchor="middle" x="370.37" y="-621.3" font-family="Times,serif" font-size="14.00">control</text>
<text text-anchor="middle" x="370.37" y="-606.3" font-family="Times,serif" font-size="14.00">[]</text>
</g>
<!-- n2_port_0 -->
<g id="node25" class="node">
<title>n2_port_0</title>
<polygon fill="white" stroke="black" points="723.25,-635.33 626.21,-658.43 529.18,-635.33 529.27,-597.96 723.16,-597.96 723.25,-635.33"/>
<text text-anchor="middle" x="626.21" y="-628.8" font-family="Times,serif" font-size="14.00">input_control</text>
<text text-anchor="middle" x="626.21" y="-613.8" font-family="Times,serif" font-size="14.00">control</text>
</g>
<!-- n0_place_4&#45;&gt;n2_port_0 -->
<g id="edge12" class="edge">
<title>n0_place_4&#45;&gt;n2_port_0</title>
<path fill="none" stroke="black" d="M448.91,-625C470.88,-625 495.19,-625 518.56,-625"/>
<polygon fill="black" stroke="black" points="518.87,-628.5 528.87,-625 518.87,-621.5 518.87,-628.5"/>
</g>
<!-- n0_place_5 -->
<g id="node11" class="node">
<title>n0_place_5</title>
<ellipse fill="white" stroke="black" cx="845.99" cy="-493" rx="77.56" ry="26.74"/>
<text text-anchor="middle" x="845.99" y="-496.8" font-family="Times,serif" font-size="14.00">labeledgraph</text>
<text text-anchor="middle" x="845.99" y="-481.8" font-family="Times,serif" font-size="14.00">string</text>
</g>
<!-- n1_port_3 -->
<g id="node19" class="node">
<title>n1_port_3</title>
<polygon fill="white" stroke="black" points="1166.56,-539.33 1070.28,-562.43 973.99,-539.33 974.08,-501.96 1166.47,-501.96 1166.56,-539.33"/>
<text text-anchor="middle" x="1070.28" y="-532.8" font-family="Times,serif" font-size="14.00">labeledgraph</text>
<text text-anchor="middle" x="1070.28" y="-517.8" font-family="Times,serif" font-size="14.00">string</text>
</g>
<!-- n0_place_5&#45;&gt;n1_port_3 -->
<g id="edge3" class="edge">
<title>n0_place_5&#45;&gt;n1_port_3</title>
<path fill="none" stroke="black" d="M916.72,-504.29C931.69,-506.72 947.83,-509.33 963.81,-511.92"/>
<polygon fill="black" stroke="black" points="963.3,-515.38 973.74,-513.53 964.42,-508.47 963.3,-515.38"/>
</g>
<!-- n0_place_6 -->
<g id="node12" class="node">
<title>n0_place_6</title>
<ellipse fill="white" stroke="black" cx="845.99" cy="-295" rx="41.94" ry="26.74"/>
<text text-anchor="middle" x="845.99" y="-298.8" font-family="Times,serif" font-size="14.00">web</text>
<text text-anchor="middle" x="845.99" y="-283.8" font-family="Times,serif" font-size="14.00">string</text>
</g>
<!-- n1_port_2 -->
<g id="node18" class="node">
<title>n1_port_2</title>
<polygon fill="white" stroke="black" points="1121.91,-371.33 1070.28,-394.43 1018.64,-371.33 1018.69,-333.96 1121.86,-333.96 1121.91,-371.33"/>
<text text-anchor="middle" x="1070.28" y="-364.8" font-family="Times,serif" font-size="14.00">web</text>
<text text-anchor="middle" x="1070.28" y="-349.8" font-family="Times,serif" font-size="14.00">string</text>
</g>
<!-- n0_place_6&#45;&gt;n1_port_2 -->
<g id="edge4" class="edge">
<title>n0_place_6&#45;&gt;n1_port_2</title>
<path fill="none" stroke="black" d="M884.2,-306.05C918.22,-316.15 969.17,-331.28 1009,-343.1"/>
<polygon fill="black" stroke="black" points="1008.03,-346.46 1018.61,-345.96 1010.02,-339.75 1008.03,-346.46"/>
</g>
<!-- n0_place_7 -->
<g id="node13" class="node">
<title>n0_place_7</title>
<ellipse fill="white" stroke="black" cx="845.99" cy="-397" rx="41.94" ry="26.74"/>
<text text-anchor="middle" x="845.99" y="-400.8" font-family="Times,serif" font-size="14.00">MI</text>
<text text-anchor="middle" x="845.99" y="-385.8" font-family="Times,serif" font-size="14.00">string</text>
</g>
<!-- n1_port_5 -->
<g id="node21" class="node">
<title>n1_port_5</title>
<polygon fill="white" stroke="black" points="1121.91,-455.33 1070.28,-478.43 1018.64,-455.33 1018.69,-417.96 1121.86,-417.96 1121.91,-455.33"/>
<text text-anchor="middle" x="1070.28" y="-448.8" font-family="Times,serif" font-size="14.00">MI</text>
<text text-anchor="middle" x="1070.28" y="-433.8" font-family="Times,serif" font-size="14.00">string</text>
</g>
<!-- n0_place_7&#45;&gt;n1_port_5 -->
<g id="edge5" class="edge">
<title>n0_place_7&#45;&gt;n1_port_5</title>
<path fill="none" stroke="black" d="M885.71,-405.36C919.58,-412.67 969.35,-423.42 1008.52,-431.88"/>
<polygon fill="black" stroke="black" points="1007.97,-435.34 1018.49,-434.03 1009.45,-428.5 1007.97,-435.34"/>
</g>
<!-- n1_condition -->
<g id="node15" class="node">
<title>n1_condition</title>
<polygon fill="white" stroke="black" points="1026.78,-749 1026.78,-785 1113.78,-785 1113.78,-749 1026.78,-749"/>
<text text-anchor="middle" x="1070.28" y="-763.3" font-family="Times,serif" font-size="14.00">compute1</text>
</g>
<!-- n1_port_6 -->
<g id="node22" class="node">
<title>n1_port_6</title>
<polygon fill="white" stroke="black" points="1004.67,-182.67 1070.28,-159.57 1135.88,-182.67 1135.82,-220.04 1004.73,-220.04 1004.67,-182.67"/>
<text text-anchor="middle" x="1070.28" y="-196.8" font-family="Times,serif" font-size="14.00">totalIBP</text>
<text text-anchor="middle" x="1070.28" y="-181.8" font-family="Times,serif" font-size="14.00">string</text>
</g>
<!-- n1_port_6&#45;&gt;n0_place_8 -->
<g id="edge1" class="edge">
<title>n1_port_6&#45;&gt;n0_place_8</title>
<path fill="none" stroke="black" d="M1134.59,-182.1C1158.59,-177.97 1185.8,-173.29 1209.42,-169.22"/>
<polygon fill="black" stroke="black" points="1210.04,-172.67 1219.3,-167.52 1208.85,-165.77 1210.04,-172.67"/>
</g>
<!-- n1_modcall -->
<g id="node23" class="node">
<title>n1_modcall</title>
<polygon fill="white" stroke="black" points="1180.78,-142 959.78,-142 959.78,-106 1180.78,-106 1180.78,-142"/>
<text text-anchor="middle" x="1070.28" y="-120.3" font-family="Times,serif" font-size="14.00">singular_template.compute1</text>
</g>
<!-- n2_condition -->
<g id="node24" class="node">
<title>n2_condition</title>
<polygon fill="white" stroke="black" points="587.21,-845 587.21,-881 665.21,-881 665.21,-845 587.21,-845"/>
<text text-anchor="middle" x="626.21" y="-859.3" font-family="Times,serif" font-size="14.00">compute</text>
</g>
<!-- n2_port_2 -->
<g id="node29" class="node">
<title>n2_port_2</title>
<polygon fill="white" stroke="black" points="532.67,-194.67 626.21,-171.57 719.75,-194.67 719.67,-232.04 532.76,-232.04 532.67,-194.67"/>
<text text-anchor="middle" x="626.21" y="-208.8" font-family="Times,serif" font-size="14.00">reducedIBPs</text>
<text text-anchor="middle" x="626.21" y="-193.8" font-family="Times,serif" font-size="14.00">string</text>
</g>
<!-- n2_port_2&#45;&gt;n0_place_2 -->
<g id="edge9" class="edge">
<title>n2_port_2&#45;&gt;n0_place_2</title>
<path fill="none" stroke="black" d="M719.89,-205C733.13,-205 746.71,-205 759.8,-205"/>
<polygon fill="black" stroke="black" points="760.18,-208.5 770.18,-205 760.18,-201.5 760.18,-208.5"/>
</g>
<!-- n2_port_5 -->
<g id="node30" class="node">
<title>n2_port_5</title>
<polygon fill="white" stroke="black" points="529.92,-446.67 626.21,-423.57 722.5,-446.67 722.41,-484.04 530.01,-484.04 529.92,-446.67"/>
<text text-anchor="middle" x="626.21" y="-460.8" font-family="Times,serif" font-size="14.00">labeledgraph</text>
<text text-anchor="middle" x="626.21" y="-445.8" font-family="Times,serif" font-size="14.00">string</text>
</g>
<!-- n2_port_5&#45;&gt;n0_place_5 -->
<g id="edge10" class="edge">
<title>n2_port_5&#45;&gt;n0_place_5</title>
<path fill="none" stroke="black" d="M722.42,-472.74C736.79,-475.11 751.48,-477.54 765.47,-479.85"/>
<polygon fill="black" stroke="black" points="765.08,-483.34 775.52,-481.52 766.22,-476.43 765.08,-483.34"/>
</g>
<!-- n2_port_6 -->
<g id="node31" class="node">
<title>n2_port_6</title>
<polygon fill="white" stroke="black" points="574.58,-278.67 626.21,-255.57 677.85,-278.67 677.8,-316.04 574.62,-316.04 574.58,-278.67"/>
<text text-anchor="middle" x="626.21" y="-292.8" font-family="Times,serif" font-size="14.00">web</text>
<text text-anchor="middle" x="626.21" y="-277.8" font-family="Times,serif" font-size="14.00">string</text>
</g>
<!-- n2_port_6&#45;&gt;n0_place_6 -->
<g id="edge11" class="edge">
<title>n2_port_6&#45;&gt;n0_place_6</title>
<path fill="none" stroke="black" d="M678,-290.4C712.89,-291.36 759.04,-292.63 793.98,-293.59"/>
<polygon fill="black" stroke="black" points="793.88,-297.09 803.97,-293.87 794.07,-290.1 793.88,-297.09"/>
</g>
<!-- n2_port_7 -->
<g id="node32" class="node">
<title>n2_port_7</title>
<polygon fill="white" stroke="black" points="574.58,-362.67 626.21,-339.57 677.85,-362.67 677.8,-400.04 574.62,-400.04 574.58,-362.67"/>
<text text-anchor="middle" x="626.21" y="-376.8" font-family="Times,serif" font-size="14.00">MI</text>
<text text-anchor="middle" x="626.21" y="-361.8" font-family="Times,serif" font-size="14.00">string</text>
</g>
<!-- n2_port_7&#45;&gt;n0_place_7 -->
<g id="edge8" class="edge">
<title>n2_port_7&#45;&gt;n0_place_7</title>
<path fill="none" stroke="black" d="M678,-378.6C713.12,-382.47 759.64,-387.59 794.66,-391.45"/>
<polygon fill="black" stroke="black" points="794.35,-394.94 804.67,-392.56 795.12,-387.98 794.35,-394.94"/>
</g>
<!-- n2_modcall -->
<g id="node33" class="node">
<title>n2_modcall</title>
<polygon fill="white" stroke="black" points="732.21,-154 520.21,-154 520.21,-118 732.21,-118 732.21,-154"/>
<text text-anchor="middle" x="626.21" y="-132.3" font-family="Times,serif" font-size="14.00">singular_template.compute</text>
</g>
</g>
</svg>
