<?xml version="1.0" encoding="UTF-8" standalone="no"?>
<!DOCTYPE svg PUBLIC "-//W3C//DTD SVG 1.1//EN"
 "http://www.w3.org/Graphics/SVG/1.1/DTD/svg11.dtd">
<!-- Generated by graphviz version 2.43.0 (0)
 -->
<!-- Title: template Pages: 1 -->
<svg width="1355pt" height="954pt"
 viewBox="0.00 0.00 1354.84 954.00" xmlns="http://www.w3.org/2000/svg" xmlns:xlink="http://www.w3.org/1999/xlink">
<g id="graph0" class="graph" transform="scale(1 1) rotate(0) translate(4 950)">
<title>template</title>
<polygon fill="white" stroke="transparent" points="-4,4 -4,-950 1350.84,-950 1350.84,4 -4,4"/>
<g id="clust1" class="cluster">
<title>cluster_0</title>
<polygon fill="dimgray" stroke="black" points="8,-8 8,-938 1338.84,-938 1338.84,-8 8,-8"/>
</g>
<g id="clust2" class="cluster">
<title>cluster_net_0</title>
<polygon fill="white" stroke="black" points="248.52,-90 248.52,-930 1330.84,-930 1330.84,-90 248.52,-90"/>
</g>
<g id="clust3" class="cluster">
<title>cluster_1</title>
<polygon fill="yellow" stroke="black" points="951.78,-98 951.78,-710 1188.78,-710 1188.78,-98 951.78,-98"/>
</g>
<g id="clust4" class="cluster">
<title>cluster_2</title>
<polygon fill="yellow" stroke="black" points="512.21,-130 512.21,-910 740.21,-910 740.21,-130 512.21,-130"/>
</g>
<!-- n0_condition -->
<g id="node1" class="node">
<title>n0_condition</title>
<polygon fill="white" stroke="black" points="78.26,-886 78.26,-922 158.26,-922 158.26,-886 78.26,-886"/>
<text text-anchor="middle" x="118.26" y="-900.3" font-family="Times,serif" font-size="14.00">template</text>
</g>
<!-- n0_port_0 -->
<g id="node2" class="node">
<title>n0_port_0</title>
<polygon fill="white" stroke="black" points="220.29,-830.33 118.26,-853.43 16.24,-830.33 16.33,-792.96 220.19,-792.96 220.29,-830.33"/>
<text text-anchor="middle" x="118.26" y="-823.8" font-family="Times,serif" font-size="14.00">base_filename</text>
<text text-anchor="middle" x="118.26" y="-808.8" font-family="Times,serif" font-size="14.00">string</text>
</g>
<!-- n0_place_1 -->
<g id="node7" class="node">
<title>n0_place_1</title>
<ellipse fill="white" stroke="black" cx="370.37" cy="-820" rx="113.69" ry="26.74"/>
<text text-anchor="middle" x="370.37" y="-823.8" font-family="Times,serif" font-size="14.00">place_base_filename</text>
<text text-anchor="middle" x="370.37" y="-808.8" font-family="Times,serif" font-size="14.00">string</text>
</g>
<!-- n0_port_0&#45;&gt;n0_place_1 -->
<g id="edge15" class="edge">
<title>n0_port_0&#45;&gt;n0_place_1</title>
<path fill="none" stroke="black" stroke-dasharray="1,5" d="M220.27,-820C232.2,-820 244.43,-820 256.51,-820"/>
</g>
<!-- n0_port_1 -->
<g id="node3" class="node">
<title>n0_port_1</title>
<polygon fill="white" stroke="black" points="214.55,-437.33 118.26,-460.43 21.97,-437.33 22.06,-399.96 214.46,-399.96 214.55,-437.33"/>
<text text-anchor="middle" x="118.26" y="-430.8" font-family="Times,serif" font-size="14.00">library_name</text>
<text text-anchor="middle" x="118.26" y="-415.8" font-family="Times,serif" font-size="14.00">string</text>
</g>
<!-- n0_place_3 -->
<g id="node9" class="node">
<title>n0_place_3</title>
<ellipse fill="white" stroke="black" cx="370.37" cy="-427" rx="109.7" ry="26.74"/>
<text text-anchor="middle" x="370.37" y="-430.8" font-family="Times,serif" font-size="14.00">place_library_name</text>
<text text-anchor="middle" x="370.37" y="-415.8" font-family="Times,serif" font-size="14.00">string</text>
</g>
<!-- n0_port_1&#45;&gt;n0_place_3 -->
<g id="edge16" class="edge">
<title>n0_port_1&#45;&gt;n0_place_3</title>
<path fill="none" stroke="black" stroke-dasharray="1,5" d="M214.53,-427C229.58,-427 245.23,-427 260.56,-427"/>
</g>
<!-- n0_port_2 -->
<g id="node4" class="node">
<title>n0_port_2</title>
<polygon fill="white" stroke="black" points="169.9,-244.33 118.26,-267.43 66.63,-244.33 66.67,-206.96 169.85,-206.96 169.9,-244.33"/>
<text text-anchor="middle" x="118.26" y="-237.8" font-family="Times,serif" font-size="14.00">input</text>
<text text-anchor="middle" x="118.26" y="-222.8" font-family="Times,serif" font-size="14.00">string</text>
</g>
<!-- n0_place_0 -->
<g id="node6" class="node">
<title>n0_place_0</title>
<ellipse fill="white" stroke="black" cx="370.37" cy="-234" rx="69.09" ry="26.74"/>
<text text-anchor="middle" x="370.37" y="-237.8" font-family="Times,serif" font-size="14.00">place_input</text>
<text text-anchor="middle" x="370.37" y="-222.8" font-family="Times,serif" font-size="14.00">string</text>
</g>
<!-- n0_port_2&#45;&gt;n0_place_0 -->
<g id="edge17" class="edge">
<title>n0_port_2&#45;&gt;n0_place_0</title>
<path fill="none" stroke="black" stroke-dasharray="1,5" d="M169.87,-234C207.56,-234 259.42,-234 300.82,-234"/>
</g>
<!-- n0_port_3 -->
<g id="node5" class="node">
<title>n0_port_3</title>
<polygon fill="white" stroke="black" points="1014.4,-38.67 1070.28,-15.57 1126.15,-38.67 1126.1,-76.04 1014.45,-76.04 1014.4,-38.67"/>
<text text-anchor="middle" x="1070.28" y="-52.8" font-family="Times,serif" font-size="14.00">output</text>
<text text-anchor="middle" x="1070.28" y="-37.8" font-family="Times,serif" font-size="14.00">string</text>
</g>
<!-- n0_place_8 -->
<g id="node14" class="node">
<title>n0_place_8</title>
<ellipse fill="white" stroke="black" cx="1269.81" cy="-159" rx="53.07" ry="26.74"/>
<text text-anchor="middle" x="1269.81" y="-162.8" font-family="Times,serif" font-size="14.00">totalIBP</text>
<text text-anchor="middle" x="1269.81" y="-147.8" font-family="Times,serif" font-size="14.00">string</text>
</g>
<!-- n0_port_3&#45;&gt;n0_place_8 -->
<g id="edge18" class="edge">
<title>n0_port_3&#45;&gt;n0_place_8</title>
<path fill="none" stroke="black" stroke-dasharray="1,5" d="M1126.14,-65.95C1146.47,-73.26 1169.29,-82.74 1188.78,-94 1208.77,-105.55 1228.93,-121.97 1244.02,-135.41"/>
</g>
<!-- n1_port_4 -->
<g id="node20" class="node">
<title>n1_port_4</title>
<polygon fill="white" stroke="black" points="1121.91,-287.33 1070.28,-310.43 1018.64,-287.33 1018.69,-249.96 1121.86,-249.96 1121.91,-287.33"/>
<text text-anchor="middle" x="1070.28" y="-280.8" font-family="Times,serif" font-size="14.00">input</text>
<text text-anchor="middle" x="1070.28" y="-265.8" font-family="Times,serif" font-size="14.00">string</text>
</g>
<!-- n0_place_0&#45;&gt;n1_port_4 -->
<g id="edge2" class="edge">
<title>n0_place_0&#45;&gt;n1_port_4</title>
<path fill="none" stroke="black" stroke-dasharray="5,2" d="M391.46,-208.34C416.2,-179.05 461.27,-132.76 512.21,-114 683.86,-50.79 780.59,-0.17 923.78,-114 966.98,-148.35 915.07,-193.77 951.78,-235 966.45,-251.48 988.05,-261.5 1008.74,-267.58"/>
<polygon fill="black" stroke="black" points="1007.91,-270.98 1018.47,-270.19 1009.72,-264.22 1007.91,-270.98"/>
</g>
<!-- n2_port_4 -->
<g id="node27" class="node">
<title>n2_port_4</title>
<polygon fill="white" stroke="black" points="677.85,-571.33 626.21,-594.43 574.58,-571.33 574.62,-533.96 677.8,-533.96 677.85,-571.33"/>
<text text-anchor="middle" x="626.21" y="-564.8" font-family="Times,serif" font-size="14.00">input</text>
<text text-anchor="middle" x="626.21" y="-549.8" font-family="Times,serif" font-size="14.00">string</text>
</g>
<!-- n0_place_0&#45;&gt;n2_port_4 -->
<g id="edge12" class="edge">
<title>n0_place_0&#45;&gt;n2_port_4</title>
<path fill="none" stroke="black" stroke-dasharray="5,2" d="M394.76,-259.43C420.57,-288.89 461.46,-339.95 484.21,-391 507.92,-444.19 474.03,-475.03 512.21,-519 525.71,-534.55 545.53,-544.35 564.8,-550.52"/>
<polygon fill="black" stroke="black" points="563.92,-553.91 574.5,-553.35 565.88,-547.19 563.92,-553.91"/>
</g>
<!-- n1_port_1 -->
<g id="node17" class="node">
<title>n1_port_1</title>
<polygon fill="white" stroke="black" points="1172.3,-623.33 1070.28,-646.43 968.25,-623.33 968.35,-585.96 1172.2,-585.96 1172.3,-623.33"/>
<text text-anchor="middle" x="1070.28" y="-616.8" font-family="Times,serif" font-size="14.00">base_filename</text>
<text text-anchor="middle" x="1070.28" y="-601.8" font-family="Times,serif" font-size="14.00">string</text>
</g>
<!-- n0_place_1&#45;&gt;n1_port_1 -->
<g id="edge5" class="edge">
<title>n0_place_1&#45;&gt;n1_port_1</title>
<path fill="none" stroke="black" stroke-dasharray="5,2" d="M399.47,-846.18C426.17,-869.11 468.6,-900.78 512.21,-914 609.19,-943.39 648.62,-957.34 740.21,-914 874.25,-850.57 830.86,-741.85 951.78,-656 963.79,-647.47 977.69,-640.44 991.63,-634.71"/>
<polygon fill="black" stroke="black" points="993.22,-637.85 1001.27,-630.96 990.68,-631.33 993.22,-637.85"/>
</g>
<!-- n2_port_3 -->
<g id="node26" class="node">
<title>n2_port_3</title>
<polygon fill="white" stroke="black" points="728.24,-823.33 626.21,-846.43 524.19,-823.33 524.28,-785.96 728.14,-785.96 728.24,-823.33"/>
<text text-anchor="middle" x="626.21" y="-816.8" font-family="Times,serif" font-size="14.00">base_filename</text>
<text text-anchor="middle" x="626.21" y="-801.8" font-family="Times,serif" font-size="14.00">string</text>
</g>
<!-- n0_place_1&#45;&gt;n2_port_3 -->
<g id="edge13" class="edge">
<title>n0_place_1&#45;&gt;n2_port_3</title>
<path fill="none" stroke="black" stroke-dasharray="5,2" d="M483.82,-816.9C493.76,-816.62 503.82,-816.35 513.75,-816.07"/>
<polygon fill="black" stroke="black" points="514.14,-819.56 524.04,-815.79 513.95,-812.57 514.14,-819.56"/>
</g>
<!-- n0_place_2 -->
<g id="node8" class="node">
<title>n0_place_2</title>
<ellipse fill="white" stroke="black" cx="845.99" cy="-477" rx="75.82" ry="26.74"/>
<text text-anchor="middle" x="845.99" y="-480.8" font-family="Times,serif" font-size="14.00">reducedIBPs</text>
<text text-anchor="middle" x="845.99" y="-465.8" font-family="Times,serif" font-size="14.00">string</text>
</g>
<!-- n1_port_0 -->
<g id="node16" class="node">
<title>n1_port_0</title>
<polygon fill="white" stroke="black" points="1166.56,-371.33 1070.28,-394.43 973.99,-371.33 974.08,-333.96 1166.47,-333.96 1166.56,-371.33"/>
<text text-anchor="middle" x="1070.28" y="-364.8" font-family="Times,serif" font-size="14.00">library_name</text>
<text text-anchor="middle" x="1070.28" y="-349.8" font-family="Times,serif" font-size="14.00">string</text>
</g>
<!-- n0_place_3&#45;&gt;n1_port_0 -->
<g id="edge6" class="edge">
<title>n0_place_3&#45;&gt;n1_port_0</title>
<path fill="none" stroke="black" stroke-dasharray="5,2" d="M395.92,-400.6C421.97,-371.06 462.32,-320.69 484.21,-270 510.06,-210.14 461.9,-167.47 512.21,-126 583.77,-67.02 862.86,-125.08 923.78,-195 960.89,-237.6 914.32,-276.7 951.78,-319 955.82,-323.57 960.41,-327.65 965.35,-331.28"/>
<polygon fill="black" stroke="black" points="963.72,-334.39 974,-336.98 967.58,-328.55 963.72,-334.39"/>
</g>
<!-- n2_port_1 -->
<g id="node25" class="node">
<title>n2_port_1</title>
<polygon fill="white" stroke="black" points="722.5,-655.33 626.21,-678.43 529.92,-655.33 530.01,-617.96 722.41,-617.96 722.5,-655.33"/>
<text text-anchor="middle" x="626.21" y="-648.8" font-family="Times,serif" font-size="14.00">library_name</text>
<text text-anchor="middle" x="626.21" y="-633.8" font-family="Times,serif" font-size="14.00">string</text>
</g>
<!-- n0_place_3&#45;&gt;n2_port_1 -->
<g id="edge14" class="edge">
<title>n0_place_3&#45;&gt;n2_port_1</title>
<path fill="none" stroke="black" stroke-dasharray="5,2" d="M386.33,-453.73C408.94,-491.88 455.28,-561.85 512.21,-603 517.28,-606.66 522.7,-610.04 528.32,-613.15"/>
<polygon fill="black" stroke="black" points="526.82,-616.31 537.31,-617.82 530.05,-610.1 526.82,-616.31"/>
</g>
<!-- n0_place_4 -->
<g id="node10" class="node">
<title>n0_place_4</title>
<ellipse fill="white" stroke="black" cx="370.37" cy="-729" rx="78.48" ry="37.45"/>
<text text-anchor="middle" x="370.37" y="-740.3" font-family="Times,serif" font-size="14.00">input_control</text>
<text text-anchor="middle" x="370.37" y="-725.3" font-family="Times,serif" font-size="14.00">control</text>
<text text-anchor="middle" x="370.37" y="-710.3" font-family="Times,serif" font-size="14.00">[]</text>
</g>
<!-- n2_port_0 -->
<g id="node24" class="node">
<title>n2_port_0</title>
<polygon fill="white" stroke="black" points="723.25,-739.33 626.21,-762.43 529.18,-739.33 529.27,-701.96 723.16,-701.96 723.25,-739.33"/>
<text text-anchor="middle" x="626.21" y="-732.8" font-family="Times,serif" font-size="14.00">input_control</text>
<text text-anchor="middle" x="626.21" y="-717.8" font-family="Times,serif" font-size="14.00">control</text>
</g>
<!-- n0_place_4&#45;&gt;n2_port_0 -->
<g id="edge11" class="edge">
<title>n0_place_4&#45;&gt;n2_port_0</title>
<path fill="none" stroke="black" d="M448.91,-729C470.88,-729 495.19,-729 518.56,-729"/>
<polygon fill="black" stroke="black" points="518.87,-732.5 528.87,-729 518.87,-725.5 518.87,-732.5"/>
</g>
<!-- n0_place_5 -->
<g id="node11" class="node">
<title>n0_place_5</title>
<ellipse fill="white" stroke="black" cx="845.99" cy="-231" rx="77.56" ry="26.74"/>
<text text-anchor="middle" x="845.99" y="-234.8" font-family="Times,serif" font-size="14.00">labeledgraph</text>
<text text-anchor="middle" x="845.99" y="-219.8" font-family="Times,serif" font-size="14.00">string</text>
</g>
<!-- n1_port_3 -->
<g id="node19" class="node">
<title>n1_port_3</title>
<polygon fill="white" stroke="black" points="1166.56,-455.33 1070.28,-478.43 973.99,-455.33 974.08,-417.96 1166.47,-417.96 1166.56,-455.33"/>
<text text-anchor="middle" x="1070.28" y="-448.8" font-family="Times,serif" font-size="14.00">labeledgraph</text>
<text text-anchor="middle" x="1070.28" y="-433.8" font-family="Times,serif" font-size="14.00">string</text>
</g>
<!-- n0_place_5&#45;&gt;n1_port_3 -->
<g id="edge3" class="edge">
<title>n0_place_5&#45;&gt;n1_port_3</title>
<path fill="none" stroke="black" d="M894.05,-252.3C905.24,-259.36 916.13,-268.23 923.78,-279 956.47,-325.08 914.32,-360.7 951.78,-403 955.82,-407.57 960.41,-411.65 965.35,-415.28"/>
<polygon fill="black" stroke="black" points="963.72,-418.39 974,-420.98 967.58,-412.55 963.72,-418.39"/>
</g>
<!-- n0_place_6 -->
<g id="node12" class="node">
<title>n0_place_6</title>
<ellipse fill="white" stroke="black" cx="845.99" cy="-315" rx="41.94" ry="26.74"/>
<text text-anchor="middle" x="845.99" y="-318.8" font-family="Times,serif" font-size="14.00">web</text>
<text text-anchor="middle" x="845.99" y="-303.8" font-family="Times,serif" font-size="14.00">string</text>
</g>
<!-- n1_port_2 -->
<g id="node18" class="node">
<title>n1_port_2</title>
<polygon fill="white" stroke="black" points="1121.91,-539.33 1070.28,-562.43 1018.64,-539.33 1018.69,-501.96 1121.86,-501.96 1121.91,-539.33"/>
<text text-anchor="middle" x="1070.28" y="-532.8" font-family="Times,serif" font-size="14.00">web</text>
<text text-anchor="middle" x="1070.28" y="-517.8" font-family="Times,serif" font-size="14.00">string</text>
</g>
<!-- n0_place_6&#45;&gt;n1_port_2 -->
<g id="edge4" class="edge">
<title>n0_place_6&#45;&gt;n1_port_2</title>
<path fill="none" stroke="black" d="M883.28,-327.15C897.91,-333.79 913.69,-343.48 923.78,-357 959.13,-404.36 912.81,-442.56 951.78,-487 966.39,-503.66 988.08,-513.72 1008.87,-519.78"/>
<polygon fill="black" stroke="black" points="1008.08,-523.19 1018.64,-522.37 1009.87,-516.43 1008.08,-523.19"/>
</g>
<!-- n0_place_7 -->
<g id="node13" class="node">
<title>n0_place_7</title>
<ellipse fill="white" stroke="black" cx="845.99" cy="-393" rx="41.94" ry="26.74"/>
<text text-anchor="middle" x="845.99" y="-396.8" font-family="Times,serif" font-size="14.00">MI</text>
<text text-anchor="middle" x="845.99" y="-381.8" font-family="Times,serif" font-size="14.00">string</text>
</g>
<!-- n1_condition -->
<g id="node15" class="node">
<title>n1_condition</title>
<polygon fill="white" stroke="black" points="1026.78,-665 1026.78,-701 1113.78,-701 1113.78,-665 1026.78,-665"/>
<text text-anchor="middle" x="1070.28" y="-679.3" font-family="Times,serif" font-size="14.00">compute1</text>
</g>
<!-- n1_port_5 -->
<g id="node21" class="node">
<title>n1_port_5</title>
<polygon fill="white" stroke="black" points="1004.67,-182.67 1070.28,-159.57 1135.88,-182.67 1135.82,-220.04 1004.73,-220.04 1004.67,-182.67"/>
<text text-anchor="middle" x="1070.28" y="-196.8" font-family="Times,serif" font-size="14.00">totalIBP</text>
<text text-anchor="middle" x="1070.28" y="-181.8" font-family="Times,serif" font-size="14.00">string</text>
</g>
<!-- n1_port_5&#45;&gt;n0_place_8 -->
<g id="edge1" class="edge">
<title>n1_port_5&#45;&gt;n0_place_8</title>
<path fill="none" stroke="black" d="M1134.59,-182.1C1158.59,-177.97 1185.8,-173.29 1209.42,-169.22"/>
<polygon fill="black" stroke="black" points="1210.04,-172.67 1219.3,-167.52 1208.85,-165.77 1210.04,-172.67"/>
</g>
<!-- n1_modcall -->
<g id="node22" class="node">
<title>n1_modcall</title>
<polygon fill="white" stroke="black" points="1180.78,-142 959.78,-142 959.78,-106 1180.78,-106 1180.78,-142"/>
<text text-anchor="middle" x="1070.28" y="-120.3" font-family="Times,serif" font-size="14.00">singular_template.compute1</text>
</g>
<!-- n2_condition -->
<g id="node23" class="node">
<title>n2_condition</title>
<polygon fill="white" stroke="black" points="587.21,-865 587.21,-901 665.21,-901 665.21,-865 587.21,-865"/>
<text text-anchor="middle" x="626.21" y="-879.3" font-family="Times,serif" font-size="14.00">compute</text>
</g>
<!-- n2_port_2 -->
<g id="node28" class="node">
<title>n2_port_2</title>
<polygon fill="white" stroke="black" points="532.67,-466.67 626.21,-443.57 719.75,-466.67 719.67,-504.04 532.76,-504.04 532.67,-466.67"/>
<text text-anchor="middle" x="626.21" y="-480.8" font-family="Times,serif" font-size="14.00">reducedIBPs</text>
<text text-anchor="middle" x="626.21" y="-465.8" font-family="Times,serif" font-size="14.00">string</text>
</g>
<!-- n2_port_2&#45;&gt;n0_place_2 -->
<g id="edge8" class="edge">
<title>n2_port_2&#45;&gt;n0_place_2</title>
<path fill="none" stroke="black" d="M719.89,-477C733.13,-477 746.71,-477 759.8,-477"/>
<polygon fill="black" stroke="black" points="760.18,-480.5 770.18,-477 760.18,-473.5 760.18,-480.5"/>
</g>
<!-- n2_port_5 -->
<g id="node29" class="node">
<title>n2_port_5</title>
<polygon fill="white" stroke="black" points="529.92,-214.67 626.21,-191.57 722.5,-214.67 722.41,-252.04 530.01,-252.04 529.92,-214.67"/>
<text text-anchor="middle" x="626.21" y="-228.8" font-family="Times,serif" font-size="14.00">labeledgraph</text>
<text text-anchor="middle" x="626.21" y="-213.8" font-family="Times,serif" font-size="14.00">string</text>
</g>
<!-- n2_port_5&#45;&gt;n0_place_5 -->
<g id="edge9" class="edge">
<title>n2_port_5&#45;&gt;n0_place_5</title>
<path fill="none" stroke="black" d="M722.42,-227.62C734.28,-227.95 746.36,-228.28 758.09,-228.61"/>
<polygon fill="black" stroke="black" points="758.2,-232.11 768.29,-228.89 758.39,-225.11 758.2,-232.11"/>
</g>
<!-- n2_port_6 -->
<g id="node30" class="node">
<title>n2_port_6</title>
<polygon fill="white" stroke="black" points="574.58,-298.67 626.21,-275.57 677.85,-298.67 677.8,-336.04 574.62,-336.04 574.58,-298.67"/>
<text text-anchor="middle" x="626.21" y="-312.8" font-family="Times,serif" font-size="14.00">web</text>
<text text-anchor="middle" x="626.21" y="-297.8" font-family="Times,serif" font-size="14.00">string</text>
</g>
<!-- n2_port_6&#45;&gt;n0_place_6 -->
<g id="edge10" class="edge">
<title>n2_port_6&#45;&gt;n0_place_6</title>
<path fill="none" stroke="black" d="M678,-310.4C712.89,-311.36 759.04,-312.63 793.98,-313.59"/>
<polygon fill="black" stroke="black" points="793.88,-317.09 803.97,-313.87 794.07,-310.1 793.88,-317.09"/>
</g>
<!-- n2_port_7 -->
<g id="node31" class="node">
<title>n2_port_7</title>
<polygon fill="white" stroke="black" points="574.58,-382.67 626.21,-359.57 677.85,-382.67 677.8,-420.04 574.62,-420.04 574.58,-382.67"/>
<text text-anchor="middle" x="626.21" y="-396.8" font-family="Times,serif" font-size="14.00">MI</text>
<text text-anchor="middle" x="626.21" y="-381.8" font-family="Times,serif" font-size="14.00">string</text>
</g>
<!-- n2_port_7&#45;&gt;n0_place_7 -->
<g id="edge7" class="edge">
<title>n2_port_7&#45;&gt;n0_place_7</title>
<path fill="none" stroke="black" d="M678,-393C712.74,-393 758.64,-393 793.53,-393"/>
<polygon fill="black" stroke="black" points="793.97,-396.5 803.97,-393 793.97,-389.5 793.97,-396.5"/>
</g>
<!-- n2_modcall -->
<g id="node32" class="node">
<title>n2_modcall</title>
<polygon fill="white" stroke="black" points="732.21,-174 520.21,-174 520.21,-138 732.21,-138 732.21,-174"/>
<text text-anchor="middle" x="626.21" y="-152.3" font-family="Times,serif" font-size="14.00">singular_template.compute</text>
</g>
</g>
</svg>
