<?xml version="1.0" encoding="UTF-8" standalone="no"?>
<!DOCTYPE svg PUBLIC "-//W3C//DTD SVG 1.1//EN"
 "http://www.w3.org/Graphics/SVG/1.1/DTD/svg11.dtd">
<!-- Generated by graphviz version 2.43.0 (0)
 -->
<!-- Title: template Pages: 1 -->
<svg width="3341pt" height="2022pt"
 viewBox="0.00 0.00 3340.70 2022.00" xmlns="http://www.w3.org/2000/svg" xmlns:xlink="http://www.w3.org/1999/xlink">
<g id="graph0" class="graph" transform="scale(1 1) rotate(0) translate(4 2018)">
<title>template</title>
<polygon fill="white" stroke="transparent" points="-4,4 -4,-2018 3336.7,-2018 3336.7,4 -4,4"/>
<g id="clust1" class="cluster">
<title>cluster_0</title>
<polygon fill="dimgray" stroke="black" points="8,-8 8,-2006 3324.7,-2006 3324.7,-8 8,-8"/>
</g>
<g id="clust2" class="cluster">
<title>cluster_net_0</title>
<polygon fill="white" stroke="black" points="248.52,-90 248.52,-1998 3316.7,-1998 3316.7,-90 248.52,-90"/>
</g>
<g id="clust3" class="cluster">
<title>cluster_1</title>
<polygon fill="yellow" stroke="black" points="2952.29,-694 2952.29,-1222 3180.29,-1222 3180.29,-694 2952.29,-694"/>
</g>
<g id="clust4" class="cluster">
<title>cluster_2</title>
<polygon fill="yellow" stroke="black" points="2263.41,-970 2263.41,-1538 2521.41,-1538 2521.41,-970 2263.41,-970"/>
</g>
<g id="clust5" class="cluster">
<title>cluster_3</title>
<polygon fill="yellow" stroke="black" points="2261.41,-1546 2261.41,-1990 2523.41,-1990 2523.41,-1546 2261.41,-1546"/>
</g>
<g id="clust6" class="cluster">
<title>cluster_4</title>
<polygon fill="yellow" stroke="black" points="1994.59,-98 1994.59,-962 2790.22,-962 2790.22,-98 1994.59,-98"/>
</g>
<g id="clust7" class="cluster">
<title>cluster_5</title>
<polygon fill="yellow" stroke="black" points="512.21,-518 512.21,-1214 1307.85,-1214 1307.85,-518 512.21,-518"/>
</g>
<!-- n0_condition -->
<g id="node1" class="node">
<title>n0_condition</title>
<polygon fill="white" stroke="black" points="78.26,-1619 78.26,-1655 158.26,-1655 158.26,-1619 78.26,-1619"/>
<text text-anchor="middle" x="118.26" y="-1633.3" font-family="Times,serif" font-size="14.00">template</text>
</g>
<!-- n0_port_0 -->
<g id="node2" class="node">
<title>n0_port_0</title>
<polygon fill="white" stroke="black" points="220.29,-1235.33 118.26,-1258.43 16.24,-1235.33 16.33,-1197.96 220.19,-1197.96 220.29,-1235.33"/>
<text text-anchor="middle" x="118.26" y="-1228.8" font-family="Times,serif" font-size="14.00">base_filename</text>
<text text-anchor="middle" x="118.26" y="-1213.8" font-family="Times,serif" font-size="14.00">string</text>
</g>
<!-- n0_place_0 -->
<g id="node18" class="node">
<title>n0_place_0</title>
<ellipse fill="white" stroke="black" cx="370.37" cy="-1225" rx="113.69" ry="26.74"/>
<text text-anchor="middle" x="370.37" y="-1228.8" font-family="Times,serif" font-size="14.00">place_base_filename</text>
<text text-anchor="middle" x="370.37" y="-1213.8" font-family="Times,serif" font-size="14.00">string</text>
</g>
<!-- n0_port_0&#45;&gt;n0_place_0 -->
<g id="edge31" class="edge">
<title>n0_port_0&#45;&gt;n0_place_0</title>
<path fill="none" stroke="black" stroke-dasharray="1,5" d="M220.27,-1225C232.2,-1225 244.43,-1225 256.51,-1225"/>
</g>
<!-- n0_port_1 -->
<g id="node3" class="node">
<title>n0_port_1</title>
<polygon fill="white" stroke="black" points="214.55,-1043.33 118.26,-1066.43 21.97,-1043.33 22.06,-1005.96 214.46,-1005.96 214.55,-1043.33"/>
<text text-anchor="middle" x="118.26" y="-1036.8" font-family="Times,serif" font-size="14.00">library_name</text>
<text text-anchor="middle" x="118.26" y="-1021.8" font-family="Times,serif" font-size="14.00">string</text>
</g>
<!-- n0_place_4 -->
<g id="node14" class="node">
<title>n0_place_4</title>
<ellipse fill="white" stroke="black" cx="370.37" cy="-1033" rx="109.7" ry="26.74"/>
<text text-anchor="middle" x="370.37" y="-1036.8" font-family="Times,serif" font-size="14.00">place_library_name</text>
<text text-anchor="middle" x="370.37" y="-1021.8" font-family="Times,serif" font-size="14.00">string</text>
</g>
<!-- n0_port_1&#45;&gt;n0_place_4 -->
<g id="edge32" class="edge">
<title>n0_port_1&#45;&gt;n0_place_4</title>
<path fill="none" stroke="black" stroke-dasharray="1,5" d="M214.53,-1033C229.58,-1033 245.23,-1033 260.56,-1033"/>
</g>
<!-- n0_port_2 -->
<g id="node4" class="node">
<title>n0_port_2</title>
<polygon fill="white" stroke="black" points="169.9,-623.33 118.26,-646.43 66.63,-623.33 66.67,-585.96 169.85,-585.96 169.9,-623.33"/>
<text text-anchor="middle" x="118.26" y="-616.8" font-family="Times,serif" font-size="14.00">input</text>
<text text-anchor="middle" x="118.26" y="-601.8" font-family="Times,serif" font-size="14.00">string</text>
</g>
<!-- n0_place_8 -->
<g id="node10" class="node">
<title>n0_place_8</title>
<ellipse fill="white" stroke="black" cx="370.37" cy="-613" rx="69.09" ry="26.74"/>
<text text-anchor="middle" x="370.37" y="-616.8" font-family="Times,serif" font-size="14.00">place_input</text>
<text text-anchor="middle" x="370.37" y="-601.8" font-family="Times,serif" font-size="14.00">string</text>
</g>
<!-- n0_port_2&#45;&gt;n0_place_8 -->
<g id="edge33" class="edge">
<title>n0_port_2&#45;&gt;n0_place_8</title>
<path fill="none" stroke="black" stroke-dasharray="1,5" d="M169.87,-613C207.56,-613 259.42,-613 300.82,-613"/>
</g>
<!-- n0_port_3 -->
<g id="node5" class="node">
<title>n0_port_3</title>
<polygon fill="white" stroke="black" points="2336.53,-38.67 2392.41,-15.57 2448.28,-38.67 2448.23,-76.04 2336.58,-76.04 2336.53,-38.67"/>
<text text-anchor="middle" x="2392.41" y="-52.8" font-family="Times,serif" font-size="14.00">output</text>
<text text-anchor="middle" x="2392.41" y="-37.8" font-family="Times,serif" font-size="14.00">string</text>
</g>
<!-- n0_place_3 -->
<g id="node15" class="node">
<title>n0_place_3</title>
<ellipse fill="white" stroke="black" cx="2871.26" cy="-159" rx="53.07" ry="26.74"/>
<text text-anchor="middle" x="2871.26" y="-162.8" font-family="Times,serif" font-size="14.00">totalIBP</text>
<text text-anchor="middle" x="2871.26" y="-147.8" font-family="Times,serif" font-size="14.00">string</text>
</g>
<!-- n0_port_3&#45;&gt;n0_place_3 -->
<g id="edge34" class="edge">
<title>n0_port_3&#45;&gt;n0_place_3</title>
<path fill="none" stroke="black" stroke-dasharray="1,5" d="M2448.45,-45.72C2527.38,-43.1 2675.79,-45.95 2790.22,-94 2812.17,-103.22 2832.92,-120.4 2847.79,-134.79"/>
</g>
<!-- n0_place_12 -->
<g id="node6" class="node">
<title>n0_place_12</title>
<ellipse fill="white" stroke="black" cx="1651.22" cy="-613" rx="77.56" ry="26.74"/>
<text text-anchor="middle" x="1651.22" y="-616.8" font-family="Times,serif" font-size="14.00">labeledgraph</text>
<text text-anchor="middle" x="1651.22" y="-601.8" font-family="Times,serif" font-size="14.00">string</text>
</g>
<!-- n4_port_2 -->
<g id="node43" class="node">
<title>n4_port_2</title>
<polygon fill="white" stroke="black" points="2488.69,-623.33 2392.41,-646.43 2296.12,-623.33 2296.21,-585.96 2488.6,-585.96 2488.69,-623.33"/>
<text text-anchor="middle" x="2392.41" y="-616.8" font-family="Times,serif" font-size="14.00">labeledgraph</text>
<text text-anchor="middle" x="2392.41" y="-601.8" font-family="Times,serif" font-size="14.00">string</text>
</g>
<!-- n0_place_12&#45;&gt;n4_port_2 -->
<g id="edge21" class="edge">
<title>n0_place_12&#45;&gt;n4_port_2</title>
<path fill="none" stroke="black" stroke-dasharray="5,2" d="M1729.23,-613C1862.25,-613 2135.24,-613 2285.84,-613"/>
<polygon fill="black" stroke="black" points="2286.02,-616.5 2296.02,-613 2286.02,-609.5 2286.02,-616.5"/>
</g>
<!-- n0_place_11 -->
<g id="node7" class="node">
<title>n0_place_11</title>
<ellipse fill="white" stroke="black" cx="2871.26" cy="-1401" rx="43.68" ry="26.74"/>
<text text-anchor="middle" x="2871.26" y="-1404.8" font-family="Times,serif" font-size="14.00">myvec</text>
<text text-anchor="middle" x="2871.26" y="-1389.8" font-family="Times,serif" font-size="14.00">string</text>
</g>
<!-- n2_port_3 -->
<g id="node29" class="node">
<title>n2_port_3</title>
<polygon fill="white" stroke="black" points="2446.79,-1327.33 2392.41,-1350.43 2338.03,-1327.33 2338.08,-1289.96 2446.74,-1289.96 2446.79,-1327.33"/>
<text text-anchor="middle" x="2392.41" y="-1320.8" font-family="Times,serif" font-size="14.00">myvec</text>
<text text-anchor="middle" x="2392.41" y="-1305.8" font-family="Times,serif" font-size="14.00">string</text>
</g>
<!-- n0_place_11&#45;&gt;n2_port_3 -->
<g id="edge9" class="edge">
<title>n0_place_11&#45;&gt;n2_port_3</title>
<path fill="none" stroke="black" d="M2840.26,-1381.79C2825.71,-1373.4 2807.64,-1364.28 2790.22,-1359 2676.33,-1324.47 2536.61,-1317.37 2457,-1316.44"/>
<polygon fill="black" stroke="black" points="2456.68,-1312.93 2446.65,-1316.34 2456.62,-1319.93 2456.68,-1312.93"/>
</g>
<!-- n0_place_10 -->
<g id="node8" class="node">
<title>n0_place_10</title>
<ellipse fill="white" stroke="black" cx="2871.26" cy="-802" rx="35.21" ry="37.45"/>
<text text-anchor="middle" x="2871.26" y="-813.3" font-family="Times,serif" font-size="14.00">limit</text>
<text text-anchor="middle" x="2871.26" y="-798.3" font-family="Times,serif" font-size="14.00">int</text>
<text text-anchor="middle" x="2871.26" y="-783.3" font-family="Times,serif" font-size="14.00">0</text>
</g>
<!-- n1_port_3 -->
<g id="node23" class="node">
<title>n1_port_3</title>
<polygon fill="white" stroke="black" points="3110.19,-799.33 3066.29,-822.43 3022.39,-799.33 3022.43,-761.96 3110.15,-761.96 3110.19,-799.33"/>
<text text-anchor="middle" x="3066.29" y="-792.8" font-family="Times,serif" font-size="14.00">limit</text>
<text text-anchor="middle" x="3066.29" y="-777.8" font-family="Times,serif" font-size="14.00">int</text>
</g>
<!-- n0_place_10&#45;&gt;n1_port_3 -->
<g id="edge3" class="edge">
<title>n0_place_10&#45;&gt;n1_port_3</title>
<path fill="none" stroke="black" d="M2906.77,-799.68C2936.05,-797.7 2978.55,-794.84 3012.17,-792.58"/>
<polygon fill="black" stroke="black" points="3012.55,-796.06 3022.3,-791.9 3012.08,-789.08 3012.55,-796.06"/>
</g>
<!-- n0_place_9 -->
<g id="node9" class="node">
<title>n0_place_9</title>
<ellipse fill="white" stroke="black" cx="2871.26" cy="-945" rx="47.25" ry="37.45"/>
<text text-anchor="middle" x="2871.26" y="-956.3" font-family="Times,serif" font-size="14.00">slow</text>
<text text-anchor="middle" x="2871.26" y="-941.3" font-family="Times,serif" font-size="14.00">control</text>
<text text-anchor="middle" x="2871.26" y="-926.3" font-family="Times,serif" font-size="14.00">[]</text>
</g>
<!-- n1_port_0 -->
<g id="node21" class="node">
<title>n1_port_0</title>
<polygon fill="white" stroke="black" points="3124.91,-1051.33 3066.29,-1074.43 3007.67,-1051.33 3007.72,-1013.96 3124.86,-1013.96 3124.91,-1051.33"/>
<text text-anchor="middle" x="3066.29" y="-1044.8" font-family="Times,serif" font-size="14.00">slow</text>
<text text-anchor="middle" x="3066.29" y="-1029.8" font-family="Times,serif" font-size="14.00">control</text>
</g>
<!-- n0_place_9&#45;&gt;n1_port_0 -->
<g id="edge4" class="edge">
<title>n0_place_9&#45;&gt;n1_port_0</title>
<path fill="none" stroke="black" d="M2906.21,-970.53C2920.05,-980.22 2936.49,-990.88 2952.29,-999 2966.7,-1006.41 2982.74,-1013.18 2998.09,-1019.01"/>
<polygon fill="black" stroke="black" points="2996.95,-1022.32 3007.54,-1022.53 2999.39,-1015.76 2996.95,-1022.32"/>
</g>
<!-- n4_port_3 -->
<g id="node44" class="node">
<title>n4_port_3</title>
<polygon fill="white" stroke="black" points="2444.04,-371.33 2392.41,-394.43 2340.77,-371.33 2340.82,-333.96 2443.99,-333.96 2444.04,-371.33"/>
<text text-anchor="middle" x="2392.41" y="-364.8" font-family="Times,serif" font-size="14.00">input</text>
<text text-anchor="middle" x="2392.41" y="-349.8" font-family="Times,serif" font-size="14.00">string</text>
</g>
<!-- n0_place_8&#45;&gt;n4_port_3 -->
<g id="edge20" class="edge">
<title>n0_place_8&#45;&gt;n4_port_3</title>
<path fill="none" stroke="black" stroke-dasharray="5,2" d="M388.11,-586.86C411.35,-553.18 456.83,-496 512.21,-471 847.46,-319.69 2046,-349.42 2330.51,-358.81"/>
<polygon fill="black" stroke="black" points="2330.52,-362.31 2340.63,-359.14 2330.76,-355.31 2330.52,-362.31"/>
</g>
<!-- n5_port_3 -->
<g id="node55" class="node">
<title>n5_port_3</title>
<polygon fill="white" stroke="black" points="961.67,-875.33 910.03,-898.43 858.39,-875.33 858.44,-837.96 961.62,-837.96 961.67,-875.33"/>
<text text-anchor="middle" x="910.03" y="-868.8" font-family="Times,serif" font-size="14.00">input</text>
<text text-anchor="middle" x="910.03" y="-853.8" font-family="Times,serif" font-size="14.00">string</text>
</g>
<!-- n0_place_8&#45;&gt;n5_port_3 -->
<g id="edge28" class="edge">
<title>n0_place_8&#45;&gt;n5_port_3</title>
<path fill="none" stroke="black" stroke-dasharray="5,2" d="M380.66,-639.82C398.26,-686.11 441.17,-780.15 512.21,-823 616.99,-886.2 766.09,-882.18 848.47,-873.62"/>
<polygon fill="black" stroke="black" points="848.86,-877.09 858.42,-872.52 848.1,-870.14 848.86,-877.09"/>
</g>
<!-- n0_place_7 -->
<g id="node11" class="node">
<title>n0_place_7</title>
<ellipse fill="white" stroke="black" cx="370.37" cy="-949" rx="78.48" ry="37.45"/>
<text text-anchor="middle" x="370.37" y="-960.3" font-family="Times,serif" font-size="14.00">input_control</text>
<text text-anchor="middle" x="370.37" y="-945.3" font-family="Times,serif" font-size="14.00">control</text>
<text text-anchor="middle" x="370.37" y="-930.3" font-family="Times,serif" font-size="14.00">[]</text>
</g>
<!-- n5_port_0 -->
<g id="node52" class="node">
<title>n5_port_0</title>
<polygon fill="white" stroke="black" points="1007.07,-959.33 910.03,-982.43 813,-959.33 813.09,-921.96 1006.97,-921.96 1007.07,-959.33"/>
<text text-anchor="middle" x="910.03" y="-952.8" font-family="Times,serif" font-size="14.00">input_control</text>
<text text-anchor="middle" x="910.03" y="-937.8" font-family="Times,serif" font-size="14.00">control</text>
</g>
<!-- n0_place_7&#45;&gt;n5_port_0 -->
<g id="edge27" class="edge">
<title>n0_place_7&#45;&gt;n5_port_0</title>
<path fill="none" stroke="black" d="M448.97,-949C541.99,-949 698.33,-949 802.58,-949"/>
<polygon fill="black" stroke="black" points="802.81,-952.5 812.81,-949 802.81,-945.5 802.81,-952.5"/>
</g>
<!-- n0_place_6 -->
<g id="node12" class="node">
<title>n0_place_6</title>
<ellipse fill="white" stroke="black" cx="2871.26" cy="-1052" rx="50.41" ry="26.74"/>
<text text-anchor="middle" x="2871.26" y="-1055.8" font-family="Times,serif" font-size="14.00">Sectors</text>
<text text-anchor="middle" x="2871.26" y="-1040.8" font-family="Times,serif" font-size="14.00">list</text>
</g>
<!-- n4_port_4 -->
<g id="node45" class="node">
<title>n4_port_4</title>
<polygon fill="white" stroke="black" points="2454.52,-539.33 2392.41,-562.43 2330.29,-539.33 2330.35,-501.96 2454.46,-501.96 2454.52,-539.33"/>
<text text-anchor="middle" x="2392.41" y="-532.8" font-family="Times,serif" font-size="14.00">Sectors</text>
<text text-anchor="middle" x="2392.41" y="-517.8" font-family="Times,serif" font-size="14.00">list</text>
</g>
<!-- n0_place_6&#45;&gt;n4_port_4 -->
<g id="edge18" class="edge">
<title>n0_place_6&#45;&gt;n4_port_4</title>
<path fill="none" stroke="black" d="M2844.42,-1028.95C2834.41,-1018.44 2823.99,-1005.18 2818.22,-991 2800.6,-947.68 2822.65,-604.71 2790.22,-571 2706.99,-484.46 2554.57,-495.85 2464.8,-512.23"/>
<polygon fill="black" stroke="black" points="2463.88,-508.84 2454.7,-514.14 2465.18,-515.72 2463.88,-508.84"/>
</g>
<!-- n0_place_5 -->
<g id="node13" class="node">
<title>n0_place_5</title>
<ellipse fill="white" stroke="black" cx="1651.22" cy="-980" rx="60.62" ry="26.74"/>
<text text-anchor="middle" x="1651.22" y="-983.8" font-family="Times,serif" font-size="14.00">web_copy</text>
<text text-anchor="middle" x="1651.22" y="-968.8" font-family="Times,serif" font-size="14.00">string</text>
</g>
<!-- n3_port_2 -->
<g id="node37" class="node">
<title>n3_port_2</title>
<polygon fill="white" stroke="black" points="2467.74,-1735.33 2392.41,-1758.43 2317.07,-1735.33 2317.14,-1697.96 2467.67,-1697.96 2467.74,-1735.33"/>
<text text-anchor="middle" x="2392.41" y="-1728.8" font-family="Times,serif" font-size="14.00">web_copy</text>
<text text-anchor="middle" x="2392.41" y="-1713.8" font-family="Times,serif" font-size="14.00">string</text>
</g>
<!-- n0_place_5&#45;&gt;n3_port_2 -->
<g id="edge12" class="edge">
<title>n0_place_5&#45;&gt;n3_port_2</title>
<path fill="none" stroke="black" d="M1671.46,-1005.42C1726.98,-1080.13 1888.49,-1307.33 1966.59,-1522 1991.42,-1590.25 1941.55,-1633.39 1994.59,-1683 2081.42,-1764.23 2230.19,-1755.41 2318.82,-1740.79"/>
<polygon fill="black" stroke="black" points="2319.52,-1744.22 2328.79,-1739.07 2318.34,-1737.32 2319.52,-1744.22"/>
</g>
<!-- n3_port_0 -->
<g id="node35" class="node">
<title>n3_port_0</title>
<polygon fill="white" stroke="black" points="2488.69,-1819.33 2392.41,-1842.43 2296.12,-1819.33 2296.21,-1781.96 2488.6,-1781.96 2488.69,-1819.33"/>
<text text-anchor="middle" x="2392.41" y="-1812.8" font-family="Times,serif" font-size="14.00">library_name</text>
<text text-anchor="middle" x="2392.41" y="-1797.8" font-family="Times,serif" font-size="14.00">string</text>
</g>
<!-- n0_place_4&#45;&gt;n3_port_0 -->
<g id="edge14" class="edge">
<title>n0_place_4&#45;&gt;n3_port_0</title>
<path fill="none" stroke="black" stroke-dasharray="5,2" d="M390.45,-1059.74C425.2,-1108.17 496.64,-1206.47 512.21,-1218 582.79,-1270.26 1909.08,-1746.97 1994.59,-1767 2091.78,-1789.76 2205.27,-1800.21 2285.93,-1804.99"/>
<polygon fill="black" stroke="black" points="2285.91,-1808.49 2296.09,-1805.57 2286.31,-1801.5 2285.91,-1808.49"/>
</g>
<!-- n4_port_0 -->
<g id="node41" class="node">
<title>n4_port_0</title>
<polygon fill="white" stroke="black" points="2488.69,-455.33 2392.41,-478.43 2296.12,-455.33 2296.21,-417.96 2488.6,-417.96 2488.69,-455.33"/>
<text text-anchor="middle" x="2392.41" y="-448.8" font-family="Times,serif" font-size="14.00">library_name</text>
<text text-anchor="middle" x="2392.41" y="-433.8" font-family="Times,serif" font-size="14.00">string</text>
</g>
<!-- n0_place_4&#45;&gt;n4_port_0 -->
<g id="edge23" class="edge">
<title>n0_place_4&#45;&gt;n4_port_0</title>
<path fill="none" stroke="black" stroke-dasharray="5,2" d="M457.51,-1016.51C467.84,-1011.2 477.19,-1004.2 484.21,-995 549.18,-909.9 435.69,-588.89 512.21,-514 639.16,-389.75 1908.49,-426.89 2286.03,-440.81"/>
<polygon fill="black" stroke="black" points="2286,-444.32 2296.13,-441.19 2286.26,-437.32 2286,-444.32"/>
</g>
<!-- n5_port_1 -->
<g id="node53" class="node">
<title>n5_port_1</title>
<polygon fill="white" stroke="black" points="1006.32,-1043.33 910.03,-1066.43 813.74,-1043.33 813.83,-1005.96 1006.23,-1005.96 1006.32,-1043.33"/>
<text text-anchor="middle" x="910.03" y="-1036.8" font-family="Times,serif" font-size="14.00">library_name</text>
<text text-anchor="middle" x="910.03" y="-1021.8" font-family="Times,serif" font-size="14.00">string</text>
</g>
<!-- n0_place_4&#45;&gt;n5_port_1 -->
<g id="edge30" class="edge">
<title>n0_place_4&#45;&gt;n5_port_1</title>
<path fill="none" stroke="black" stroke-dasharray="5,2" d="M480.17,-1033C574.62,-1033 710.49,-1033 803.85,-1033"/>
<polygon fill="black" stroke="black" points="803.88,-1036.5 813.88,-1033 803.88,-1029.5 803.88,-1036.5"/>
</g>
<!-- n0_place_2 -->
<g id="node16" class="node">
<title>n0_place_2</title>
<ellipse fill="white" stroke="black" cx="1651.22" cy="-697" rx="315.24" ry="26.74"/>
<text text-anchor="middle" x="1651.22" y="-700.8" font-family="Times,serif" font-size="14.00">data</text>
<text text-anchor="middle" x="1651.22" y="-685.8" font-family="Times,serif" font-size="14.00">feynman :: [MI :: string, reducedIBPs :: string, web :: string]</text>
</g>
<!-- n4_port_5 -->
<g id="node46" class="node">
<title>n4_port_5</title>
<polygon fill="white" stroke="black" points="2782.04,-707.33 2392.41,-730.43 2002.77,-707.33 2003.13,-669.96 2781.68,-669.96 2782.04,-707.33"/>
<text text-anchor="middle" x="2392.41" y="-700.8" font-family="Times,serif" font-size="14.00">data</text>
<text text-anchor="middle" x="2392.41" y="-685.8" font-family="Times,serif" font-size="14.00">feynman :: [MI :: string, reducedIBPs :: string, web :: string]</text>
</g>
<!-- n0_place_2&#45;&gt;n4_port_5 -->
<g id="edge19" class="edge">
<title>n0_place_2&#45;&gt;n4_port_5</title>
<path fill="none" stroke="black" d="M1966.77,-697C1975.32,-697 1983.9,-697 1992.5,-697"/>
<polygon fill="black" stroke="black" points="1992.61,-700.5 2002.61,-697 1992.61,-693.5 1992.61,-700.5"/>
</g>
<!-- n0_place_1 -->
<g id="node17" class="node">
<title>n0_place_1</title>
<ellipse fill="white" stroke="black" cx="3258.49" cy="-1053" rx="50.41" ry="37.45"/>
<text text-anchor="middle" x="3258.49" y="-1064.3" font-family="Times,serif" font-size="14.00">counter</text>
<text text-anchor="middle" x="3258.49" y="-1049.3" font-family="Times,serif" font-size="14.00">int</text>
<text text-anchor="middle" x="3258.49" y="-1034.3" font-family="Times,serif" font-size="14.00">3</text>
</g>
<!-- n2_port_2 -->
<g id="node28" class="node">
<title>n2_port_2</title>
<polygon fill="white" stroke="black" points="2454.52,-1243.33 2392.41,-1266.43 2330.29,-1243.33 2330.35,-1205.96 2454.46,-1205.96 2454.52,-1243.33"/>
<text text-anchor="middle" x="2392.41" y="-1236.8" font-family="Times,serif" font-size="14.00">counter</text>
<text text-anchor="middle" x="2392.41" y="-1221.8" font-family="Times,serif" font-size="14.00">int</text>
</g>
<!-- n0_place_1&#45;&gt;n2_port_2 -->
<g id="edge10" class="edge">
<title>n0_place_1&#45;&gt;n2_port_2</title>
<path fill="none" stroke="black" d="M3252.65,-1090.28C3245.09,-1131.45 3226.23,-1195.9 3180.29,-1226 3064.1,-1302.12 2636.01,-1261.73 2464.83,-1241.89"/>
<polygon fill="black" stroke="black" points="2465.01,-1238.39 2454.67,-1240.71 2464.19,-1245.34 2465.01,-1238.39"/>
</g>
<!-- n3_port_1 -->
<g id="node36" class="node">
<title>n3_port_1</title>
<polygon fill="white" stroke="black" points="2494.43,-1903.33 2392.41,-1926.43 2290.38,-1903.33 2290.48,-1865.96 2494.33,-1865.96 2494.43,-1903.33"/>
<text text-anchor="middle" x="2392.41" y="-1896.8" font-family="Times,serif" font-size="14.00">base_filename</text>
<text text-anchor="middle" x="2392.41" y="-1881.8" font-family="Times,serif" font-size="14.00">string</text>
</g>
<!-- n0_place_0&#45;&gt;n3_port_1 -->
<g id="edge13" class="edge">
<title>n0_place_0&#45;&gt;n3_port_1</title>
<path fill="none" stroke="black" stroke-dasharray="5,2" d="M375.51,-1252.11C386.23,-1312.51 420.75,-1458.59 512.21,-1532 1055.26,-1967.84 1968.78,-1931.99 2282.1,-1904.68"/>
<polygon fill="black" stroke="black" points="2282.44,-1908.16 2292.09,-1903.79 2281.82,-1901.19 2282.44,-1908.16"/>
</g>
<!-- n4_port_1 -->
<g id="node42" class="node">
<title>n4_port_1</title>
<polygon fill="white" stroke="black" points="2494.43,-875.33 2392.41,-898.43 2290.38,-875.33 2290.48,-837.96 2494.33,-837.96 2494.43,-875.33"/>
<text text-anchor="middle" x="2392.41" y="-868.8" font-family="Times,serif" font-size="14.00">base_filename</text>
<text text-anchor="middle" x="2392.41" y="-853.8" font-family="Times,serif" font-size="14.00">string</text>
</g>
<!-- n0_place_0&#45;&gt;n4_port_1 -->
<g id="edge22" class="edge">
<title>n0_place_0&#45;&gt;n4_port_1</title>
<path fill="none" stroke="black" stroke-dasharray="5,2" d="M477.49,-1234.12C651.95,-1246.91 1009.75,-1263.82 1307.85,-1218 1610.52,-1171.48 1754.85,-1237.23 1966.59,-1016 2000.87,-980.18 1957.06,-940.42 1994.59,-908 2072.09,-841.04 2192.38,-837.07 2280.21,-845.67"/>
<polygon fill="black" stroke="black" points="2279.9,-849.16 2290.21,-846.72 2280.63,-842.19 2279.9,-849.16"/>
</g>
<!-- n5_port_2 -->
<g id="node54" class="node">
<title>n5_port_2</title>
<polygon fill="white" stroke="black" points="1012.05,-1127.33 910.03,-1150.43 808.01,-1127.33 808.1,-1089.96 1011.96,-1089.96 1012.05,-1127.33"/>
<text text-anchor="middle" x="910.03" y="-1120.8" font-family="Times,serif" font-size="14.00">base_filename</text>
<text text-anchor="middle" x="910.03" y="-1105.8" font-family="Times,serif" font-size="14.00">string</text>
</g>
<!-- n0_place_0&#45;&gt;n5_port_2 -->
<g id="edge29" class="edge">
<title>n0_place_0&#45;&gt;n5_port_2</title>
<path fill="none" stroke="black" stroke-dasharray="5,2" d="M415.31,-1200.21C442.4,-1186.09 478.34,-1169.38 512.21,-1160 606.35,-1133.93 717.14,-1123.53 797.7,-1119.45"/>
<polygon fill="black" stroke="black" points="798.04,-1122.94 807.86,-1118.96 797.71,-1115.95 798.04,-1122.94"/>
</g>
<!-- n0_place_13 -->
<g id="node19" class="node">
<title>n0_place_13</title>
<ellipse fill="white" stroke="black" cx="2871.26" cy="-1137" rx="27" ry="26.74"/>
<text text-anchor="middle" x="2871.26" y="-1140.8" font-family="Times,serif" font-size="14.00">m</text>
<text text-anchor="middle" x="2871.26" y="-1125.8" font-family="Times,serif" font-size="14.00">int</text>
</g>
<!-- n1_port_1 -->
<g id="node22" class="node">
<title>n1_port_1</title>
<polygon fill="white" stroke="black" points="3097.72,-1135.33 3066.29,-1158.43 3034.86,-1135.33 3034.89,-1097.96 3097.69,-1097.96 3097.72,-1135.33"/>
<text text-anchor="middle" x="3066.29" y="-1128.8" font-family="Times,serif" font-size="14.00">m</text>
<text text-anchor="middle" x="3066.29" y="-1113.8" font-family="Times,serif" font-size="14.00">int</text>
</g>
<!-- n0_place_13&#45;&gt;n1_port_1 -->
<g id="edge5" class="edge">
<title>n0_place_13&#45;&gt;n1_port_1</title>
<path fill="none" stroke="black" stroke-dasharray="5,2" d="M2898.29,-1135.38C2930.65,-1133.37 2986.25,-1129.91 3024.34,-1127.55"/>
<polygon fill="black" stroke="black" points="3024.82,-1131.02 3034.58,-1126.91 3024.39,-1124.04 3024.82,-1131.02"/>
</g>
<!-- n1_condition -->
<g id="node20" class="node">
<title>n1_condition</title>
<polygon fill="white" stroke="black" points="3026.79,-1177 3026.79,-1213 3105.79,-1213 3105.79,-1177 3026.79,-1177"/>
<text text-anchor="middle" x="3066.29" y="-1191.3" font-family="Times,serif" font-size="14.00">counting</text>
</g>
<!-- n1_port_2 -->
<g id="node24" class="node">
<title>n1_port_2</title>
<polygon fill="white" stroke="black" points="3004.18,-862.67 3066.29,-839.57 3128.4,-862.67 3128.34,-900.04 3004.24,-900.04 3004.18,-862.67"/>
<text text-anchor="middle" x="3066.29" y="-876.8" font-family="Times,serif" font-size="14.00">counter</text>
<text text-anchor="middle" x="3066.29" y="-861.8" font-family="Times,serif" font-size="14.00">int</text>
</g>
<!-- n1_port_2&#45;&gt;n0_place_1 -->
<g id="edge1" class="edge">
<title>n1_port_2&#45;&gt;n0_place_1</title>
<path fill="none" stroke="black" d="M3128.41,-887C3146.55,-893.33 3165.51,-902.34 3180.29,-915 3208.89,-939.49 3229,-977.35 3241.52,-1007.23"/>
<polygon fill="black" stroke="black" points="3238.32,-1008.66 3245.31,-1016.62 3244.81,-1006.04 3238.32,-1008.66"/>
</g>
<!-- n1_port_4 -->
<g id="node25" class="node">
<title>n1_port_4</title>
<polygon fill="white" stroke="black" points="3022.39,-946.67 3066.29,-923.57 3110.19,-946.67 3110.15,-984.04 3022.43,-984.04 3022.39,-946.67"/>
<text text-anchor="middle" x="3066.29" y="-960.8" font-family="Times,serif" font-size="14.00">limit</text>
<text text-anchor="middle" x="3066.29" y="-945.8" font-family="Times,serif" font-size="14.00">int</text>
</g>
<!-- n1_port_4&#45;&gt;n0_place_10 -->
<g id="edge2" class="edge">
<title>n1_port_4&#45;&gt;n0_place_10</title>
<path fill="none" stroke="black" d="M3022.56,-947.63C3000.02,-941.16 2972.87,-930.81 2952.29,-915 2927.61,-896.04 2907.43,-867.35 2893.5,-843.63"/>
<polygon fill="black" stroke="black" points="2896.47,-841.77 2888.47,-834.81 2890.39,-845.24 2896.47,-841.77"/>
</g>
<!-- n1_modcall -->
<g id="node26" class="node">
<title>n1_modcall</title>
<polygon fill="white" stroke="black" points="3172.29,-738 2960.29,-738 2960.29,-702 3172.29,-702 3172.29,-738"/>
<text text-anchor="middle" x="3066.29" y="-716.3" font-family="Times,serif" font-size="14.00">singular_template.counting</text>
</g>
<!-- n2_condition -->
<g id="node27" class="node">
<title>n2_condition</title>
<polygon fill="white" stroke="black" points="2298.91,-1452.5 2298.91,-1529.5 2485.91,-1529.5 2485.91,-1452.5 2298.91,-1452.5"/>
<text text-anchor="middle" x="2392.41" y="-1514.3" font-family="Times,serif" font-size="14.00">compute_vec</text>
<polyline fill="none" stroke="black" points="2298.91,-1506.5 2485.91,-1506.5 "/>
<text text-anchor="middle" x="2392.41" y="-1491.3" font-family="Times,serif" font-size="14.00">((${myvec} != &quot;Done&quot;) </text>
<text text-anchor="middle" x="2392.41" y="-1476.3" font-family="Times,serif" font-size="14.00">(${counter} &gt; 0))</text>
</g>
<!-- n2_port_0 -->
<g id="node30" class="node">
<title>n2_port_0</title>
<polygon fill="white" stroke="black" points="2330.29,-1054.67 2392.41,-1031.57 2454.52,-1054.67 2454.46,-1092.04 2330.35,-1092.04 2330.29,-1054.67"/>
<text text-anchor="middle" x="2392.41" y="-1068.8" font-family="Times,serif" font-size="14.00">Sectors</text>
<text text-anchor="middle" x="2392.41" y="-1053.8" font-family="Times,serif" font-size="14.00">list</text>
</g>
<!-- n2_port_0&#45;&gt;n0_place_6 -->
<g id="edge8" class="edge">
<title>n2_port_0&#45;&gt;n0_place_6</title>
<path fill="none" stroke="black" d="M2454.72,-1061.33C2546.88,-1058.82 2719.89,-1054.1 2810.86,-1051.62"/>
<path fill="none" stroke="transparent" d="M2454.77,-1063.33C2546.93,-1060.81 2719.95,-1056.1 2810.91,-1053.62"/>
<path fill="none" stroke="black" d="M2454.82,-1065.33C2546.98,-1062.81 2720,-1058.1 2810.97,-1055.62"/>
<polygon fill="black" stroke="black" points="2811.15,-1057.11 2821.05,-1053.34 2810.96,-1050.12 2811.15,-1057.11"/>
</g>
<!-- n2_port_1 -->
<g id="node31" class="node">
<title>n2_port_1</title>
<polygon fill="white" stroke="black" points="2360.98,-1138.67 2392.41,-1115.57 2423.84,-1138.67 2423.81,-1176.04 2361.01,-1176.04 2360.98,-1138.67"/>
<text text-anchor="middle" x="2392.41" y="-1152.8" font-family="Times,serif" font-size="14.00">m</text>
<text text-anchor="middle" x="2392.41" y="-1137.8" font-family="Times,serif" font-size="14.00">int</text>
</g>
<!-- n2_port_1&#45;&gt;n0_place_13 -->
<g id="edge7" class="edge">
<title>n2_port_1&#45;&gt;n0_place_13</title>
<path fill="none" stroke="black" d="M2423.96,-1148.23C2508.19,-1146.11 2743.47,-1140.19 2834.06,-1137.91"/>
<polygon fill="black" stroke="black" points="2834.22,-1141.41 2844.12,-1137.66 2834.04,-1134.41 2834.22,-1141.41"/>
</g>
<!-- n2_port_4 -->
<g id="node32" class="node">
<title>n2_port_4</title>
<polygon fill="white" stroke="black" points="2338.03,-1390.67 2392.41,-1367.57 2446.79,-1390.67 2446.74,-1428.04 2338.08,-1428.04 2338.03,-1390.67"/>
<text text-anchor="middle" x="2392.41" y="-1404.8" font-family="Times,serif" font-size="14.00">myvec</text>
<text text-anchor="middle" x="2392.41" y="-1389.8" font-family="Times,serif" font-size="14.00">string</text>
</g>
<!-- n2_port_4&#45;&gt;n0_place_11 -->
<g id="edge6" class="edge">
<title>n2_port_4&#45;&gt;n0_place_11</title>
<path fill="none" stroke="black" d="M2446.72,-1401C2538.57,-1401 2725.59,-1401 2817.24,-1401"/>
<polygon fill="black" stroke="black" points="2817.4,-1404.5 2827.4,-1401 2817.4,-1397.5 2817.4,-1404.5"/>
</g>
<!-- n2_modcall -->
<g id="node33" class="node">
<title>n2_modcall</title>
<polygon fill="white" stroke="black" points="2513.41,-1014 2271.41,-1014 2271.41,-978 2513.41,-978 2513.41,-1014"/>
<text text-anchor="middle" x="2392.41" y="-992.3" font-family="Times,serif" font-size="14.00">singular_template.compute_vec</text>
</g>
<!-- n3_condition -->
<g id="node34" class="node">
<title>n3_condition</title>
<polygon fill="white" stroke="black" points="2335.91,-1945 2335.91,-1981 2448.91,-1981 2448.91,-1945 2335.91,-1945"/>
<text text-anchor="middle" x="2392.41" y="-1959.3" font-family="Times,serif" font-size="14.00">compute_size</text>
</g>
<!-- n3_port_3 -->
<g id="node38" class="node">
<title>n3_port_3</title>
<polygon fill="white" stroke="black" points="2338.03,-1630.67 2392.41,-1607.57 2446.79,-1630.67 2446.74,-1668.04 2338.08,-1668.04 2338.03,-1630.67"/>
<text text-anchor="middle" x="2392.41" y="-1644.8" font-family="Times,serif" font-size="14.00">myvec</text>
<text text-anchor="middle" x="2392.41" y="-1629.8" font-family="Times,serif" font-size="14.00">string</text>
</g>
<!-- n3_port_3&#45;&gt;n0_place_11 -->
<g id="edge11" class="edge">
<title>n3_port_3&#45;&gt;n0_place_11</title>
<path fill="none" stroke="black" d="M2446.77,-1651.27C2529.28,-1663.96 2688.86,-1675.43 2790.22,-1599 2841.31,-1560.48 2859.89,-1483.93 2866.57,-1438.12"/>
<polygon fill="black" stroke="black" points="2870.07,-1438.38 2867.93,-1428 2863.13,-1437.45 2870.07,-1438.38"/>
</g>
<!-- n3_modcall -->
<g id="node39" class="node">
<title>n3_modcall</title>
<polygon fill="white" stroke="black" points="2515.41,-1590 2269.41,-1590 2269.41,-1554 2515.41,-1554 2515.41,-1590"/>
<text text-anchor="middle" x="2392.41" y="-1568.3" font-family="Times,serif" font-size="14.00">singular_template.compute_size</text>
</g>
<!-- n4_condition -->
<g id="node40" class="node">
<title>n4_condition</title>
<polygon fill="white" stroke="black" points="2348.91,-917 2348.91,-953 2435.91,-953 2435.91,-917 2348.91,-917"/>
<text text-anchor="middle" x="2392.41" y="-931.3" font-family="Times,serif" font-size="14.00">compute1</text>
</g>
<!-- n4_port_6 -->
<g id="node47" class="node">
<title>n4_port_6</title>
<polygon fill="white" stroke="black" points="2002.77,-770.67 2392.41,-747.57 2782.04,-770.67 2781.68,-808.04 2003.13,-808.04 2002.77,-770.67"/>
<text text-anchor="middle" x="2392.41" y="-784.8" font-family="Times,serif" font-size="14.00">data</text>
<text text-anchor="middle" x="2392.41" y="-769.8" font-family="Times,serif" font-size="14.00">feynman :: [MI :: string, reducedIBPs :: string, web :: string]</text>
</g>
<!-- n4_port_6&#45;&gt;n0_place_2 -->
<g id="edge16" class="edge">
<title>n4_port_6&#45;&gt;n0_place_2</title>
<path fill="none" stroke="black" d="M2185.12,-759.82C2123.78,-753.35 2056.45,-746.07 1994.59,-739 1944.11,-733.23 1889.48,-726.67 1839,-720.48"/>
<polygon fill="black" stroke="black" points="1839.32,-717 1828.97,-719.25 1838.46,-723.94 1839.32,-717"/>
</g>
<!-- n4_port_7 -->
<g id="node48" class="node">
<title>n4_port_7</title>
<polygon fill="white" stroke="black" points="2333.79,-266.67 2392.41,-243.57 2451.03,-266.67 2450.97,-304.04 2333.84,-304.04 2333.79,-266.67"/>
<text text-anchor="middle" x="2392.41" y="-280.8" font-family="Times,serif" font-size="14.00">slow</text>
<text text-anchor="middle" x="2392.41" y="-265.8" font-family="Times,serif" font-size="14.00">control</text>
</g>
<!-- n4_port_7&#45;&gt;n0_place_9 -->
<g id="edge15" class="edge">
<title>n4_port_7&#45;&gt;n0_place_9</title>
<path fill="none" stroke="black" d="M2444.57,-264.1C2529.97,-245.98 2700.94,-224.89 2790.22,-319 2830.74,-361.7 2802.38,-791.31 2818.22,-848 2823.56,-867.1 2833.13,-886.66 2842.61,-903.16"/>
<polygon fill="black" stroke="black" points="2839.73,-905.17 2847.84,-911.99 2845.76,-901.6 2839.73,-905.17"/>
</g>
<!-- n4_port_8 -->
<g id="node49" class="node">
<title>n4_port_8</title>
<polygon fill="white" stroke="black" points="2326.8,-182.67 2392.41,-159.57 2458.01,-182.67 2457.95,-220.04 2326.86,-220.04 2326.8,-182.67"/>
<text text-anchor="middle" x="2392.41" y="-196.8" font-family="Times,serif" font-size="14.00">totalIBP</text>
<text text-anchor="middle" x="2392.41" y="-181.8" font-family="Times,serif" font-size="14.00">string</text>
</g>
<!-- n4_port_8&#45;&gt;n0_place_3 -->
<g id="edge17" class="edge">
<title>n4_port_8&#45;&gt;n0_place_3</title>
<path fill="none" stroke="black" d="M2458.21,-188.38C2550.28,-181.81 2717.8,-169.87 2808.29,-163.42"/>
<polygon fill="black" stroke="black" points="2808.68,-166.9 2818.4,-162.7 2808.18,-159.92 2808.68,-166.9"/>
</g>
<!-- n4_modcall -->
<g id="node50" class="node">
<title>n4_modcall</title>
<polygon fill="white" stroke="black" points="2502.91,-142 2281.91,-142 2281.91,-106 2502.91,-106 2502.91,-142"/>
<text text-anchor="middle" x="2392.41" y="-120.3" font-family="Times,serif" font-size="14.00">singular_template.compute1</text>
</g>
<!-- n5_condition -->
<g id="node51" class="node">
<title>n5_condition</title>
<polygon fill="white" stroke="black" points="871.03,-1169 871.03,-1205 949.03,-1205 949.03,-1169 871.03,-1169"/>
<text text-anchor="middle" x="910.03" y="-1183.3" font-family="Times,serif" font-size="14.00">compute</text>
</g>
<!-- n5_port_4 -->
<g id="node56" class="node">
<title>n5_port_4</title>
<polygon fill="white" stroke="black" points="813.74,-602.67 910.03,-579.57 1006.32,-602.67 1006.23,-640.04 813.83,-640.04 813.74,-602.67"/>
<text text-anchor="middle" x="910.03" y="-616.8" font-family="Times,serif" font-size="14.00">labeledgraph</text>
<text text-anchor="middle" x="910.03" y="-601.8" font-family="Times,serif" font-size="14.00">string</text>
</g>
<!-- n5_port_4&#45;&gt;n0_place_12 -->
<g id="edge26" class="edge">
<title>n5_port_4&#45;&gt;n0_place_12</title>
<path fill="none" stroke="black" d="M1006.53,-613C1151.12,-613 1423.49,-613 1563.01,-613"/>
<polygon fill="black" stroke="black" points="1563.23,-616.5 1573.23,-613 1563.23,-609.5 1563.23,-616.5"/>
</g>
<!-- n5_port_5 -->
<g id="node57" class="node">
<title>n5_port_5</title>
<polygon fill="white" stroke="black" points="834.7,-770.67 910.03,-747.57 985.36,-770.67 985.29,-808.04 834.77,-808.04 834.7,-770.67"/>
<text text-anchor="middle" x="910.03" y="-784.8" font-family="Times,serif" font-size="14.00">web_copy</text>
<text text-anchor="middle" x="910.03" y="-769.8" font-family="Times,serif" font-size="14.00">string</text>
</g>
<!-- n5_port_5&#45;&gt;n0_place_5 -->
<g id="edge25" class="edge">
<title>n5_port_5&#45;&gt;n0_place_5</title>
<path fill="none" stroke="black" d="M985.49,-781.73C1066.24,-784.16 1198.28,-792.95 1307.85,-823 1419.64,-853.66 1540.79,-917.15 1604.72,-953.29"/>
<polygon fill="black" stroke="black" points="1603.31,-956.52 1613.73,-958.42 1606.77,-950.43 1603.31,-956.52"/>
</g>
<!-- n5_port_6 -->
<g id="node58" class="node">
<title>n5_port_6</title>
<polygon fill="white" stroke="black" points="520.39,-686.67 910.03,-663.57 1299.67,-686.67 1299.3,-724.04 520.76,-724.04 520.39,-686.67"/>
<text text-anchor="middle" x="910.03" y="-700.8" font-family="Times,serif" font-size="14.00">data</text>
<text text-anchor="middle" x="910.03" y="-685.8" font-family="Times,serif" font-size="14.00">feynman :: [MI :: string, reducedIBPs :: string, web :: string]</text>
</g>
<!-- n5_port_6&#45;&gt;n0_place_2 -->
<g id="edge24" class="edge">
<title>n5_port_6&#45;&gt;n0_place_2</title>
<path fill="none" stroke="black" d="M1299.84,-697C1308.47,-697 1317.08,-697 1325.66,-697"/>
<polygon fill="black" stroke="black" points="1325.72,-700.5 1335.72,-697 1325.72,-693.5 1325.72,-700.5"/>
</g>
<!-- n5_modcall -->
<g id="node59" class="node">
<title>n5_modcall</title>
<polygon fill="white" stroke="black" points="1016.03,-562 804.03,-562 804.03,-526 1016.03,-526 1016.03,-562"/>
<text text-anchor="middle" x="910.03" y="-540.3" font-family="Times,serif" font-size="14.00">singular_template.compute</text>
</g>
</g>
</svg>
