<?xml version="1.0" encoding="UTF-8" standalone="no"?>
<!DOCTYPE svg PUBLIC "-//W3C//DTD SVG 1.1//EN"
 "http://www.w3.org/Graphics/SVG/1.1/DTD/svg11.dtd">
<!-- Generated by graphviz version 2.43.0 (0)
 -->
<!-- Title: template Pages: 1 -->
<svg width="1362pt" height="850pt"
 viewBox="0.00 0.00 1361.91 850.00" xmlns="http://www.w3.org/2000/svg" xmlns:xlink="http://www.w3.org/1999/xlink">
<g id="graph0" class="graph" transform="scale(1 1) rotate(0) translate(4 846)">
<title>template</title>
<polygon fill="white" stroke="transparent" points="-4,4 -4,-846 1357.91,-846 1357.91,4 -4,4"/>
<g id="clust1" class="cluster">
<title>cluster_0</title>
<polygon fill="dimgray" stroke="black" points="8,-8 8,-834 1345.91,-834 1345.91,-8 8,-8"/>
</g>
<g id="clust2" class="cluster">
<title>cluster_net_0</title>
<polygon fill="white" stroke="black" points="248.52,-90 248.52,-826 1337.91,-826 1337.91,-90 248.52,-90"/>
</g>
<g id="clust3" class="cluster">
<title>cluster_1</title>
<polygon fill="yellow" stroke="black" points="951.78,-110 951.78,-638 1188.78,-638 1188.78,-110 951.78,-110"/>
</g>
<g id="clust4" class="cluster">
<title>cluster_2</title>
<polygon fill="yellow" stroke="black" points="512.21,-110 512.21,-806 740.21,-806 740.21,-110 512.21,-110"/>
</g>
<!-- n0_condition -->
<g id="node1" class="node">
<title>n0_condition</title>
<polygon fill="white" stroke="black" points="78.26,-782 78.26,-818 158.26,-818 158.26,-782 78.26,-782"/>
<text text-anchor="middle" x="118.26" y="-796.3" font-family="Times,serif" font-size="14.00">template</text>
</g>
<!-- n0_port_0 -->
<g id="node2" class="node">
<title>n0_port_0</title>
<polygon fill="white" stroke="black" points="220.29,-733.33 118.26,-756.43 16.24,-733.33 16.33,-695.96 220.19,-695.96 220.29,-733.33"/>
<text text-anchor="middle" x="118.26" y="-726.8" font-family="Times,serif" font-size="14.00">base_filename</text>
<text text-anchor="middle" x="118.26" y="-711.8" font-family="Times,serif" font-size="14.00">string</text>
</g>
<!-- n0_place_1 -->
<g id="node7" class="node">
<title>n0_place_1</title>
<ellipse fill="white" stroke="black" cx="370.37" cy="-723" rx="113.69" ry="26.74"/>
<text text-anchor="middle" x="370.37" y="-726.8" font-family="Times,serif" font-size="14.00">place_base_filename</text>
<text text-anchor="middle" x="370.37" y="-711.8" font-family="Times,serif" font-size="14.00">string</text>
</g>
<!-- n0_port_0&#45;&gt;n0_place_1 -->
<g id="edge13" class="edge">
<title>n0_port_0&#45;&gt;n0_place_1</title>
<path fill="none" stroke="black" stroke-dasharray="1,5" d="M220.27,-723C232.2,-723 244.43,-723 256.51,-723"/>
</g>
<!-- n0_port_1 -->
<g id="node3" class="node">
<title>n0_port_1</title>
<polygon fill="white" stroke="black" points="214.55,-465.33 118.26,-488.43 21.97,-465.33 22.06,-427.96 214.46,-427.96 214.55,-465.33"/>
<text text-anchor="middle" x="118.26" y="-458.8" font-family="Times,serif" font-size="14.00">library_name</text>
<text text-anchor="middle" x="118.26" y="-443.8" font-family="Times,serif" font-size="14.00">string</text>
</g>
<!-- n0_place_3 -->
<g id="node9" class="node">
<title>n0_place_3</title>
<ellipse fill="white" stroke="black" cx="370.37" cy="-455" rx="109.7" ry="26.74"/>
<text text-anchor="middle" x="370.37" y="-458.8" font-family="Times,serif" font-size="14.00">place_library_name</text>
<text text-anchor="middle" x="370.37" y="-443.8" font-family="Times,serif" font-size="14.00">string</text>
</g>
<!-- n0_port_1&#45;&gt;n0_place_3 -->
<g id="edge14" class="edge">
<title>n0_port_1&#45;&gt;n0_place_3</title>
<path fill="none" stroke="black" stroke-dasharray="1,5" d="M214.53,-455C229.58,-455 245.23,-455 260.56,-455"/>
</g>
<!-- n0_port_2 -->
<g id="node4" class="node">
<title>n0_port_2</title>
<polygon fill="white" stroke="black" points="169.9,-635.33 118.26,-658.43 66.63,-635.33 66.67,-597.96 169.85,-597.96 169.9,-635.33"/>
<text text-anchor="middle" x="118.26" y="-628.8" font-family="Times,serif" font-size="14.00">input</text>
<text text-anchor="middle" x="118.26" y="-613.8" font-family="Times,serif" font-size="14.00">string</text>
</g>
<!-- n0_place_0 -->
<g id="node6" class="node">
<title>n0_place_0</title>
<ellipse fill="white" stroke="black" cx="370.37" cy="-625" rx="69.09" ry="26.74"/>
<text text-anchor="middle" x="370.37" y="-628.8" font-family="Times,serif" font-size="14.00">place_input</text>
<text text-anchor="middle" x="370.37" y="-613.8" font-family="Times,serif" font-size="14.00">string</text>
</g>
<!-- n0_port_2&#45;&gt;n0_place_0 -->
<g id="edge15" class="edge">
<title>n0_port_2&#45;&gt;n0_place_0</title>
<path fill="none" stroke="black" stroke-dasharray="1,5" d="M169.87,-625C207.56,-625 259.42,-625 300.82,-625"/>
</g>
<!-- n0_port_3 -->
<g id="node5" class="node">
<title>n0_port_3</title>
<polygon fill="white" stroke="black" points="1014.4,-38.67 1070.28,-15.57 1126.15,-38.67 1126.1,-76.04 1014.45,-76.04 1014.4,-38.67"/>
<text text-anchor="middle" x="1070.28" y="-52.8" font-family="Times,serif" font-size="14.00">output</text>
<text text-anchor="middle" x="1070.28" y="-37.8" font-family="Times,serif" font-size="14.00">string</text>
</g>
<!-- n0_place_8 -->
<g id="node14" class="node">
<title>n0_place_8</title>
<ellipse fill="white" stroke="black" cx="1273.34" cy="-165" rx="56.64" ry="26.74"/>
<text text-anchor="middle" x="1273.34" y="-168.8" font-family="Times,serif" font-size="14.00">web_size</text>
<text text-anchor="middle" x="1273.34" y="-153.8" font-family="Times,serif" font-size="14.00">string</text>
</g>
<!-- n0_port_3&#45;&gt;n0_place_8 -->
<g id="edge16" class="edge">
<title>n0_port_3&#45;&gt;n0_place_8</title>
<path fill="none" stroke="black" stroke-dasharray="1,5" d="M1126.35,-73.44C1146.38,-82.92 1168.96,-94.3 1188.78,-106 1207.28,-116.92 1226.96,-130.7 1242.57,-142.2"/>
</g>
<!-- n2_port_3 -->
<g id="node25" class="node">
<title>n2_port_3</title>
<polygon fill="white" stroke="black" points="677.85,-635.33 626.21,-658.43 574.58,-635.33 574.62,-597.96 677.8,-597.96 677.85,-635.33"/>
<text text-anchor="middle" x="626.21" y="-628.8" font-family="Times,serif" font-size="14.00">input</text>
<text text-anchor="middle" x="626.21" y="-613.8" font-family="Times,serif" font-size="14.00">string</text>
</g>
<!-- n0_place_0&#45;&gt;n2_port_3 -->
<g id="edge10" class="edge">
<title>n0_place_0&#45;&gt;n2_port_3</title>
<path fill="none" stroke="black" d="M439.73,-625C478.52,-625 526.66,-625 564.17,-625"/>
<polygon fill="black" stroke="black" points="564.45,-628.5 574.45,-625 564.45,-621.5 564.45,-628.5"/>
</g>
<!-- n1_port_1 -->
<g id="node17" class="node">
<title>n1_port_1</title>
<polygon fill="white" stroke="black" points="1172.3,-551.33 1070.28,-574.43 968.25,-551.33 968.35,-513.96 1172.2,-513.96 1172.3,-551.33"/>
<text text-anchor="middle" x="1070.28" y="-544.8" font-family="Times,serif" font-size="14.00">base_filename</text>
<text text-anchor="middle" x="1070.28" y="-529.8" font-family="Times,serif" font-size="14.00">string</text>
</g>
<!-- n0_place_1&#45;&gt;n1_port_1 -->
<g id="edge4" class="edge">
<title>n0_place_1&#45;&gt;n1_port_1</title>
<path fill="none" stroke="black" stroke-dasharray="5,2" d="M401.94,-748.92C428.96,-770.01 470.46,-798.15 512.21,-810 609.69,-837.68 647.24,-850.32 740.21,-810 866.44,-755.26 837.04,-659.93 951.78,-584 964.41,-575.64 978.87,-568.65 993.24,-562.89"/>
<polygon fill="black" stroke="black" points="994.56,-566.13 1002.65,-559.29 992.05,-559.6 994.56,-566.13"/>
</g>
<!-- n2_port_2 -->
<g id="node24" class="node">
<title>n2_port_2</title>
<polygon fill="white" stroke="black" points="728.24,-719.33 626.21,-742.43 524.19,-719.33 524.28,-681.96 728.14,-681.96 728.24,-719.33"/>
<text text-anchor="middle" x="626.21" y="-712.8" font-family="Times,serif" font-size="14.00">base_filename</text>
<text text-anchor="middle" x="626.21" y="-697.8" font-family="Times,serif" font-size="14.00">string</text>
</g>
<!-- n0_place_1&#45;&gt;n2_port_2 -->
<g id="edge11" class="edge">
<title>n0_place_1&#45;&gt;n2_port_2</title>
<path fill="none" stroke="black" stroke-dasharray="5,2" d="M481.6,-716.92C492.25,-716.33 503.05,-715.74 513.71,-715.15"/>
<polygon fill="black" stroke="black" points="514.08,-718.63 523.87,-714.59 513.7,-711.65 514.08,-718.63"/>
</g>
<!-- n0_place_2 -->
<g id="node8" class="node">
<title>n0_place_2</title>
<ellipse fill="white" stroke="black" cx="845.99" cy="-205" rx="75.82" ry="26.74"/>
<text text-anchor="middle" x="845.99" y="-208.8" font-family="Times,serif" font-size="14.00">reducedIBPs</text>
<text text-anchor="middle" x="845.99" y="-193.8" font-family="Times,serif" font-size="14.00">string</text>
</g>
<!-- n1_port_0 -->
<g id="node16" class="node">
<title>n1_port_0</title>
<polygon fill="white" stroke="black" points="1166.56,-299.33 1070.28,-322.43 973.99,-299.33 974.08,-261.96 1166.47,-261.96 1166.56,-299.33"/>
<text text-anchor="middle" x="1070.28" y="-292.8" font-family="Times,serif" font-size="14.00">library_name</text>
<text text-anchor="middle" x="1070.28" y="-277.8" font-family="Times,serif" font-size="14.00">string</text>
</g>
<!-- n0_place_3&#45;&gt;n1_port_0 -->
<g id="edge5" class="edge">
<title>n0_place_3&#45;&gt;n1_port_0</title>
<path fill="none" stroke="black" stroke-dasharray="5,2" d="M404.54,-429.31C430.85,-406.92 466.11,-371.99 484.21,-333 505.61,-286.9 474.14,-139.67 512.21,-106 650.84,16.58 792.01,-39.07 923.78,-169 950,-194.86 925.71,-220.97 951.78,-247 955.95,-251.17 960.56,-254.92 965.48,-258.31"/>
<polygon fill="black" stroke="black" points="963.68,-261.31 974.01,-263.66 967.4,-255.38 963.68,-261.31"/>
</g>
<!-- n2_port_0 -->
<g id="node23" class="node">
<title>n2_port_0</title>
<polygon fill="white" stroke="black" points="722.5,-551.33 626.21,-574.43 529.92,-551.33 530.01,-513.96 722.41,-513.96 722.5,-551.33"/>
<text text-anchor="middle" x="626.21" y="-544.8" font-family="Times,serif" font-size="14.00">library_name</text>
<text text-anchor="middle" x="626.21" y="-529.8" font-family="Times,serif" font-size="14.00">string</text>
</g>
<!-- n0_place_3&#45;&gt;n2_port_0 -->
<g id="edge12" class="edge">
<title>n0_place_3&#45;&gt;n2_port_0</title>
<path fill="none" stroke="black" stroke-dasharray="5,2" d="M435.42,-476.7C465.77,-486.98 502.53,-499.44 535.58,-510.63"/>
<polygon fill="black" stroke="black" points="534.66,-514.02 545.25,-513.91 536.91,-507.39 534.66,-514.02"/>
</g>
<!-- n0_place_4 -->
<g id="node10" class="node">
<title>n0_place_4</title>
<ellipse fill="white" stroke="black" cx="370.37" cy="-297" rx="33.47" ry="26.74"/>
<text text-anchor="middle" x="370.37" y="-300.8" font-family="Times,serif" font-size="14.00">it</text>
<text text-anchor="middle" x="370.37" y="-285.8" font-family="Times,serif" font-size="14.00">long</text>
</g>
<!-- n0_place_5 -->
<g id="node11" class="node">
<title>n0_place_5</title>
<ellipse fill="white" stroke="black" cx="845.99" cy="-373" rx="77.56" ry="26.74"/>
<text text-anchor="middle" x="845.99" y="-376.8" font-family="Times,serif" font-size="14.00">labeledgraph</text>
<text text-anchor="middle" x="845.99" y="-361.8" font-family="Times,serif" font-size="14.00">string</text>
</g>
<!-- n1_port_3 -->
<g id="node19" class="node">
<title>n1_port_3</title>
<polygon fill="white" stroke="black" points="1166.56,-383.33 1070.28,-406.43 973.99,-383.33 974.08,-345.96 1166.47,-345.96 1166.56,-383.33"/>
<text text-anchor="middle" x="1070.28" y="-376.8" font-family="Times,serif" font-size="14.00">labeledgraph</text>
<text text-anchor="middle" x="1070.28" y="-361.8" font-family="Times,serif" font-size="14.00">string</text>
</g>
<!-- n0_place_5&#45;&gt;n1_port_3 -->
<g id="edge2" class="edge">
<title>n0_place_5&#45;&gt;n1_port_3</title>
<path fill="none" stroke="black" d="M923.8,-373C936.7,-373 950.29,-373 963.76,-373"/>
<polygon fill="black" stroke="black" points="964.03,-376.5 974.03,-373 964.03,-369.5 964.03,-376.5"/>
</g>
<!-- n0_place_6 -->
<g id="node12" class="node">
<title>n0_place_6</title>
<ellipse fill="white" stroke="black" cx="845.99" cy="-457" rx="41.94" ry="26.74"/>
<text text-anchor="middle" x="845.99" y="-460.8" font-family="Times,serif" font-size="14.00">web</text>
<text text-anchor="middle" x="845.99" y="-445.8" font-family="Times,serif" font-size="14.00">string</text>
</g>
<!-- n1_port_2 -->
<g id="node18" class="node">
<title>n1_port_2</title>
<polygon fill="white" stroke="black" points="1121.91,-467.33 1070.28,-490.43 1018.64,-467.33 1018.69,-429.96 1121.86,-429.96 1121.91,-467.33"/>
<text text-anchor="middle" x="1070.28" y="-460.8" font-family="Times,serif" font-size="14.00">web</text>
<text text-anchor="middle" x="1070.28" y="-445.8" font-family="Times,serif" font-size="14.00">string</text>
</g>
<!-- n0_place_6&#45;&gt;n1_port_2 -->
<g id="edge3" class="edge">
<title>n0_place_6&#45;&gt;n1_port_2</title>
<path fill="none" stroke="black" d="M887.76,-457C921.59,-457 970.19,-457 1008.59,-457"/>
<polygon fill="black" stroke="black" points="1008.62,-460.5 1018.62,-457 1008.62,-453.5 1008.62,-460.5"/>
</g>
<!-- n0_place_7 -->
<g id="node13" class="node">
<title>n0_place_7</title>
<ellipse fill="white" stroke="black" cx="845.99" cy="-289" rx="41.94" ry="26.74"/>
<text text-anchor="middle" x="845.99" y="-292.8" font-family="Times,serif" font-size="14.00">MI</text>
<text text-anchor="middle" x="845.99" y="-277.8" font-family="Times,serif" font-size="14.00">string</text>
</g>
<!-- n1_condition -->
<g id="node15" class="node">
<title>n1_condition</title>
<polygon fill="white" stroke="black" points="1026.78,-593 1026.78,-629 1113.78,-629 1113.78,-593 1026.78,-593"/>
<text text-anchor="middle" x="1070.28" y="-607.3" font-family="Times,serif" font-size="14.00">compute1</text>
</g>
<!-- n1_port_4 -->
<g id="node20" class="node">
<title>n1_port_4</title>
<polygon fill="white" stroke="black" points="1000.43,-194.67 1070.28,-171.57 1140.12,-194.67 1140.06,-232.04 1000.5,-232.04 1000.43,-194.67"/>
<text text-anchor="middle" x="1070.28" y="-208.8" font-family="Times,serif" font-size="14.00">web_size</text>
<text text-anchor="middle" x="1070.28" y="-193.8" font-family="Times,serif" font-size="14.00">string</text>
</g>
<!-- n1_port_4&#45;&gt;n0_place_8 -->
<g id="edge1" class="edge">
<title>n1_port_4&#45;&gt;n0_place_8</title>
<path fill="none" stroke="black" d="M1133.79,-192.56C1158.41,-187.66 1186.6,-182.06 1211.1,-177.18"/>
<polygon fill="black" stroke="black" points="1211.87,-180.6 1220.99,-175.22 1210.5,-173.73 1211.87,-180.6"/>
</g>
<!-- n1_modcall -->
<g id="node21" class="node">
<title>n1_modcall</title>
<polygon fill="white" stroke="black" points="1180.78,-154 959.78,-154 959.78,-118 1180.78,-118 1180.78,-154"/>
<text text-anchor="middle" x="1070.28" y="-132.3" font-family="Times,serif" font-size="14.00">singular_template.compute1</text>
</g>
<!-- n2_condition -->
<g id="node22" class="node">
<title>n2_condition</title>
<polygon fill="white" stroke="black" points="587.21,-761 587.21,-797 665.21,-797 665.21,-761 587.21,-761"/>
<text text-anchor="middle" x="626.21" y="-775.3" font-family="Times,serif" font-size="14.00">compute</text>
</g>
<!-- n2_port_1 -->
<g id="node26" class="node">
<title>n2_port_1</title>
<polygon fill="white" stroke="black" points="532.67,-194.67 626.21,-171.57 719.75,-194.67 719.67,-232.04 532.76,-232.04 532.67,-194.67"/>
<text text-anchor="middle" x="626.21" y="-208.8" font-family="Times,serif" font-size="14.00">reducedIBPs</text>
<text text-anchor="middle" x="626.21" y="-193.8" font-family="Times,serif" font-size="14.00">string</text>
</g>
<!-- n2_port_1&#45;&gt;n0_place_2 -->
<g id="edge7" class="edge">
<title>n2_port_1&#45;&gt;n0_place_2</title>
<path fill="none" stroke="black" d="M719.89,-205C733.13,-205 746.71,-205 759.8,-205"/>
<polygon fill="black" stroke="black" points="760.18,-208.5 770.18,-205 760.18,-201.5 760.18,-208.5"/>
</g>
<!-- n2_port_4 -->
<g id="node27" class="node">
<title>n2_port_4</title>
<polygon fill="white" stroke="black" points="529.92,-362.67 626.21,-339.57 722.5,-362.67 722.41,-400.04 530.01,-400.04 529.92,-362.67"/>
<text text-anchor="middle" x="626.21" y="-376.8" font-family="Times,serif" font-size="14.00">labeledgraph</text>
<text text-anchor="middle" x="626.21" y="-361.8" font-family="Times,serif" font-size="14.00">string</text>
</g>
<!-- n2_port_4&#45;&gt;n0_place_5 -->
<g id="edge8" class="edge">
<title>n2_port_4&#45;&gt;n0_place_5</title>
<path fill="none" stroke="black" d="M722.42,-373C734.19,-373 746.18,-373 757.83,-373"/>
<polygon fill="black" stroke="black" points="757.96,-376.5 767.96,-373 757.96,-369.5 757.96,-376.5"/>
</g>
<!-- n2_port_5 -->
<g id="node28" class="node">
<title>n2_port_5</title>
<polygon fill="white" stroke="black" points="574.58,-446.67 626.21,-423.57 677.85,-446.67 677.8,-484.04 574.62,-484.04 574.58,-446.67"/>
<text text-anchor="middle" x="626.21" y="-460.8" font-family="Times,serif" font-size="14.00">web</text>
<text text-anchor="middle" x="626.21" y="-445.8" font-family="Times,serif" font-size="14.00">string</text>
</g>
<!-- n2_port_5&#45;&gt;n0_place_6 -->
<g id="edge9" class="edge">
<title>n2_port_5&#45;&gt;n0_place_6</title>
<path fill="none" stroke="black" d="M678,-457C712.74,-457 758.64,-457 793.53,-457"/>
<polygon fill="black" stroke="black" points="793.97,-460.5 803.97,-457 793.97,-453.5 793.97,-460.5"/>
</g>
<!-- n2_port_6 -->
<g id="node29" class="node">
<title>n2_port_6</title>
<polygon fill="white" stroke="black" points="574.58,-278.67 626.21,-255.57 677.85,-278.67 677.8,-316.04 574.62,-316.04 574.58,-278.67"/>
<text text-anchor="middle" x="626.21" y="-292.8" font-family="Times,serif" font-size="14.00">MI</text>
<text text-anchor="middle" x="626.21" y="-277.8" font-family="Times,serif" font-size="14.00">string</text>
</g>
<!-- n2_port_6&#45;&gt;n0_place_7 -->
<g id="edge6" class="edge">
<title>n2_port_6&#45;&gt;n0_place_7</title>
<path fill="none" stroke="black" d="M678,-289C712.74,-289 758.64,-289 793.53,-289"/>
<polygon fill="black" stroke="black" points="793.97,-292.5 803.97,-289 793.97,-285.5 793.97,-292.5"/>
</g>
<!-- n2_modcall -->
<g id="node30" class="node">
<title>n2_modcall</title>
<polygon fill="white" stroke="black" points="732.21,-154 520.21,-154 520.21,-118 732.21,-118 732.21,-154"/>
<text text-anchor="middle" x="626.21" y="-132.3" font-family="Times,serif" font-size="14.00">singular_template.compute</text>
</g>
</g>
</svg>
