<?xml version="1.0" encoding="UTF-8" standalone="no"?>
<!DOCTYPE svg PUBLIC "-//W3C//DTD SVG 1.1//EN"
 "http://www.w3.org/Graphics/SVG/1.1/DTD/svg11.dtd">
<!-- Generated by graphviz version 2.43.0 (0)
 -->
<!-- Title: template Pages: 1 -->
<svg width="886pt" height="584pt"
 viewBox="0.00 0.00 886.07 584.00" xmlns="http://www.w3.org/2000/svg" xmlns:xlink="http://www.w3.org/1999/xlink">
<g id="graph0" class="graph" transform="scale(1 1) rotate(0) translate(4 580)">
<title>template</title>
<polygon fill="white" stroke="transparent" points="-4,4 -4,-580 882.07,-580 882.07,4 -4,4"/>
<g id="clust1" class="cluster">
<title>cluster_0</title>
<polygon fill="dimgray" stroke="black" points="8,-8 8,-568 870.07,-568 870.07,-8 8,-8"/>
</g>
<g id="clust2" class="cluster">
<title>cluster_net_0</title>
<polygon fill="white" stroke="black" points="248.52,-16 248.52,-560 862.07,-560 862.07,-16 248.52,-16"/>
</g>
<g id="clust3" class="cluster">
<title>cluster_1</title>
<polygon fill="yellow" stroke="black" points="449.99,-24 449.99,-552 670.51,-552 670.51,-24 449.99,-24"/>
</g>
<!-- n0_condition -->
<g id="node1" class="node">
<title>n0_condition</title>
<polygon fill="white" stroke="black" points="78.26,-515 78.26,-551 158.26,-551 158.26,-515 78.26,-515"/>
<text text-anchor="middle" x="118.26" y="-529.3" font-family="Times,serif" font-size="14.00">template</text>
</g>
<!-- n0_port_0 -->
<g id="node2" class="node">
<title>n0_port_0</title>
<polygon fill="white" stroke="black" points="220.29,-465.33 118.26,-488.43 16.24,-465.33 16.33,-427.96 220.19,-427.96 220.29,-465.33"/>
<text text-anchor="middle" x="118.26" y="-458.8" font-family="Times,serif" font-size="14.00">base_filename</text>
<text text-anchor="middle" x="118.26" y="-443.8" font-family="Times,serif" font-size="14.00">string</text>
</g>
<!-- n0_place_0 -->
<g id="node6" class="node">
<title>n0_place_0</title>
<ellipse fill="white" stroke="black" cx="339.25" cy="-455" rx="82.96" ry="26.74"/>
<text text-anchor="middle" x="339.25" y="-458.8" font-family="Times,serif" font-size="14.00">base_filename</text>
<text text-anchor="middle" x="339.25" y="-443.8" font-family="Times,serif" font-size="14.00">string</text>
</g>
<!-- n0_port_0&#45;&gt;n0_place_0 -->
<g id="edge6" class="edge">
<title>n0_port_0&#45;&gt;n0_place_0</title>
<path fill="none" stroke="black" stroke-dasharray="1,5" d="M220.42,-455C232.42,-455 244.54,-455 256.22,-455"/>
</g>
<!-- n0_port_1 -->
<g id="node3" class="node">
<title>n0_port_1</title>
<polygon fill="white" stroke="black" points="214.55,-381.33 118.26,-404.43 21.97,-381.33 22.06,-343.96 214.46,-343.96 214.55,-381.33"/>
<text text-anchor="middle" x="118.26" y="-374.8" font-family="Times,serif" font-size="14.00">library_name</text>
<text text-anchor="middle" x="118.26" y="-359.8" font-family="Times,serif" font-size="14.00">string</text>
</g>
<!-- n0_place_1 -->
<g id="node7" class="node">
<title>n0_place_1</title>
<ellipse fill="white" stroke="black" cx="339.25" cy="-371" rx="77.56" ry="26.74"/>
<text text-anchor="middle" x="339.25" y="-374.8" font-family="Times,serif" font-size="14.00">library_name</text>
<text text-anchor="middle" x="339.25" y="-359.8" font-family="Times,serif" font-size="14.00">string</text>
</g>
<!-- n0_port_1&#45;&gt;n0_place_1 -->
<g id="edge7" class="edge">
<title>n0_port_1&#45;&gt;n0_place_1</title>
<path fill="none" stroke="black" stroke-dasharray="1,5" d="M214.68,-371C230.24,-371 246.18,-371 261.23,-371"/>
</g>
<!-- n0_port_2 -->
<g id="node4" class="node">
<title>n0_port_2</title>
<polygon fill="white" stroke="black" points="169.9,-297.33 118.26,-320.43 66.63,-297.33 66.67,-259.96 169.85,-259.96 169.9,-297.33"/>
<text text-anchor="middle" x="118.26" y="-290.8" font-family="Times,serif" font-size="14.00">input</text>
<text text-anchor="middle" x="118.26" y="-275.8" font-family="Times,serif" font-size="14.00">string</text>
</g>
<!-- n0_place_2 -->
<g id="node8" class="node">
<title>n0_place_2</title>
<ellipse fill="white" stroke="black" cx="339.25" cy="-287" rx="41.94" ry="26.74"/>
<text text-anchor="middle" x="339.25" y="-290.8" font-family="Times,serif" font-size="14.00">input</text>
<text text-anchor="middle" x="339.25" y="-275.8" font-family="Times,serif" font-size="14.00">string</text>
</g>
<!-- n0_port_2&#45;&gt;n0_place_2 -->
<g id="edge8" class="edge">
<title>n0_port_2&#45;&gt;n0_place_2</title>
<path fill="none" stroke="black" stroke-dasharray="1,5" d="M170.05,-287C208.72,-287 261.25,-287 297.26,-287"/>
</g>
<!-- n0_port_3 -->
<g id="node5" class="node">
<title>n0_port_3</title>
<polygon fill="white" stroke="black" points="62.39,-75.67 118.26,-52.57 174.14,-75.67 174.09,-113.04 62.44,-113.04 62.39,-75.67"/>
<text text-anchor="middle" x="118.26" y="-89.8" font-family="Times,serif" font-size="14.00">output</text>
<text text-anchor="middle" x="118.26" y="-74.8" font-family="Times,serif" font-size="14.00">string</text>
</g>
<!-- n0_place_5 -->
<g id="node11" class="node">
<title>n0_place_5</title>
<ellipse fill="white" stroke="black" cx="339.25" cy="-86" rx="45.01" ry="26.74"/>
<text text-anchor="middle" x="339.25" y="-89.8" font-family="Times,serif" font-size="14.00">output</text>
<text text-anchor="middle" x="339.25" y="-74.8" font-family="Times,serif" font-size="14.00">string</text>
</g>
<!-- n0_port_3&#45;&gt;n0_place_5 -->
<g id="edge9" class="edge">
<title>n0_port_3&#45;&gt;n0_place_5</title>
<path fill="none" stroke="black" stroke-dasharray="1,5" d="M174.24,-86C211.24,-86 259.38,-86 293.92,-86"/>
</g>
<!-- n1_port_2 -->
<g id="node14" class="node">
<title>n1_port_2</title>
<polygon fill="white" stroke="black" points="662.27,-465.33 560.25,-488.43 458.22,-465.33 458.32,-427.96 662.18,-427.96 662.27,-465.33"/>
<text text-anchor="middle" x="560.25" y="-458.8" font-family="Times,serif" font-size="14.00">base_filename</text>
<text text-anchor="middle" x="560.25" y="-443.8" font-family="Times,serif" font-size="14.00">string</text>
</g>
<!-- n0_place_0&#45;&gt;n1_port_2 -->
<g id="edge3" class="edge">
<title>n0_place_0&#45;&gt;n1_port_2</title>
<path fill="none" stroke="black" stroke-dasharray="5,2" d="M422.11,-455C430.58,-455 439.29,-455 448.01,-455"/>
<polygon fill="black" stroke="black" points="448.24,-458.5 458.24,-455 448.24,-451.5 448.24,-458.5"/>
</g>
<!-- n1_port_1 -->
<g id="node13" class="node">
<title>n1_port_1</title>
<polygon fill="white" stroke="black" points="656.54,-381.33 560.25,-404.43 463.96,-381.33 464.05,-343.96 656.45,-343.96 656.54,-381.33"/>
<text text-anchor="middle" x="560.25" y="-374.8" font-family="Times,serif" font-size="14.00">library_name</text>
<text text-anchor="middle" x="560.25" y="-359.8" font-family="Times,serif" font-size="14.00">string</text>
</g>
<!-- n0_place_1&#45;&gt;n1_port_1 -->
<g id="edge4" class="edge">
<title>n0_place_1&#45;&gt;n1_port_1</title>
<path fill="none" stroke="black" stroke-dasharray="5,2" d="M417.16,-371C429,-371 441.4,-371 453.74,-371"/>
<polygon fill="black" stroke="black" points="454.07,-374.5 464.07,-371 454.07,-367.5 454.07,-374.5"/>
</g>
<!-- n1_port_3 -->
<g id="node15" class="node">
<title>n1_port_3</title>
<polygon fill="white" stroke="black" points="611.88,-297.33 560.25,-320.43 508.61,-297.33 508.66,-259.96 611.84,-259.96 611.88,-297.33"/>
<text text-anchor="middle" x="560.25" y="-290.8" font-family="Times,serif" font-size="14.00">input</text>
<text text-anchor="middle" x="560.25" y="-275.8" font-family="Times,serif" font-size="14.00">string</text>
</g>
<!-- n0_place_2&#45;&gt;n1_port_3 -->
<g id="edge2" class="edge">
<title>n0_place_2&#45;&gt;n1_port_3</title>
<path fill="none" stroke="black" stroke-dasharray="5,2" d="M381.19,-287C414.12,-287 460.89,-287 498.24,-287"/>
<polygon fill="black" stroke="black" points="498.5,-290.5 508.5,-287 498.5,-283.5 498.5,-290.5"/>
</g>
<!-- n0_place_3 -->
<g id="node9" class="node">
<title>n0_place_3</title>
<ellipse fill="white" stroke="black" cx="776.29" cy="-119" rx="77.56" ry="26.74"/>
<text text-anchor="middle" x="776.29" y="-122.8" font-family="Times,serif" font-size="14.00">labeledgraph</text>
<text text-anchor="middle" x="776.29" y="-107.8" font-family="Times,serif" font-size="14.00">string</text>
</g>
<!-- n0_place_4 -->
<g id="node10" class="node">
<title>n0_place_4</title>
<ellipse fill="white" stroke="black" cx="339.25" cy="-203" rx="65.11" ry="37.45"/>
<text text-anchor="middle" x="339.25" y="-214.3" font-family="Times,serif" font-size="14.00">control_11</text>
<text text-anchor="middle" x="339.25" y="-199.3" font-family="Times,serif" font-size="14.00">control</text>
<text text-anchor="middle" x="339.25" y="-184.3" font-family="Times,serif" font-size="14.00">[]</text>
</g>
<!-- n1_port_4 -->
<g id="node16" class="node">
<title>n1_port_4</title>
<polygon fill="white" stroke="black" points="640.57,-213.33 560.25,-236.43 479.93,-213.33 480,-175.96 640.5,-175.96 640.57,-213.33"/>
<text text-anchor="middle" x="560.25" y="-206.8" font-family="Times,serif" font-size="14.00">control_11</text>
<text text-anchor="middle" x="560.25" y="-191.8" font-family="Times,serif" font-size="14.00">control</text>
</g>
<!-- n0_place_4&#45;&gt;n1_port_4 -->
<g id="edge5" class="edge">
<title>n0_place_4&#45;&gt;n1_port_4</title>
<path fill="none" stroke="black" d="M404.48,-203C424.85,-203 447.77,-203 469.59,-203"/>
<polygon fill="black" stroke="black" points="469.86,-206.5 479.86,-203 469.86,-199.5 469.86,-206.5"/>
</g>
<!-- n1_condition -->
<g id="node12" class="node">
<title>n1_condition</title>
<polygon fill="white" stroke="black" points="533.25,-507 533.25,-543 587.25,-543 587.25,-507 533.25,-507"/>
<text text-anchor="middle" x="560.25" y="-521.3" font-family="Times,serif" font-size="14.00">T_11</text>
</g>
<!-- n1_port_0 -->
<g id="node17" class="node">
<title>n1_port_0</title>
<polygon fill="white" stroke="black" points="463.96,-108.67 560.25,-85.57 656.54,-108.67 656.45,-146.04 464.05,-146.04 463.96,-108.67"/>
<text text-anchor="middle" x="560.25" y="-122.8" font-family="Times,serif" font-size="14.00">labeledgraph</text>
<text text-anchor="middle" x="560.25" y="-107.8" font-family="Times,serif" font-size="14.00">string</text>
</g>
<!-- n1_port_0&#45;&gt;n0_place_3 -->
<g id="edge1" class="edge">
<title>n1_port_0&#45;&gt;n0_place_3</title>
<path fill="none" stroke="black" d="M656.69,-119C667.14,-119 677.74,-119 688.09,-119"/>
<polygon fill="black" stroke="black" points="688.33,-122.5 698.33,-119 688.33,-115.5 688.33,-122.5"/>
</g>
<!-- n1_modcall -->
<g id="node18" class="node">
<title>n1_modcall</title>
<polygon fill="white" stroke="black" points="658.25,-68 462.25,-68 462.25,-32 658.25,-32 658.25,-68"/>
<text text-anchor="middle" x="560.25" y="-46.3" font-family="Times,serif" font-size="14.00">singular_template.f_T_11</text>
</g>
</g>
</svg>
