<?xml version="1.0" encoding="UTF-8" standalone="no"?>
<!DOCTYPE svg PUBLIC "-//W3C//DTD SVG 1.1//EN"
 "http://www.w3.org/Graphics/SVG/1.1/DTD/svg11.dtd">
<!-- Generated by graphviz version 2.43.0 (0)
 -->
<!-- Title: template Pages: 1 -->
<svg width="886pt" height="1405pt"
 viewBox="0.00 0.00 886.07 1405.00" xmlns="http://www.w3.org/2000/svg" xmlns:xlink="http://www.w3.org/1999/xlink">
<g id="graph0" class="graph" transform="scale(1 1) rotate(0) translate(4 1401)">
<title>template</title>
<polygon fill="white" stroke="transparent" points="-4,4 -4,-1401 882.07,-1401 882.07,4 -4,4"/>
<g id="clust1" class="cluster">
<title>cluster_0</title>
<polygon fill="dimgray" stroke="black" points="8,-8 8,-1389 870.07,-1389 870.07,-8 8,-8"/>
</g>
<g id="clust2" class="cluster">
<title>cluster_net_0</title>
<polygon fill="white" stroke="black" points="248.52,-16 248.52,-1381 862.07,-1381 862.07,-16 248.52,-16"/>
</g>
<g id="clust3" class="cluster">
<title>cluster_1</title>
<polygon fill="yellow" stroke="black" points="449.99,-526 449.99,-1306 670.51,-1306 670.51,-526 449.99,-526"/>
</g>
<!-- n0_condition -->
<g id="node1" class="node">
<title>n0_condition</title>
<polygon fill="white" stroke="black" points="78.26,-1344 78.26,-1380 158.26,-1380 158.26,-1344 78.26,-1344"/>
<text text-anchor="middle" x="118.26" y="-1358.3" font-family="Times,serif" font-size="14.00">template</text>
</g>
<!-- n0_port_0 -->
<g id="node2" class="node">
<title>n0_port_0</title>
<polygon fill="white" stroke="black" points="220.29,-1302.33 118.26,-1325.43 16.24,-1302.33 16.33,-1264.96 220.19,-1264.96 220.29,-1302.33"/>
<text text-anchor="middle" x="118.26" y="-1295.8" font-family="Times,serif" font-size="14.00">base_filename</text>
<text text-anchor="middle" x="118.26" y="-1280.8" font-family="Times,serif" font-size="14.00">string</text>
</g>
<!-- n0_place_14 -->
<g id="node20" class="node">
<title>n0_place_14</title>
<ellipse fill="white" stroke="black" cx="339.25" cy="-1346" rx="82.96" ry="26.74"/>
<text text-anchor="middle" x="339.25" y="-1349.8" font-family="Times,serif" font-size="14.00">base_filename</text>
<text text-anchor="middle" x="339.25" y="-1334.8" font-family="Times,serif" font-size="14.00">string</text>
</g>
<!-- n0_port_0&#45;&gt;n0_place_14 -->
<g id="edge9" class="edge">
<title>n0_port_0&#45;&gt;n0_place_14</title>
<path fill="none" stroke="black" stroke-dasharray="1,5" d="M189.76,-1309.38C216.39,-1315.95 246.56,-1323.39 272.72,-1329.84"/>
</g>
<!-- n0_port_1 -->
<g id="node3" class="node">
<title>n0_port_1</title>
<polygon fill="white" stroke="black" points="214.55,-1006.33 118.26,-1029.43 21.97,-1006.33 22.06,-968.96 214.46,-968.96 214.55,-1006.33"/>
<text text-anchor="middle" x="118.26" y="-999.8" font-family="Times,serif" font-size="14.00">library_name</text>
<text text-anchor="middle" x="118.26" y="-984.8" font-family="Times,serif" font-size="14.00">string</text>
</g>
<!-- n0_place_12 -->
<g id="node6" class="node">
<title>n0_place_12</title>
<ellipse fill="white" stroke="black" cx="339.25" cy="-996" rx="77.56" ry="26.74"/>
<text text-anchor="middle" x="339.25" y="-999.8" font-family="Times,serif" font-size="14.00">library_name</text>
<text text-anchor="middle" x="339.25" y="-984.8" font-family="Times,serif" font-size="14.00">string</text>
</g>
<!-- n0_port_1&#45;&gt;n0_place_12 -->
<g id="edge10" class="edge">
<title>n0_port_1&#45;&gt;n0_place_12</title>
<path fill="none" stroke="black" stroke-dasharray="1,5" d="M214.68,-996C230.24,-996 246.18,-996 261.23,-996"/>
</g>
<!-- n0_port_2 -->
<g id="node4" class="node">
<title>n0_port_2</title>
<polygon fill="white" stroke="black" points="169.9,-390.33 118.26,-413.43 66.63,-390.33 66.67,-352.96 169.85,-352.96 169.9,-390.33"/>
<text text-anchor="middle" x="118.26" y="-383.8" font-family="Times,serif" font-size="14.00">input</text>
<text text-anchor="middle" x="118.26" y="-368.8" font-family="Times,serif" font-size="14.00">string</text>
</g>
<!-- n0_place_16 -->
<g id="node22" class="node">
<title>n0_place_16</title>
<ellipse fill="white" stroke="black" cx="339.25" cy="-380" rx="41.94" ry="26.74"/>
<text text-anchor="middle" x="339.25" y="-383.8" font-family="Times,serif" font-size="14.00">input</text>
<text text-anchor="middle" x="339.25" y="-368.8" font-family="Times,serif" font-size="14.00">string</text>
</g>
<!-- n0_port_2&#45;&gt;n0_place_16 -->
<g id="edge11" class="edge">
<title>n0_port_2&#45;&gt;n0_place_16</title>
<path fill="none" stroke="black" stroke-dasharray="1,5" d="M170.05,-380C208.72,-380 261.25,-380 297.26,-380"/>
</g>
<!-- n0_port_3 -->
<g id="node5" class="node">
<title>n0_port_3</title>
<polygon fill="white" stroke="black" points="62.39,-225.67 118.26,-202.57 174.14,-225.67 174.09,-263.04 62.44,-263.04 62.39,-225.67"/>
<text text-anchor="middle" x="118.26" y="-239.8" font-family="Times,serif" font-size="14.00">output</text>
<text text-anchor="middle" x="118.26" y="-224.8" font-family="Times,serif" font-size="14.00">string</text>
</g>
<!-- n0_place_8 -->
<g id="node10" class="node">
<title>n0_place_8</title>
<ellipse fill="white" stroke="black" cx="339.25" cy="-236" rx="45.01" ry="26.74"/>
<text text-anchor="middle" x="339.25" y="-239.8" font-family="Times,serif" font-size="14.00">output</text>
<text text-anchor="middle" x="339.25" y="-224.8" font-family="Times,serif" font-size="14.00">string</text>
</g>
<!-- n0_port_3&#45;&gt;n0_place_8 -->
<g id="edge12" class="edge">
<title>n0_port_3&#45;&gt;n0_place_8</title>
<path fill="none" stroke="black" stroke-dasharray="1,5" d="M174.24,-236C211.24,-236 259.38,-236 293.92,-236"/>
</g>
<!-- n1_port_4 -->
<g id="node29" class="node">
<title>n1_port_4</title>
<polygon fill="white" stroke="black" points="656.54,-1051.33 560.25,-1074.43 463.96,-1051.33 464.05,-1013.96 656.45,-1013.96 656.54,-1051.33"/>
<text text-anchor="middle" x="560.25" y="-1044.8" font-family="Times,serif" font-size="14.00">library_name</text>
<text text-anchor="middle" x="560.25" y="-1029.8" font-family="Times,serif" font-size="14.00">string</text>
</g>
<!-- n0_place_12&#45;&gt;n1_port_4 -->
<g id="edge7" class="edge">
<title>n0_place_12&#45;&gt;n1_port_4</title>
<path fill="none" stroke="black" stroke-dasharray="5,2" d="M406.55,-1009.62C421.57,-1012.71 437.87,-1016.06 454.05,-1019.38"/>
<polygon fill="black" stroke="black" points="453.59,-1022.86 464.09,-1021.45 455,-1016.01 453.59,-1022.86"/>
</g>
<!-- n0_place_11 -->
<g id="node7" class="node">
<title>n0_place_11</title>
<ellipse fill="white" stroke="black" cx="339.25" cy="-1264" rx="65.11" ry="37.45"/>
<text text-anchor="middle" x="339.25" y="-1275.3" font-family="Times,serif" font-size="14.00">control_31</text>
<text text-anchor="middle" x="339.25" y="-1260.3" font-family="Times,serif" font-size="14.00">control</text>
<text text-anchor="middle" x="339.25" y="-1245.3" font-family="Times,serif" font-size="14.00">[]</text>
</g>
<!-- n0_place_10 -->
<g id="node8" class="node">
<title>n0_place_10</title>
<ellipse fill="white" stroke="black" cx="339.25" cy="-1171" rx="65.11" ry="37.45"/>
<text text-anchor="middle" x="339.25" y="-1182.3" font-family="Times,serif" font-size="14.00">control_11</text>
<text text-anchor="middle" x="339.25" y="-1167.3" font-family="Times,serif" font-size="14.00">control</text>
<text text-anchor="middle" x="339.25" y="-1152.3" font-family="Times,serif" font-size="14.00">[]</text>
</g>
<!-- n1_port_6 -->
<g id="node31" class="node">
<title>n1_port_6</title>
<polygon fill="white" stroke="black" points="640.57,-1135.33 560.25,-1158.43 479.93,-1135.33 480,-1097.96 640.5,-1097.96 640.57,-1135.33"/>
<text text-anchor="middle" x="560.25" y="-1128.8" font-family="Times,serif" font-size="14.00">control_11</text>
<text text-anchor="middle" x="560.25" y="-1113.8" font-family="Times,serif" font-size="14.00">control</text>
</g>
<!-- n0_place_10&#45;&gt;n1_port_6 -->
<g id="edge8" class="edge">
<title>n0_place_10&#45;&gt;n1_port_6</title>
<path fill="none" stroke="black" d="M400.68,-1158.31C425.93,-1153 455.59,-1146.77 482.37,-1141.15"/>
<polygon fill="black" stroke="black" points="483.42,-1144.51 492.48,-1139.02 481.98,-1137.65 483.42,-1144.51"/>
</g>
<!-- n0_place_9 -->
<g id="node9" class="node">
<title>n0_place_9</title>
<ellipse fill="white" stroke="black" cx="339.25" cy="-1078" rx="65.11" ry="37.45"/>
<text text-anchor="middle" x="339.25" y="-1089.3" font-family="Times,serif" font-size="14.00">control_33</text>
<text text-anchor="middle" x="339.25" y="-1074.3" font-family="Times,serif" font-size="14.00">control</text>
<text text-anchor="middle" x="339.25" y="-1059.3" font-family="Times,serif" font-size="14.00">[]</text>
</g>
<!-- n0_place_7 -->
<g id="node11" class="node">
<title>n0_place_7</title>
<ellipse fill="white" stroke="black" cx="776.29" cy="-789" rx="45.92" ry="26.74"/>
<text text-anchor="middle" x="776.29" y="-792.8" font-family="Times,serif" font-size="14.00">tail_00</text>
<text text-anchor="middle" x="776.29" y="-777.8" font-family="Times,serif" font-size="14.00">string</text>
</g>
<!-- n0_place_6 -->
<g id="node12" class="node">
<title>n0_place_6</title>
<ellipse fill="white" stroke="black" cx="776.29" cy="-705" rx="45.92" ry="26.74"/>
<text text-anchor="middle" x="776.29" y="-708.8" font-family="Times,serif" font-size="14.00">tail_11</text>
<text text-anchor="middle" x="776.29" y="-693.8" font-family="Times,serif" font-size="14.00">string</text>
</g>
<!-- n0_place_5 -->
<g id="node13" class="node">
<title>n0_place_5</title>
<ellipse fill="white" stroke="black" cx="339.25" cy="-924" rx="45.92" ry="26.74"/>
<text text-anchor="middle" x="339.25" y="-927.8" font-family="Times,serif" font-size="14.00">tail_21</text>
<text text-anchor="middle" x="339.25" y="-912.8" font-family="Times,serif" font-size="14.00">string</text>
</g>
<!-- n0_place_4 -->
<g id="node14" class="node">
<title>n0_place_4</title>
<ellipse fill="white" stroke="black" cx="339.25" cy="-852" rx="45.92" ry="26.74"/>
<text text-anchor="middle" x="339.25" y="-855.8" font-family="Times,serif" font-size="14.00">tail_22</text>
<text text-anchor="middle" x="339.25" y="-840.8" font-family="Times,serif" font-size="14.00">string</text>
</g>
<!-- n0_place_3 -->
<g id="node15" class="node">
<title>n0_place_3</title>
<ellipse fill="white" stroke="black" cx="339.25" cy="-770" rx="65.11" ry="37.45"/>
<text text-anchor="middle" x="339.25" y="-781.3" font-family="Times,serif" font-size="14.00">control_32</text>
<text text-anchor="middle" x="339.25" y="-766.3" font-family="Times,serif" font-size="14.00">control</text>
<text text-anchor="middle" x="339.25" y="-751.3" font-family="Times,serif" font-size="14.00">[]</text>
</g>
<!-- n0_place_2 -->
<g id="node16" class="node">
<title>n0_place_2</title>
<ellipse fill="white" stroke="black" cx="339.25" cy="-688" rx="45.92" ry="26.74"/>
<text text-anchor="middle" x="339.25" y="-691.8" font-family="Times,serif" font-size="14.00">tail_32</text>
<text text-anchor="middle" x="339.25" y="-676.8" font-family="Times,serif" font-size="14.00">string</text>
</g>
<!-- n0_place_1 -->
<g id="node17" class="node">
<title>n0_place_1</title>
<ellipse fill="white" stroke="black" cx="339.25" cy="-616" rx="45.92" ry="26.74"/>
<text text-anchor="middle" x="339.25" y="-619.8" font-family="Times,serif" font-size="14.00">tail_31</text>
<text text-anchor="middle" x="339.25" y="-604.8" font-family="Times,serif" font-size="14.00">string</text>
</g>
<!-- n0_place_0 -->
<g id="node18" class="node">
<title>n0_place_0</title>
<ellipse fill="white" stroke="black" cx="339.25" cy="-544" rx="45.92" ry="26.74"/>
<text text-anchor="middle" x="339.25" y="-547.8" font-family="Times,serif" font-size="14.00">tail_23</text>
<text text-anchor="middle" x="339.25" y="-532.8" font-family="Times,serif" font-size="14.00">string</text>
</g>
<!-- n0_place_13 -->
<g id="node19" class="node">
<title>n0_place_13</title>
<ellipse fill="white" stroke="black" cx="339.25" cy="-462" rx="65.11" ry="37.45"/>
<text text-anchor="middle" x="339.25" y="-473.3" font-family="Times,serif" font-size="14.00">control_23</text>
<text text-anchor="middle" x="339.25" y="-458.3" font-family="Times,serif" font-size="14.00">control</text>
<text text-anchor="middle" x="339.25" y="-443.3" font-family="Times,serif" font-size="14.00">[]</text>
</g>
<!-- n1_port_5 -->
<g id="node30" class="node">
<title>n1_port_5</title>
<polygon fill="white" stroke="black" points="662.27,-1219.33 560.25,-1242.43 458.22,-1219.33 458.32,-1181.96 662.18,-1181.96 662.27,-1219.33"/>
<text text-anchor="middle" x="560.25" y="-1212.8" font-family="Times,serif" font-size="14.00">base_filename</text>
<text text-anchor="middle" x="560.25" y="-1197.8" font-family="Times,serif" font-size="14.00">string</text>
</g>
<!-- n0_place_14&#45;&gt;n1_port_5 -->
<g id="edge6" class="edge">
<title>n0_place_14&#45;&gt;n1_port_5</title>
<path fill="none" stroke="black" stroke-dasharray="5,2" d="M398.01,-1326.82C406.71,-1322.23 415.07,-1316.68 421.99,-1310 442.58,-1290.12 429,-1271.47 449.99,-1252 459.12,-1243.52 470.13,-1236.64 481.59,-1231.08"/>
<polygon fill="black" stroke="black" points="483.18,-1234.2 490.86,-1226.89 480.3,-1227.82 483.18,-1234.2"/>
</g>
<!-- n0_place_15 -->
<g id="node21" class="node">
<title>n0_place_15</title>
<ellipse fill="white" stroke="black" cx="339.25" cy="-308" rx="45.92" ry="26.74"/>
<text text-anchor="middle" x="339.25" y="-311.8" font-family="Times,serif" font-size="14.00">tail_33</text>
<text text-anchor="middle" x="339.25" y="-296.8" font-family="Times,serif" font-size="14.00">string</text>
</g>
<!-- n1_port_3 -->
<g id="node28" class="node">
<title>n1_port_3</title>
<polygon fill="white" stroke="black" points="611.88,-967.33 560.25,-990.43 508.61,-967.33 508.66,-929.96 611.84,-929.96 611.88,-967.33"/>
<text text-anchor="middle" x="560.25" y="-960.8" font-family="Times,serif" font-size="14.00">input</text>
<text text-anchor="middle" x="560.25" y="-945.8" font-family="Times,serif" font-size="14.00">string</text>
</g>
<!-- n0_place_16&#45;&gt;n1_port_3 -->
<g id="edge5" class="edge">
<title>n0_place_16&#45;&gt;n1_port_3</title>
<path fill="none" stroke="black" stroke-dasharray="5,2" d="M379.35,-387.81C395.22,-393.05 412.1,-401.73 421.99,-416 485.24,-507.29 384.56,-825.25 449.99,-915 461.66,-931.01 480.29,-940.92 498.89,-947.05"/>
<polygon fill="black" stroke="black" points="497.99,-950.43 508.57,-949.92 499.98,-943.72 497.99,-950.43"/>
</g>
<!-- n0_place_17 -->
<g id="node23" class="node">
<title>n0_place_17</title>
<ellipse fill="white" stroke="black" cx="339.25" cy="-154" rx="65.11" ry="37.45"/>
<text text-anchor="middle" x="339.25" y="-165.3" font-family="Times,serif" font-size="14.00">control_21</text>
<text text-anchor="middle" x="339.25" y="-150.3" font-family="Times,serif" font-size="14.00">control</text>
<text text-anchor="middle" x="339.25" y="-135.3" font-family="Times,serif" font-size="14.00">[]</text>
</g>
<!-- n0_place_18 -->
<g id="node24" class="node">
<title>n0_place_18</title>
<ellipse fill="white" stroke="black" cx="776.29" cy="-621" rx="77.56" ry="26.74"/>
<text text-anchor="middle" x="776.29" y="-624.8" font-family="Times,serif" font-size="14.00">labeledgraph</text>
<text text-anchor="middle" x="776.29" y="-609.8" font-family="Times,serif" font-size="14.00">string</text>
</g>
<!-- n0_place_19 -->
<g id="node25" class="node">
<title>n0_place_19</title>
<ellipse fill="white" stroke="black" cx="776.29" cy="-873" rx="41.94" ry="26.74"/>
<text text-anchor="middle" x="776.29" y="-876.8" font-family="Times,serif" font-size="14.00">web</text>
<text text-anchor="middle" x="776.29" y="-861.8" font-family="Times,serif" font-size="14.00">string</text>
</g>
<!-- n0_place_20 -->
<g id="node26" class="node">
<title>n0_place_20</title>
<ellipse fill="white" stroke="black" cx="339.25" cy="-61" rx="65.11" ry="37.45"/>
<text text-anchor="middle" x="339.25" y="-72.3" font-family="Times,serif" font-size="14.00">control_22</text>
<text text-anchor="middle" x="339.25" y="-57.3" font-family="Times,serif" font-size="14.00">control</text>
<text text-anchor="middle" x="339.25" y="-42.3" font-family="Times,serif" font-size="14.00">[]</text>
</g>
<!-- n1_condition -->
<g id="node27" class="node">
<title>n1_condition</title>
<polygon fill="white" stroke="black" points="533.25,-1261 533.25,-1297 587.25,-1297 587.25,-1261 533.25,-1261"/>
<text text-anchor="middle" x="560.25" y="-1275.3" font-family="Times,serif" font-size="14.00">T_11</text>
</g>
<!-- n1_port_0 -->
<g id="node32" class="node">
<title>n1_port_0</title>
<polygon fill="white" stroke="black" points="463.96,-610.67 560.25,-587.57 656.54,-610.67 656.45,-648.04 464.05,-648.04 463.96,-610.67"/>
<text text-anchor="middle" x="560.25" y="-624.8" font-family="Times,serif" font-size="14.00">labeledgraph</text>
<text text-anchor="middle" x="560.25" y="-609.8" font-family="Times,serif" font-size="14.00">string</text>
</g>
<!-- n1_port_0&#45;&gt;n0_place_18 -->
<g id="edge3" class="edge">
<title>n1_port_0&#45;&gt;n0_place_18</title>
<path fill="none" stroke="black" d="M656.69,-621C667.14,-621 677.74,-621 688.09,-621"/>
<polygon fill="black" stroke="black" points="688.33,-624.5 698.33,-621 688.33,-617.5 688.33,-624.5"/>
</g>
<!-- n1_port_1 -->
<g id="node33" class="node">
<title>n1_port_1</title>
<polygon fill="white" stroke="black" points="503.62,-694.67 560.25,-671.57 616.87,-694.67 616.82,-732.04 503.68,-732.04 503.62,-694.67"/>
<text text-anchor="middle" x="560.25" y="-708.8" font-family="Times,serif" font-size="14.00">tail_11</text>
<text text-anchor="middle" x="560.25" y="-693.8" font-family="Times,serif" font-size="14.00">string</text>
</g>
<!-- n1_port_1&#45;&gt;n0_place_6 -->
<g id="edge2" class="edge">
<title>n1_port_1&#45;&gt;n0_place_6</title>
<path fill="none" stroke="black" d="M616.93,-705C648.64,-705 688.25,-705 719.91,-705"/>
<polygon fill="black" stroke="black" points="720.32,-708.5 730.32,-705 720.32,-701.5 720.32,-708.5"/>
</g>
<!-- n1_port_2 -->
<g id="node34" class="node">
<title>n1_port_2</title>
<polygon fill="white" stroke="black" points="503.62,-778.67 560.25,-755.57 616.87,-778.67 616.82,-816.04 503.68,-816.04 503.62,-778.67"/>
<text text-anchor="middle" x="560.25" y="-792.8" font-family="Times,serif" font-size="14.00">tail_00</text>
<text text-anchor="middle" x="560.25" y="-777.8" font-family="Times,serif" font-size="14.00">string</text>
</g>
<!-- n1_port_2&#45;&gt;n0_place_7 -->
<g id="edge4" class="edge">
<title>n1_port_2&#45;&gt;n0_place_7</title>
<path fill="none" stroke="black" d="M616.93,-789C648.64,-789 688.25,-789 719.91,-789"/>
<polygon fill="black" stroke="black" points="720.32,-792.5 730.32,-789 720.32,-785.5 720.32,-792.5"/>
</g>
<!-- n1_port_7 -->
<g id="node35" class="node">
<title>n1_port_7</title>
<polygon fill="white" stroke="black" points="508.61,-862.67 560.25,-839.57 611.88,-862.67 611.84,-900.04 508.66,-900.04 508.61,-862.67"/>
<text text-anchor="middle" x="560.25" y="-876.8" font-family="Times,serif" font-size="14.00">web</text>
<text text-anchor="middle" x="560.25" y="-861.8" font-family="Times,serif" font-size="14.00">string</text>
</g>
<!-- n1_port_7&#45;&gt;n0_place_19 -->
<g id="edge1" class="edge">
<title>n1_port_7&#45;&gt;n0_place_19</title>
<path fill="none" stroke="black" d="M611.97,-873C645.81,-873 690.14,-873 724.07,-873"/>
<polygon fill="black" stroke="black" points="724.25,-876.5 734.25,-873 724.25,-869.5 724.25,-876.5"/>
</g>
<!-- n1_modcall -->
<g id="node36" class="node">
<title>n1_modcall</title>
<polygon fill="white" stroke="black" points="658.25,-570 462.25,-570 462.25,-534 658.25,-534 658.25,-570"/>
<text text-anchor="middle" x="560.25" y="-548.3" font-family="Times,serif" font-size="14.00">singular_template.f_T_11</text>
</g>
</g>
</svg>
