<?xml version="1.0" encoding="UTF-8" standalone="no"?>
<!DOCTYPE svg PUBLIC "-//W3C//DTD SVG 1.1//EN"
 "http://www.w3.org/Graphics/SVG/1.1/DTD/svg11.dtd">
<!-- Generated by graphviz version 2.43.0 (0)
 -->
<!-- Title: template Pages: 1 -->
<svg width="886pt" height="826pt"
 viewBox="0.00 0.00 886.07 826.00" xmlns="http://www.w3.org/2000/svg" xmlns:xlink="http://www.w3.org/1999/xlink">
<g id="graph0" class="graph" transform="scale(1 1) rotate(0) translate(4 822)">
<title>template</title>
<polygon fill="white" stroke="transparent" points="-4,4 -4,-822 882.07,-822 882.07,4 -4,4"/>
<g id="clust1" class="cluster">
<title>cluster_0</title>
<polygon fill="dimgray" stroke="black" points="8,-8 8,-810 870.07,-810 870.07,-8 8,-8"/>
</g>
<g id="clust2" class="cluster">
<title>cluster_net_0</title>
<polygon fill="white" stroke="black" points="248.52,-90 248.52,-802 862.07,-802 862.07,-90 248.52,-90"/>
</g>
<g id="clust3" class="cluster">
<title>cluster_1</title>
<polygon fill="yellow" stroke="black" points="449.99,-98 449.99,-794 670.51,-794 670.51,-98 449.99,-98"/>
</g>
<!-- n0_condition -->
<g id="node1" class="node">
<title>n0_condition</title>
<polygon fill="white" stroke="black" points="78.26,-757 78.26,-793 158.26,-793 158.26,-757 78.26,-757"/>
<text text-anchor="middle" x="118.26" y="-771.3" font-family="Times,serif" font-size="14.00">template</text>
</g>
<!-- n0_port_0 -->
<g id="node2" class="node">
<title>n0_port_0</title>
<polygon fill="white" stroke="black" points="220.29,-707.33 118.26,-730.43 16.24,-707.33 16.33,-669.96 220.19,-669.96 220.29,-707.33"/>
<text text-anchor="middle" x="118.26" y="-700.8" font-family="Times,serif" font-size="14.00">base_filename</text>
<text text-anchor="middle" x="118.26" y="-685.8" font-family="Times,serif" font-size="14.00">string</text>
</g>
<!-- n0_place_0 -->
<g id="node6" class="node">
<title>n0_place_0</title>
<ellipse fill="white" stroke="black" cx="339.25" cy="-697" rx="82.96" ry="26.74"/>
<text text-anchor="middle" x="339.25" y="-700.8" font-family="Times,serif" font-size="14.00">base_filename</text>
<text text-anchor="middle" x="339.25" y="-685.8" font-family="Times,serif" font-size="14.00">string</text>
</g>
<!-- n0_port_0&#45;&gt;n0_place_0 -->
<g id="edge8" class="edge">
<title>n0_port_0&#45;&gt;n0_place_0</title>
<path fill="none" stroke="black" stroke-dasharray="1,5" d="M220.42,-697C232.42,-697 244.54,-697 256.22,-697"/>
</g>
<!-- n0_port_1 -->
<g id="node3" class="node">
<title>n0_port_1</title>
<polygon fill="white" stroke="black" points="214.55,-623.33 118.26,-646.43 21.97,-623.33 22.06,-585.96 214.46,-585.96 214.55,-623.33"/>
<text text-anchor="middle" x="118.26" y="-616.8" font-family="Times,serif" font-size="14.00">library_name</text>
<text text-anchor="middle" x="118.26" y="-601.8" font-family="Times,serif" font-size="14.00">string</text>
</g>
<!-- n0_place_1 -->
<g id="node7" class="node">
<title>n0_place_1</title>
<ellipse fill="white" stroke="black" cx="339.25" cy="-613" rx="77.56" ry="26.74"/>
<text text-anchor="middle" x="339.25" y="-616.8" font-family="Times,serif" font-size="14.00">library_name</text>
<text text-anchor="middle" x="339.25" y="-601.8" font-family="Times,serif" font-size="14.00">string</text>
</g>
<!-- n0_port_1&#45;&gt;n0_place_1 -->
<g id="edge9" class="edge">
<title>n0_port_1&#45;&gt;n0_place_1</title>
<path fill="none" stroke="black" stroke-dasharray="1,5" d="M214.68,-613C230.24,-613 246.18,-613 261.23,-613"/>
</g>
<!-- n0_port_2 -->
<g id="node4" class="node">
<title>n0_port_2</title>
<polygon fill="white" stroke="black" points="169.9,-539.33 118.26,-562.43 66.63,-539.33 66.67,-501.96 169.85,-501.96 169.9,-539.33"/>
<text text-anchor="middle" x="118.26" y="-532.8" font-family="Times,serif" font-size="14.00">input</text>
<text text-anchor="middle" x="118.26" y="-517.8" font-family="Times,serif" font-size="14.00">string</text>
</g>
<!-- n0_place_2 -->
<g id="node8" class="node">
<title>n0_place_2</title>
<ellipse fill="white" stroke="black" cx="339.25" cy="-529" rx="41.94" ry="26.74"/>
<text text-anchor="middle" x="339.25" y="-532.8" font-family="Times,serif" font-size="14.00">input</text>
<text text-anchor="middle" x="339.25" y="-517.8" font-family="Times,serif" font-size="14.00">string</text>
</g>
<!-- n0_port_2&#45;&gt;n0_place_2 -->
<g id="edge10" class="edge">
<title>n0_port_2&#45;&gt;n0_place_2</title>
<path fill="none" stroke="black" stroke-dasharray="1,5" d="M170.05,-529C208.72,-529 261.25,-529 297.26,-529"/>
</g>
<!-- n0_port_3 -->
<g id="node5" class="node">
<title>n0_port_3</title>
<polygon fill="white" stroke="black" points="504.37,-38.67 560.25,-15.57 616.12,-38.67 616.07,-76.04 504.42,-76.04 504.37,-38.67"/>
<text text-anchor="middle" x="560.25" y="-52.8" font-family="Times,serif" font-size="14.00">output</text>
<text text-anchor="middle" x="560.25" y="-37.8" font-family="Times,serif" font-size="14.00">string</text>
</g>
<!-- n0_place_5 -->
<g id="node11" class="node">
<title>n0_place_5</title>
<ellipse fill="white" stroke="black" cx="776.29" cy="-159" rx="45.01" ry="26.74"/>
<text text-anchor="middle" x="776.29" y="-162.8" font-family="Times,serif" font-size="14.00">output</text>
<text text-anchor="middle" x="776.29" y="-147.8" font-family="Times,serif" font-size="14.00">string</text>
</g>
<!-- n0_port_3&#45;&gt;n0_place_5 -->
<g id="edge11" class="edge">
<title>n0_port_3&#45;&gt;n0_place_5</title>
<path fill="none" stroke="black" stroke-dasharray="1,5" d="M616.23,-69.59C633.85,-76.73 653.25,-85.17 670.51,-94 696.81,-107.46 725.2,-125.29 745.79,-138.88"/>
</g>
<!-- n1_port_3 -->
<g id="node15" class="node">
<title>n1_port_3</title>
<polygon fill="white" stroke="black" points="662.27,-707.33 560.25,-730.43 458.22,-707.33 458.32,-669.96 662.18,-669.96 662.27,-707.33"/>
<text text-anchor="middle" x="560.25" y="-700.8" font-family="Times,serif" font-size="14.00">base_filename</text>
<text text-anchor="middle" x="560.25" y="-685.8" font-family="Times,serif" font-size="14.00">string</text>
</g>
<!-- n0_place_0&#45;&gt;n1_port_3 -->
<g id="edge5" class="edge">
<title>n0_place_0&#45;&gt;n1_port_3</title>
<path fill="none" stroke="black" stroke-dasharray="5,2" d="M422.11,-697C430.58,-697 439.29,-697 448.01,-697"/>
<polygon fill="black" stroke="black" points="448.24,-700.5 458.24,-697 448.24,-693.5 448.24,-700.5"/>
</g>
<!-- n1_port_2 -->
<g id="node14" class="node">
<title>n1_port_2</title>
<polygon fill="white" stroke="black" points="656.54,-623.33 560.25,-646.43 463.96,-623.33 464.05,-585.96 656.45,-585.96 656.54,-623.33"/>
<text text-anchor="middle" x="560.25" y="-616.8" font-family="Times,serif" font-size="14.00">library_name</text>
<text text-anchor="middle" x="560.25" y="-601.8" font-family="Times,serif" font-size="14.00">string</text>
</g>
<!-- n0_place_1&#45;&gt;n1_port_2 -->
<g id="edge6" class="edge">
<title>n0_place_1&#45;&gt;n1_port_2</title>
<path fill="none" stroke="black" stroke-dasharray="5,2" d="M417.16,-613C429,-613 441.4,-613 453.74,-613"/>
<polygon fill="black" stroke="black" points="454.07,-616.5 464.07,-613 454.07,-609.5 454.07,-616.5"/>
</g>
<!-- n1_port_6 -->
<g id="node17" class="node">
<title>n1_port_6</title>
<polygon fill="white" stroke="black" points="611.88,-539.33 560.25,-562.43 508.61,-539.33 508.66,-501.96 611.84,-501.96 611.88,-539.33"/>
<text text-anchor="middle" x="560.25" y="-532.8" font-family="Times,serif" font-size="14.00">input</text>
<text text-anchor="middle" x="560.25" y="-517.8" font-family="Times,serif" font-size="14.00">string</text>
</g>
<!-- n0_place_2&#45;&gt;n1_port_6 -->
<g id="edge4" class="edge">
<title>n0_place_2&#45;&gt;n1_port_6</title>
<path fill="none" stroke="black" stroke-dasharray="5,2" d="M381.19,-529C414.12,-529 460.89,-529 498.24,-529"/>
<polygon fill="black" stroke="black" points="498.5,-532.5 508.5,-529 498.5,-525.5 498.5,-532.5"/>
</g>
<!-- n0_place_3 -->
<g id="node9" class="node">
<title>n0_place_3</title>
<ellipse fill="white" stroke="black" cx="776.29" cy="-361" rx="77.56" ry="26.74"/>
<text text-anchor="middle" x="776.29" y="-364.8" font-family="Times,serif" font-size="14.00">labeledgraph</text>
<text text-anchor="middle" x="776.29" y="-349.8" font-family="Times,serif" font-size="14.00">string</text>
</g>
<!-- n0_place_4 -->
<g id="node10" class="node">
<title>n0_place_4</title>
<ellipse fill="white" stroke="black" cx="339.25" cy="-445" rx="65.11" ry="37.45"/>
<text text-anchor="middle" x="339.25" y="-456.3" font-family="Times,serif" font-size="14.00">control_11</text>
<text text-anchor="middle" x="339.25" y="-441.3" font-family="Times,serif" font-size="14.00">control</text>
<text text-anchor="middle" x="339.25" y="-426.3" font-family="Times,serif" font-size="14.00">[]</text>
</g>
<!-- n1_port_5 -->
<g id="node16" class="node">
<title>n1_port_5</title>
<polygon fill="white" stroke="black" points="640.57,-455.33 560.25,-478.43 479.93,-455.33 480,-417.96 640.5,-417.96 640.57,-455.33"/>
<text text-anchor="middle" x="560.25" y="-448.8" font-family="Times,serif" font-size="14.00">control_11</text>
<text text-anchor="middle" x="560.25" y="-433.8" font-family="Times,serif" font-size="14.00">control</text>
</g>
<!-- n0_place_4&#45;&gt;n1_port_5 -->
<g id="edge7" class="edge">
<title>n0_place_4&#45;&gt;n1_port_5</title>
<path fill="none" stroke="black" d="M404.48,-445C424.85,-445 447.77,-445 469.59,-445"/>
<polygon fill="black" stroke="black" points="469.86,-448.5 479.86,-445 469.86,-441.5 469.86,-448.5"/>
</g>
<!-- n0_place_6 -->
<g id="node12" class="node">
<title>n0_place_6</title>
<ellipse fill="white" stroke="black" cx="776.29" cy="-277" rx="41.94" ry="26.74"/>
<text text-anchor="middle" x="776.29" y="-280.8" font-family="Times,serif" font-size="14.00">web</text>
<text text-anchor="middle" x="776.29" y="-265.8" font-family="Times,serif" font-size="14.00">string</text>
</g>
<!-- n1_condition -->
<g id="node13" class="node">
<title>n1_condition</title>
<polygon fill="white" stroke="black" points="533.25,-749 533.25,-785 587.25,-785 587.25,-749 533.25,-749"/>
<text text-anchor="middle" x="560.25" y="-763.3" font-family="Times,serif" font-size="14.00">T_11</text>
</g>
<!-- n1_port_0 -->
<g id="node18" class="node">
<title>n1_port_0</title>
<polygon fill="white" stroke="black" points="463.96,-350.67 560.25,-327.57 656.54,-350.67 656.45,-388.04 464.05,-388.04 463.96,-350.67"/>
<text text-anchor="middle" x="560.25" y="-364.8" font-family="Times,serif" font-size="14.00">labeledgraph</text>
<text text-anchor="middle" x="560.25" y="-349.8" font-family="Times,serif" font-size="14.00">string</text>
</g>
<!-- n1_port_0&#45;&gt;n0_place_3 -->
<g id="edge3" class="edge">
<title>n1_port_0&#45;&gt;n0_place_3</title>
<path fill="none" stroke="black" d="M656.69,-361C667.14,-361 677.74,-361 688.09,-361"/>
<polygon fill="black" stroke="black" points="688.33,-364.5 698.33,-361 688.33,-357.5 688.33,-364.5"/>
</g>
<!-- n1_port_1 -->
<g id="node19" class="node">
<title>n1_port_1</title>
<polygon fill="white" stroke="black" points="504.37,-182.67 560.25,-159.57 616.12,-182.67 616.07,-220.04 504.42,-220.04 504.37,-182.67"/>
<text text-anchor="middle" x="560.25" y="-196.8" font-family="Times,serif" font-size="14.00">output</text>
<text text-anchor="middle" x="560.25" y="-181.8" font-family="Times,serif" font-size="14.00">string</text>
</g>
<!-- n1_port_1&#45;&gt;n0_place_5 -->
<g id="edge2" class="edge">
<title>n1_port_1&#45;&gt;n0_place_5</title>
<path fill="none" stroke="black" d="M616.37,-184.24C648.89,-179.08 689.86,-172.57 722.05,-167.46"/>
<polygon fill="black" stroke="black" points="722.84,-170.87 732.17,-165.85 721.75,-163.96 722.84,-170.87"/>
</g>
<!-- n1_port_4 -->
<g id="node20" class="node">
<title>n1_port_4</title>
<polygon fill="white" stroke="black" points="508.61,-266.67 560.25,-243.57 611.88,-266.67 611.84,-304.04 508.66,-304.04 508.61,-266.67"/>
<text text-anchor="middle" x="560.25" y="-280.8" font-family="Times,serif" font-size="14.00">web</text>
<text text-anchor="middle" x="560.25" y="-265.8" font-family="Times,serif" font-size="14.00">string</text>
</g>
<!-- n1_port_4&#45;&gt;n0_place_6 -->
<g id="edge1" class="edge">
<title>n1_port_4&#45;&gt;n0_place_6</title>
<path fill="none" stroke="black" d="M611.97,-277C645.81,-277 690.14,-277 724.07,-277"/>
<polygon fill="black" stroke="black" points="724.25,-280.5 734.25,-277 724.25,-273.5 724.25,-280.5"/>
</g>
<!-- n1_modcall -->
<g id="node21" class="node">
<title>n1_modcall</title>
<polygon fill="white" stroke="black" points="658.25,-142 462.25,-142 462.25,-106 658.25,-106 658.25,-142"/>
<text text-anchor="middle" x="560.25" y="-120.3" font-family="Times,serif" font-size="14.00">singular_template.f_T_11</text>
</g>
</g>
</svg>
