<?xml version="1.0" encoding="UTF-8" standalone="no"?>
<!DOCTYPE svg PUBLIC "-//W3C//DTD SVG 1.1//EN"
 "http://www.w3.org/Graphics/SVG/1.1/DTD/svg11.dtd">
<!-- Generated by graphviz version 2.43.0 (0)
 -->
<!-- Title: template Pages: 1 -->
<svg width="4963pt" height="2207pt"
 viewBox="0.00 0.00 4963.34 2207.12" xmlns="http://www.w3.org/2000/svg" xmlns:xlink="http://www.w3.org/1999/xlink">
<g id="graph0" class="graph" transform="scale(1 1) rotate(0) translate(4 2203.12)">
<title>template</title>
<polygon fill="white" stroke="transparent" points="-4,4 -4,-2203.12 4959.34,-2203.12 4959.34,4 -4,4"/>
<g id="clust1" class="cluster">
<title>cluster_0</title>
<polygon fill="dimgray" stroke="black" points="8,-8 8,-2186 4947.34,-2186 4947.34,-8 8,-8"/>
</g>
<g id="clust2" class="cluster">
<title>cluster_net_0</title>
<polygon fill="white" stroke="black" points="248.52,-90 248.52,-2178 4939.34,-2178 4939.34,-90 248.52,-90"/>
</g>
<g id="clust3" class="cluster">
<title>cluster_1</title>
<polygon fill="yellow" stroke="black" points="3476.96,-98 3476.96,-820 4272.6,-820 4272.6,-98 3476.96,-98"/>
</g>
<g id="clust4" class="cluster">
<title>cluster_2</title>
<polygon fill="yellow" stroke="black" points="3760.78,-1466 3760.78,-1994 3988.78,-1994 3988.78,-1466 3760.78,-1466"/>
</g>
<g id="clust5" class="cluster">
<title>cluster_3</title>
<polygon fill="yellow" stroke="black" points="2263.41,-1590 2263.41,-2158 2521.41,-2158 2521.41,-1590 2263.41,-1590"/>
</g>
<g id="clust6" class="cluster">
<title>cluster_4</title>
<polygon fill="yellow" stroke="black" points="2261.41,-1054 2261.41,-1582 2523.41,-1582 2523.41,-1054 2261.41,-1054"/>
</g>
<g id="clust7" class="cluster">
<title>cluster_5</title>
<polygon fill="yellow" stroke="black" points="1994.59,-98 1994.59,-1046 2790.22,-1046 2790.22,-98 1994.59,-98"/>
</g>
<g id="clust8" class="cluster">
<title>cluster_6</title>
<polygon fill="yellow" stroke="black" points="512.21,-518 512.21,-1214 1307.85,-1214 1307.85,-518 512.21,-518"/>
</g>
<!-- n0_condition -->
<g id="node1" class="node">
<title>n0_condition</title>
<polygon fill="white" stroke="black" points="78.26,-1755 78.26,-1791 158.26,-1791 158.26,-1755 78.26,-1755"/>
<text text-anchor="middle" x="118.26" y="-1769.3" font-family="Times,serif" font-size="14.00">template</text>
</g>
<!-- n0_port_0 -->
<g id="node2" class="node">
<title>n0_port_0</title>
<polygon fill="white" stroke="black" points="220.29,-1327.33 118.26,-1350.43 16.24,-1327.33 16.33,-1289.96 220.19,-1289.96 220.29,-1327.33"/>
<text text-anchor="middle" x="118.26" y="-1320.8" font-family="Times,serif" font-size="14.00">base_filename</text>
<text text-anchor="middle" x="118.26" y="-1305.8" font-family="Times,serif" font-size="14.00">string</text>
</g>
<!-- n0_place_11 -->
<g id="node7" class="node">
<title>n0_place_11</title>
<ellipse fill="white" stroke="black" cx="370.37" cy="-1317" rx="113.69" ry="26.74"/>
<text text-anchor="middle" x="370.37" y="-1320.8" font-family="Times,serif" font-size="14.00">place_base_filename</text>
<text text-anchor="middle" x="370.37" y="-1305.8" font-family="Times,serif" font-size="14.00">string</text>
</g>
<!-- n0_port_0&#45;&gt;n0_place_11 -->
<g id="edge39" class="edge">
<title>n0_port_0&#45;&gt;n0_place_11</title>
<path fill="none" stroke="black" stroke-dasharray="1,5" d="M220.27,-1317C232.2,-1317 244.43,-1317 256.51,-1317"/>
</g>
<!-- n0_port_1 -->
<g id="node3" class="node">
<title>n0_port_1</title>
<polygon fill="white" stroke="black" points="214.55,-1235.33 118.26,-1258.43 21.97,-1235.33 22.06,-1197.96 214.46,-1197.96 214.55,-1235.33"/>
<text text-anchor="middle" x="118.26" y="-1228.8" font-family="Times,serif" font-size="14.00">library_name</text>
<text text-anchor="middle" x="118.26" y="-1213.8" font-family="Times,serif" font-size="14.00">string</text>
</g>
<!-- n0_place_14 -->
<g id="node20" class="node">
<title>n0_place_14</title>
<ellipse fill="white" stroke="black" cx="370.37" cy="-1225" rx="109.7" ry="26.74"/>
<text text-anchor="middle" x="370.37" y="-1228.8" font-family="Times,serif" font-size="14.00">place_library_name</text>
<text text-anchor="middle" x="370.37" y="-1213.8" font-family="Times,serif" font-size="14.00">string</text>
</g>
<!-- n0_port_1&#45;&gt;n0_place_14 -->
<g id="edge40" class="edge">
<title>n0_port_1&#45;&gt;n0_place_14</title>
<path fill="none" stroke="black" stroke-dasharray="1,5" d="M214.53,-1225C229.58,-1225 245.23,-1225 260.56,-1225"/>
</g>
<!-- n0_port_2 -->
<g id="node4" class="node">
<title>n0_port_2</title>
<polygon fill="white" stroke="black" points="169.9,-680.33 118.26,-703.43 66.63,-680.33 66.67,-642.96 169.85,-642.96 169.9,-680.33"/>
<text text-anchor="middle" x="118.26" y="-673.8" font-family="Times,serif" font-size="14.00">input</text>
<text text-anchor="middle" x="118.26" y="-658.8" font-family="Times,serif" font-size="14.00">string</text>
</g>
<!-- n0_place_10 -->
<g id="node8" class="node">
<title>n0_place_10</title>
<ellipse fill="white" stroke="black" cx="370.37" cy="-670" rx="69.09" ry="26.74"/>
<text text-anchor="middle" x="370.37" y="-673.8" font-family="Times,serif" font-size="14.00">place_input</text>
<text text-anchor="middle" x="370.37" y="-658.8" font-family="Times,serif" font-size="14.00">string</text>
</g>
<!-- n0_port_2&#45;&gt;n0_place_10 -->
<g id="edge41" class="edge">
<title>n0_port_2&#45;&gt;n0_place_10</title>
<path fill="none" stroke="black" stroke-dasharray="1,5" d="M169.87,-670C207.56,-670 259.42,-670 300.82,-670"/>
</g>
<!-- n0_port_3 -->
<g id="node5" class="node">
<title>n0_port_3</title>
<polygon fill="white" stroke="black" points="3485.15,-38.67 3874.78,-15.57 4264.42,-38.67 4264.05,-76.04 3485.51,-76.04 3485.15,-38.67"/>
<text text-anchor="middle" x="3874.78" y="-52.8" font-family="Times,serif" font-size="14.00">output</text>
<text text-anchor="middle" x="3874.78" y="-37.8" font-family="Times,serif" font-size="14.00">feynman :: [MI :: string, reducedIBPs :: string, web :: string]</text>
</g>
<!-- n0_place_6 -->
<g id="node12" class="node">
<title>n0_place_6</title>
<ellipse fill="white" stroke="black" cx="4615.97" cy="-159" rx="315.24" ry="26.74"/>
<text text-anchor="middle" x="4615.97" y="-162.8" font-family="Times,serif" font-size="14.00">mi_ibp</text>
<text text-anchor="middle" x="4615.97" y="-147.8" font-family="Times,serif" font-size="14.00">feynman :: [MI :: string, reducedIBPs :: string, web :: string]</text>
</g>
<!-- n0_port_3&#45;&gt;n0_place_6 -->
<g id="edge42" class="edge">
<title>n0_port_3&#45;&gt;n0_place_6</title>
<path fill="none" stroke="black" stroke-dasharray="1,5" d="M4138.96,-76.05C4183.63,-81.44 4229.5,-87.47 4272.6,-94 4347.07,-105.28 4430.09,-120.96 4495.72,-134.09"/>
</g>
<!-- n0_place_12 -->
<g id="node6" class="node">
<title>n0_place_12</title>
<ellipse fill="white" stroke="black" cx="1651.22" cy="-2077" rx="50.41" ry="37.45"/>
<text text-anchor="middle" x="1651.22" y="-2088.3" font-family="Times,serif" font-size="14.00">counter</text>
<text text-anchor="middle" x="1651.22" y="-2073.3" font-family="Times,serif" font-size="14.00">int</text>
<text text-anchor="middle" x="1651.22" y="-2058.3" font-family="Times,serif" font-size="14.00">3</text>
</g>
<!-- n3_port_2 -->
<g id="node41" class="node">
<title>n3_port_2</title>
<polygon fill="white" stroke="black" points="2454.52,-2031.33 2392.41,-2054.43 2330.29,-2031.33 2330.35,-1993.96 2454.46,-1993.96 2454.52,-2031.33"/>
<text text-anchor="middle" x="2392.41" y="-2024.8" font-family="Times,serif" font-size="14.00">counter</text>
<text text-anchor="middle" x="2392.41" y="-2009.8" font-family="Times,serif" font-size="14.00">int</text>
</g>
<!-- n0_place_12&#45;&gt;n3_port_2 -->
<g id="edge16" class="edge">
<title>n0_place_12&#45;&gt;n3_port_2</title>
<path fill="none" stroke="black" d="M1701.29,-2073.28C1828.79,-2063.62 2170.97,-2037.7 2320.19,-2026.4"/>
<polygon fill="black" stroke="black" points="2320.46,-2029.89 2330.16,-2025.64 2319.93,-2022.91 2320.46,-2029.89"/>
</g>
<!-- n4_port_1 -->
<g id="node49" class="node">
<title>n4_port_1</title>
<polygon fill="white" stroke="black" points="2494.43,-1495.33 2392.41,-1518.43 2290.38,-1495.33 2290.48,-1457.96 2494.33,-1457.96 2494.43,-1495.33"/>
<text text-anchor="middle" x="2392.41" y="-1488.8" font-family="Times,serif" font-size="14.00">base_filename</text>
<text text-anchor="middle" x="2392.41" y="-1473.8" font-family="Times,serif" font-size="14.00">string</text>
</g>
<!-- n0_place_11&#45;&gt;n4_port_1 -->
<g id="edge20" class="edge">
<title>n0_place_11&#45;&gt;n4_port_1</title>
<path fill="none" stroke="black" stroke-dasharray="5,2" d="M419.96,-1341.24C446.54,-1353.32 480.43,-1366.83 512.21,-1374 1169.34,-1522.17 1986.52,-1503.7 2280.02,-1490.88"/>
<polygon fill="black" stroke="black" points="2280.4,-1494.36 2290.24,-1490.42 2280.09,-1487.37 2280.4,-1494.36"/>
</g>
<!-- n5_port_1 -->
<g id="node56" class="node">
<title>n5_port_1</title>
<polygon fill="white" stroke="black" points="2494.43,-875.33 2392.41,-898.43 2290.38,-875.33 2290.48,-837.96 2494.33,-837.96 2494.43,-875.33"/>
<text text-anchor="middle" x="2392.41" y="-868.8" font-family="Times,serif" font-size="14.00">base_filename</text>
<text text-anchor="middle" x="2392.41" y="-853.8" font-family="Times,serif" font-size="14.00">string</text>
</g>
<!-- n0_place_11&#45;&gt;n5_port_1 -->
<g id="edge30" class="edge">
<title>n0_place_11&#45;&gt;n5_port_1</title>
<path fill="none" stroke="black" stroke-dasharray="5,2" d="M479.75,-1324.63C821.27,-1347.54 1858.79,-1408.15 1966.59,-1307 2031.57,-1246.03 1932.71,-971.12 1994.59,-907 2066.58,-832.41 2189.99,-830.67 2280.11,-842.1"/>
<polygon fill="black" stroke="black" points="2279.73,-845.58 2290.1,-843.43 2280.66,-838.64 2279.73,-845.58"/>
</g>
<!-- n6_port_2 -->
<g id="node69" class="node">
<title>n6_port_2</title>
<polygon fill="white" stroke="black" points="1012.05,-1127.33 910.03,-1150.43 808.01,-1127.33 808.1,-1089.96 1011.96,-1089.96 1012.05,-1127.33"/>
<text text-anchor="middle" x="910.03" y="-1120.8" font-family="Times,serif" font-size="14.00">base_filename</text>
<text text-anchor="middle" x="910.03" y="-1105.8" font-family="Times,serif" font-size="14.00">string</text>
</g>
<!-- n0_place_11&#45;&gt;n6_port_2 -->
<g id="edge37" class="edge">
<title>n0_place_11&#45;&gt;n6_port_2</title>
<path fill="none" stroke="black" stroke-dasharray="5,2" d="M437.84,-1295.33C454.99,-1286.97 472.03,-1275.76 484.21,-1261 513.87,-1225.08 476.71,-1190.16 512.21,-1160 590.15,-1093.8 710.08,-1089.63 797.7,-1097.98"/>
<polygon fill="black" stroke="black" points="797.38,-1101.46 807.68,-1099 798.09,-1094.5 797.38,-1101.46"/>
</g>
<!-- n5_port_3 -->
<g id="node58" class="node">
<title>n5_port_3</title>
<polygon fill="white" stroke="black" points="2444.04,-455.33 2392.41,-478.43 2340.77,-455.33 2340.82,-417.96 2443.99,-417.96 2444.04,-455.33"/>
<text text-anchor="middle" x="2392.41" y="-448.8" font-family="Times,serif" font-size="14.00">input</text>
<text text-anchor="middle" x="2392.41" y="-433.8" font-family="Times,serif" font-size="14.00">string</text>
</g>
<!-- n0_place_10&#45;&gt;n5_port_3 -->
<g id="edge28" class="edge">
<title>n0_place_10&#45;&gt;n5_port_3</title>
<path fill="none" stroke="black" stroke-dasharray="5,2" d="M385.86,-643.65C407.75,-606.88 453.02,-541.62 512.21,-514 845.18,-358.64 2045.45,-423.14 2330.41,-440.98"/>
<polygon fill="black" stroke="black" points="2330.35,-444.48 2340.55,-441.62 2330.79,-437.5 2330.35,-444.48"/>
</g>
<!-- n6_port_3 -->
<g id="node70" class="node">
<title>n6_port_3</title>
<polygon fill="white" stroke="black" points="961.67,-875.33 910.03,-898.43 858.39,-875.33 858.44,-837.96 961.62,-837.96 961.67,-875.33"/>
<text text-anchor="middle" x="910.03" y="-868.8" font-family="Times,serif" font-size="14.00">input</text>
<text text-anchor="middle" x="910.03" y="-853.8" font-family="Times,serif" font-size="14.00">string</text>
</g>
<!-- n0_place_10&#45;&gt;n6_port_3 -->
<g id="edge36" class="edge">
<title>n0_place_10&#45;&gt;n6_port_3</title>
<path fill="none" stroke="black" stroke-dasharray="5,2" d="M386.83,-696.21C409.39,-731.78 454.96,-794.2 512.21,-823 620.82,-877.64 767,-877.1 848.2,-871.36"/>
<polygon fill="black" stroke="black" points="848.55,-874.85 858.26,-870.6 848.02,-867.87 848.55,-874.85"/>
</g>
<!-- n0_place_9 -->
<g id="node9" class="node">
<title>n0_place_9</title>
<ellipse fill="white" stroke="black" cx="3133.59" cy="-658" rx="47.25" ry="26.74"/>
<text text-anchor="middle" x="3133.59" y="-661.8" font-family="Times,serif" font-size="14.00">slow</text>
<text text-anchor="middle" x="3133.59" y="-646.8" font-family="Times,serif" font-size="14.00">control</text>
</g>
<!-- n2_port_0 -->
<g id="node34" class="node">
<title>n2_port_0</title>
<polygon fill="white" stroke="black" points="3933.4,-1571.33 3874.78,-1594.43 3816.16,-1571.33 3816.22,-1533.96 3933.35,-1533.96 3933.4,-1571.33"/>
<text text-anchor="middle" x="3874.78" y="-1564.8" font-family="Times,serif" font-size="14.00">slow</text>
<text text-anchor="middle" x="3874.78" y="-1549.8" font-family="Times,serif" font-size="14.00">control</text>
</g>
<!-- n0_place_9&#45;&gt;n2_port_0 -->
<g id="edge10" class="edge">
<title>n0_place_9&#45;&gt;n2_port_0</title>
<path fill="none" stroke="black" d="M3177.94,-648.48C3246.85,-636.19 3380.57,-624.51 3448.96,-700 3510.1,-767.48 3414.91,-1452.36 3476.96,-1519 3562.2,-1610.54 3724.57,-1593.85 3812.89,-1576.06"/>
<polygon fill="black" stroke="black" points="3813.69,-1579.47 3822.77,-1574.01 3812.26,-1572.62 3813.69,-1579.47"/>
</g>
<!-- n0_place_8 -->
<g id="node10" class="node">
<title>n0_place_8</title>
<ellipse fill="white" stroke="black" cx="370.37" cy="-949" rx="78.48" ry="37.45"/>
<text text-anchor="middle" x="370.37" y="-960.3" font-family="Times,serif" font-size="14.00">input_control</text>
<text text-anchor="middle" x="370.37" y="-945.3" font-family="Times,serif" font-size="14.00">control</text>
<text text-anchor="middle" x="370.37" y="-930.3" font-family="Times,serif" font-size="14.00">[]</text>
</g>
<!-- n6_port_0 -->
<g id="node67" class="node">
<title>n6_port_0</title>
<polygon fill="white" stroke="black" points="1007.07,-959.33 910.03,-982.43 813,-959.33 813.09,-921.96 1006.97,-921.96 1007.07,-959.33"/>
<text text-anchor="middle" x="910.03" y="-952.8" font-family="Times,serif" font-size="14.00">input_control</text>
<text text-anchor="middle" x="910.03" y="-937.8" font-family="Times,serif" font-size="14.00">control</text>
</g>
<!-- n0_place_8&#45;&gt;n6_port_0 -->
<g id="edge35" class="edge">
<title>n0_place_8&#45;&gt;n6_port_0</title>
<path fill="none" stroke="black" d="M448.97,-949C541.99,-949 698.33,-949 802.58,-949"/>
<polygon fill="black" stroke="black" points="802.81,-952.5 812.81,-949 802.81,-945.5 802.81,-952.5"/>
</g>
<!-- n0_place_7 -->
<g id="node11" class="node">
<title>n0_place_7</title>
<ellipse fill="white" stroke="black" cx="3133.59" cy="-573" rx="315.24" ry="26.74"/>
<text text-anchor="middle" x="3133.59" y="-576.8" font-family="Times,serif" font-size="14.00">data_copy</text>
<text text-anchor="middle" x="3133.59" y="-561.8" font-family="Times,serif" font-size="14.00">feynman :: [MI :: string, reducedIBPs :: string, web :: string]</text>
</g>
<!-- n1_port_2 -->
<g id="node27" class="node">
<title>n1_port_2</title>
<polygon fill="white" stroke="black" points="4264.42,-623.33 3874.78,-646.43 3485.15,-623.33 3485.51,-585.96 4264.05,-585.96 4264.42,-623.33"/>
<text text-anchor="middle" x="3874.78" y="-616.8" font-family="Times,serif" font-size="14.00">data_copy</text>
<text text-anchor="middle" x="3874.78" y="-601.8" font-family="Times,serif" font-size="14.00">feynman :: [MI :: string, reducedIBPs :: string, web :: string]</text>
</g>
<!-- n0_place_7&#45;&gt;n1_port_2 -->
<g id="edge4" class="edge">
<title>n0_place_7&#45;&gt;n1_port_2</title>
<path fill="none" stroke="black" d="M3400.15,-587.37C3424.64,-588.7 3449.79,-590.06 3475.12,-591.43"/>
<polygon fill="black" stroke="black" points="3475.05,-594.93 3485.22,-591.97 3475.42,-587.94 3475.05,-594.93"/>
</g>
<!-- n0_place_5 -->
<g id="node13" class="node">
<title>n0_place_5</title>
<ellipse fill="white" stroke="black" cx="3133.59" cy="-448" rx="55.72" ry="37.45"/>
<text text-anchor="middle" x="3133.59" y="-459.3" font-family="Times,serif" font-size="14.00">counting</text>
<text text-anchor="middle" x="3133.59" y="-444.3" font-family="Times,serif" font-size="14.00">int</text>
<text text-anchor="middle" x="3133.59" y="-429.3" font-family="Times,serif" font-size="14.00">0</text>
</g>
<!-- n1_port_3 -->
<g id="node28" class="node">
<title>n1_port_3</title>
<polygon fill="white" stroke="black" points="3943.88,-455.33 3874.78,-478.43 3805.68,-455.33 3805.75,-417.96 3943.81,-417.96 3943.88,-455.33"/>
<text text-anchor="middle" x="3874.78" y="-448.8" font-family="Times,serif" font-size="14.00">counting</text>
<text text-anchor="middle" x="3874.78" y="-433.8" font-family="Times,serif" font-size="14.00">int</text>
</g>
<!-- n0_place_5&#45;&gt;n1_port_3 -->
<g id="edge3" class="edge">
<title>n0_place_5&#45;&gt;n1_port_3</title>
<path fill="none" stroke="black" d="M3189.55,-447.78C3319.32,-447.25 3645.1,-445.93 3795.48,-445.32"/>
<polygon fill="black" stroke="black" points="3795.57,-448.82 3805.56,-445.28 3795.55,-441.82 3795.57,-448.82"/>
</g>
<!-- n0_place_4 -->
<g id="node14" class="node">
<title>n0_place_4</title>
<ellipse fill="white" stroke="black" cx="3133.59" cy="-736" rx="35.21" ry="26.74"/>
<text text-anchor="middle" x="3133.59" y="-739.8" font-family="Times,serif" font-size="14.00">total</text>
<text text-anchor="middle" x="3133.59" y="-724.8" font-family="Times,serif" font-size="14.00">int</text>
</g>
<!-- n1_port_1 -->
<g id="node26" class="node">
<title>n1_port_1</title>
<polygon fill="white" stroke="black" points="3918.69,-707.33 3874.78,-730.43 3830.88,-707.33 3830.92,-669.96 3918.65,-669.96 3918.69,-707.33"/>
<text text-anchor="middle" x="3874.78" y="-700.8" font-family="Times,serif" font-size="14.00">total</text>
<text text-anchor="middle" x="3874.78" y="-685.8" font-family="Times,serif" font-size="14.00">int</text>
</g>
<!-- n0_place_4&#45;&gt;n1_port_1 -->
<g id="edge6" class="edge">
<title>n0_place_4&#45;&gt;n1_port_1</title>
<path fill="none" stroke="black" stroke-dasharray="5,2" d="M3169.26,-734.17C3287.74,-727.92 3677.21,-707.37 3820.37,-699.82"/>
<polygon fill="black" stroke="black" points="3820.85,-703.3 3830.65,-699.28 3820.48,-696.31 3820.85,-703.3"/>
</g>
<!-- n0_place_3 -->
<g id="node15" class="node">
<title>n0_place_3</title>
<ellipse fill="white" stroke="black" cx="3133.59" cy="-235" rx="50.82" ry="26.74"/>
<text text-anchor="middle" x="3133.59" y="-238.8" font-family="Times,serif" font-size="14.00">number</text>
<text text-anchor="middle" x="3133.59" y="-223.8" font-family="Times,serif" font-size="14.00">control</text>
</g>
<!-- n1_port_0 -->
<g id="node25" class="node">
<title>n1_port_0</title>
<polygon fill="white" stroke="black" points="3937.64,-287.33 3874.78,-310.43 3811.92,-287.33 3811.98,-249.96 3937.58,-249.96 3937.64,-287.33"/>
<text text-anchor="middle" x="3874.78" y="-280.8" font-family="Times,serif" font-size="14.00">number</text>
<text text-anchor="middle" x="3874.78" y="-265.8" font-family="Times,serif" font-size="14.00">control</text>
</g>
<!-- n0_place_3&#45;&gt;n1_port_0 -->
<g id="edge5" class="edge">
<title>n0_place_3&#45;&gt;n1_port_0</title>
<path fill="none" stroke="black" d="M3184.24,-237.82C3312,-245.08 3652.53,-264.43 3801.89,-272.91"/>
<polygon fill="black" stroke="black" points="3801.69,-276.41 3811.87,-273.48 3802.09,-269.42 3801.69,-276.41"/>
</g>
<!-- n0_place_2 -->
<g id="node16" class="node">
<title>n0_place_2</title>
<ellipse fill="white" stroke="black" cx="3133.59" cy="-1875" rx="27" ry="26.74"/>
<text text-anchor="middle" x="3133.59" y="-1878.8" font-family="Times,serif" font-size="14.00">m</text>
<text text-anchor="middle" x="3133.59" y="-1863.8" font-family="Times,serif" font-size="14.00">int</text>
</g>
<!-- n2_port_1 -->
<g id="node35" class="node">
<title>n2_port_1</title>
<polygon fill="white" stroke="black" points="3906.21,-1823.33 3874.78,-1846.43 3843.35,-1823.33 3843.38,-1785.96 3906.18,-1785.96 3906.21,-1823.33"/>
<text text-anchor="middle" x="3874.78" y="-1816.8" font-family="Times,serif" font-size="14.00">m</text>
<text text-anchor="middle" x="3874.78" y="-1801.8" font-family="Times,serif" font-size="14.00">int</text>
</g>
<!-- n0_place_2&#45;&gt;n2_port_1 -->
<g id="edge11" class="edge">
<title>n0_place_2&#45;&gt;n2_port_1</title>
<path fill="none" stroke="black" stroke-dasharray="5,2" d="M3160.9,-1872.79C3271.33,-1863.53 3697.9,-1827.75 3832.7,-1816.45"/>
<polygon fill="black" stroke="black" points="3833.33,-1819.91 3843,-1815.58 3832.74,-1812.93 3833.33,-1819.91"/>
</g>
<!-- n0_place_1 -->
<g id="node17" class="node">
<title>n0_place_1</title>
<ellipse fill="white" stroke="black" cx="3133.59" cy="-1727" rx="43.68" ry="26.74"/>
<text text-anchor="middle" x="3133.59" y="-1730.8" font-family="Times,serif" font-size="14.00">myvec</text>
<text text-anchor="middle" x="3133.59" y="-1715.8" font-family="Times,serif" font-size="14.00">string</text>
</g>
<!-- n3_port_3 -->
<g id="node42" class="node">
<title>n3_port_3</title>
<polygon fill="white" stroke="black" points="2446.79,-1779.33 2392.41,-1802.43 2338.03,-1779.33 2338.08,-1741.96 2446.74,-1741.96 2446.79,-1779.33"/>
<text text-anchor="middle" x="2392.41" y="-1772.8" font-family="Times,serif" font-size="14.00">myvec</text>
<text text-anchor="middle" x="2392.41" y="-1757.8" font-family="Times,serif" font-size="14.00">string</text>
</g>
<!-- n0_place_1&#45;&gt;n3_port_3 -->
<g id="edge15" class="edge">
<title>n0_place_1&#45;&gt;n3_port_3</title>
<path fill="none" stroke="black" d="M3089.9,-1729.43C2965.77,-1736.48 2604.46,-1757.01 2457.1,-1765.38"/>
<polygon fill="black" stroke="black" points="2456.65,-1761.9 2446.86,-1765.96 2457.05,-1768.89 2456.65,-1761.9"/>
</g>
<!-- n0_place_0 -->
<g id="node18" class="node">
<title>n0_place_0</title>
<ellipse fill="white" stroke="black" cx="3133.59" cy="-1645" rx="35.21" ry="37.45"/>
<text text-anchor="middle" x="3133.59" y="-1656.3" font-family="Times,serif" font-size="14.00">limit</text>
<text text-anchor="middle" x="3133.59" y="-1641.3" font-family="Times,serif" font-size="14.00">int</text>
<text text-anchor="middle" x="3133.59" y="-1626.3" font-family="Times,serif" font-size="14.00">0</text>
</g>
<!-- n2_port_3 -->
<g id="node36" class="node">
<title>n2_port_3</title>
<polygon fill="white" stroke="black" points="3918.69,-1739.33 3874.78,-1762.43 3830.88,-1739.33 3830.92,-1701.96 3918.65,-1701.96 3918.69,-1739.33"/>
<text text-anchor="middle" x="3874.78" y="-1732.8" font-family="Times,serif" font-size="14.00">limit</text>
<text text-anchor="middle" x="3874.78" y="-1717.8" font-family="Times,serif" font-size="14.00">int</text>
</g>
<!-- n0_place_0&#45;&gt;n2_port_3 -->
<g id="edge9" class="edge">
<title>n0_place_0&#45;&gt;n2_port_3</title>
<path fill="none" stroke="black" d="M3169.07,-1649.42C3230.79,-1657.29 3364.22,-1674.12 3476.96,-1687 3599.89,-1701.04 3744.44,-1715.93 3820.61,-1723.66"/>
<polygon fill="black" stroke="black" points="3820.59,-1727.17 3830.89,-1724.7 3821.29,-1720.21 3820.59,-1727.17"/>
</g>
<!-- n0_place_13 -->
<g id="node19" class="node">
<title>n0_place_13</title>
<ellipse fill="white" stroke="black" cx="1651.22" cy="-613" rx="315.24" ry="26.74"/>
<text text-anchor="middle" x="1651.22" y="-616.8" font-family="Times,serif" font-size="14.00">data</text>
<text text-anchor="middle" x="1651.22" y="-601.8" font-family="Times,serif" font-size="14.00">feynman :: [MI :: string, reducedIBPs :: string, web :: string]</text>
</g>
<!-- n5_port_5 -->
<g id="node60" class="node">
<title>n5_port_5</title>
<polygon fill="white" stroke="black" points="2782.04,-623.33 2392.41,-646.43 2002.77,-623.33 2003.13,-585.96 2781.68,-585.96 2782.04,-623.33"/>
<text text-anchor="middle" x="2392.41" y="-616.8" font-family="Times,serif" font-size="14.00">data</text>
<text text-anchor="middle" x="2392.41" y="-601.8" font-family="Times,serif" font-size="14.00">feynman :: [MI :: string, reducedIBPs :: string, web :: string]</text>
</g>
<!-- n0_place_13&#45;&gt;n5_port_5 -->
<g id="edge27" class="edge">
<title>n0_place_13&#45;&gt;n5_port_5</title>
<path fill="none" stroke="black" d="M1966.77,-613C1975.32,-613 1983.9,-613 1992.5,-613"/>
<polygon fill="black" stroke="black" points="1992.61,-616.5 2002.61,-613 1992.61,-609.5 1992.61,-616.5"/>
</g>
<!-- n4_port_0 -->
<g id="node48" class="node">
<title>n4_port_0</title>
<polygon fill="white" stroke="black" points="2488.69,-1411.33 2392.41,-1434.43 2296.12,-1411.33 2296.21,-1373.96 2488.6,-1373.96 2488.69,-1411.33"/>
<text text-anchor="middle" x="2392.41" y="-1404.8" font-family="Times,serif" font-size="14.00">library_name</text>
<text text-anchor="middle" x="2392.41" y="-1389.8" font-family="Times,serif" font-size="14.00">string</text>
</g>
<!-- n0_place_14&#45;&gt;n4_port_0 -->
<g id="edge21" class="edge">
<title>n0_place_14&#45;&gt;n4_port_0</title>
<path fill="none" stroke="black" stroke-dasharray="5,2" d="M473.97,-1233.94C819.17,-1264.02 1936.42,-1361.36 2285.9,-1391.81"/>
<polygon fill="black" stroke="black" points="2285.75,-1395.31 2296.02,-1392.69 2286.36,-1388.33 2285.75,-1395.31"/>
</g>
<!-- n5_port_0 -->
<g id="node55" class="node">
<title>n5_port_0</title>
<polygon fill="white" stroke="black" points="2488.69,-791.33 2392.41,-814.43 2296.12,-791.33 2296.21,-753.96 2488.6,-753.96 2488.69,-791.33"/>
<text text-anchor="middle" x="2392.41" y="-784.8" font-family="Times,serif" font-size="14.00">library_name</text>
<text text-anchor="middle" x="2392.41" y="-769.8" font-family="Times,serif" font-size="14.00">string</text>
</g>
<!-- n0_place_14&#45;&gt;n5_port_0 -->
<g id="edge31" class="edge">
<title>n0_place_14&#45;&gt;n5_port_0</title>
<path fill="none" stroke="black" stroke-dasharray="5,2" d="M462.86,-1239.45C632.88,-1263.01 1007.53,-1299.41 1307.85,-1218 1647.69,-1125.87 1659.67,-931.66 1994.59,-823 2090.01,-792.04 2204.45,-782.67 2285.86,-780.37"/>
<polygon fill="black" stroke="black" points="2286.21,-783.86 2296.12,-780.11 2286.03,-776.86 2286.21,-783.86"/>
</g>
<!-- n6_port_1 -->
<g id="node68" class="node">
<title>n6_port_1</title>
<polygon fill="white" stroke="black" points="1006.32,-1043.33 910.03,-1066.43 813.74,-1043.33 813.83,-1005.96 1006.23,-1005.96 1006.32,-1043.33"/>
<text text-anchor="middle" x="910.03" y="-1036.8" font-family="Times,serif" font-size="14.00">library_name</text>
<text text-anchor="middle" x="910.03" y="-1021.8" font-family="Times,serif" font-size="14.00">string</text>
</g>
<!-- n0_place_14&#45;&gt;n6_port_1 -->
<g id="edge38" class="edge">
<title>n0_place_14&#45;&gt;n6_port_1</title>
<path fill="none" stroke="black" stroke-dasharray="5,2" d="M387.54,-1198.41C410.45,-1163.38 455.91,-1102.98 512.21,-1075 603.18,-1029.8 720.13,-1022.6 803.45,-1024.7"/>
<polygon fill="black" stroke="black" points="803.6,-1028.2 813.7,-1025.01 803.81,-1021.21 803.6,-1028.2"/>
</g>
<!-- n0_place_15 -->
<g id="node21" class="node">
<title>n0_place_15</title>
<ellipse fill="white" stroke="black" cx="1651.22" cy="-1271" rx="60.62" ry="26.74"/>
<text text-anchor="middle" x="1651.22" y="-1274.8" font-family="Times,serif" font-size="14.00">web_copy</text>
<text text-anchor="middle" x="1651.22" y="-1259.8" font-family="Times,serif" font-size="14.00">string</text>
</g>
<!-- n4_port_2 -->
<g id="node50" class="node">
<title>n4_port_2</title>
<polygon fill="white" stroke="black" points="2467.74,-1327.33 2392.41,-1350.43 2317.07,-1327.33 2317.14,-1289.96 2467.67,-1289.96 2467.74,-1327.33"/>
<text text-anchor="middle" x="2392.41" y="-1320.8" font-family="Times,serif" font-size="14.00">web_copy</text>
<text text-anchor="middle" x="2392.41" y="-1305.8" font-family="Times,serif" font-size="14.00">string</text>
</g>
<!-- n0_place_15&#45;&gt;n4_port_2 -->
<g id="edge19" class="edge">
<title>n0_place_15&#45;&gt;n4_port_2</title>
<path fill="none" stroke="black" d="M1711.46,-1274.69C1842.15,-1282.82 2155.57,-1302.32 2306.86,-1311.74"/>
<polygon fill="black" stroke="black" points="2306.83,-1315.24 2317.03,-1312.37 2307.26,-1308.26 2306.83,-1315.24"/>
</g>
<!-- n0_place_16 -->
<g id="node22" class="node">
<title>n0_place_16</title>
<ellipse fill="white" stroke="black" cx="1651.22" cy="-1668" rx="50.41" ry="26.74"/>
<text text-anchor="middle" x="1651.22" y="-1671.8" font-family="Times,serif" font-size="14.00">Sectors</text>
<text text-anchor="middle" x="1651.22" y="-1656.8" font-family="Times,serif" font-size="14.00">list</text>
</g>
<!-- n5_port_4 -->
<g id="node59" class="node">
<title>n5_port_4</title>
<polygon fill="white" stroke="black" points="2454.52,-959.33 2392.41,-982.43 2330.29,-959.33 2330.35,-921.96 2454.46,-921.96 2454.52,-959.33"/>
<text text-anchor="middle" x="2392.41" y="-952.8" font-family="Times,serif" font-size="14.00">Sectors</text>
<text text-anchor="middle" x="2392.41" y="-937.8" font-family="Times,serif" font-size="14.00">list</text>
</g>
<!-- n0_place_16&#45;&gt;n5_port_4 -->
<g id="edge26" class="edge">
<title>n0_place_16&#45;&gt;n5_port_4</title>
<path fill="none" stroke="black" d="M1681.94,-1646.57C1747.11,-1597.64 1901.88,-1470.43 1966.59,-1322 1996,-1254.53 1943.16,-1044.64 1994.59,-992 2078.52,-906.09 2230.69,-916.8 2320.23,-932.68"/>
<polygon fill="black" stroke="black" points="2319.83,-936.16 2330.3,-934.53 2321.1,-929.28 2319.83,-936.16"/>
</g>
<!-- n0_place_17 -->
<g id="node23" class="node">
<title>n0_place_17</title>
<ellipse fill="white" stroke="black" cx="1651.22" cy="-697" rx="77.56" ry="26.74"/>
<text text-anchor="middle" x="1651.22" y="-700.8" font-family="Times,serif" font-size="14.00">labeledgraph</text>
<text text-anchor="middle" x="1651.22" y="-685.8" font-family="Times,serif" font-size="14.00">string</text>
</g>
<!-- n5_port_2 -->
<g id="node57" class="node">
<title>n5_port_2</title>
<polygon fill="white" stroke="black" points="2488.69,-707.33 2392.41,-730.43 2296.12,-707.33 2296.21,-669.96 2488.6,-669.96 2488.69,-707.33"/>
<text text-anchor="middle" x="2392.41" y="-700.8" font-family="Times,serif" font-size="14.00">labeledgraph</text>
<text text-anchor="middle" x="2392.41" y="-685.8" font-family="Times,serif" font-size="14.00">string</text>
</g>
<!-- n0_place_17&#45;&gt;n5_port_2 -->
<g id="edge29" class="edge">
<title>n0_place_17&#45;&gt;n5_port_2</title>
<path fill="none" stroke="black" stroke-dasharray="5,2" d="M1729.23,-697C1862.25,-697 2135.24,-697 2285.84,-697"/>
<polygon fill="black" stroke="black" points="2286.02,-700.5 2296.02,-697 2286.02,-693.5 2286.02,-700.5"/>
</g>
<!-- n1_condition -->
<g id="node24" class="node">
<title>n1_condition</title>
<polygon fill="white" stroke="black" points="3770.28,-749 3770.28,-811 3979.28,-811 3979.28,-749 3770.28,-749"/>
<text text-anchor="middle" x="3874.78" y="-795.8" font-family="Times,serif" font-size="14.00">output</text>
<polyline fill="none" stroke="black" points="3770.28,-788 3979.28,-788 "/>
<text text-anchor="middle" x="3874.78" y="-772.8" font-family="Times,serif" font-size="14.00">(${total} == ${counting})</text>
</g>
<!-- n1_port_5 -->
<g id="node29" class="node">
<title>n1_port_5</title>
<polygon fill="white" stroke="black" points="4264.42,-371.33 3874.78,-394.43 3485.15,-371.33 3485.51,-333.96 4264.05,-333.96 4264.42,-371.33"/>
<text text-anchor="middle" x="3874.78" y="-364.8" font-family="Times,serif" font-size="14.00">mi_ibp</text>
<text text-anchor="middle" x="3874.78" y="-349.8" font-family="Times,serif" font-size="14.00">feynman :: [MI :: string, reducedIBPs :: string, web :: string]</text>
</g>
<!-- n1_port_4 -->
<g id="node30" class="node">
<title>n1_port_4</title>
<polygon fill="white" stroke="black" points="3805.68,-518.67 3874.78,-495.57 3943.88,-518.67 3943.81,-556.04 3805.75,-556.04 3805.68,-518.67"/>
<text text-anchor="middle" x="3874.78" y="-532.8" font-family="Times,serif" font-size="14.00">counting</text>
<text text-anchor="middle" x="3874.78" y="-517.8" font-family="Times,serif" font-size="14.00">int</text>
</g>
<!-- n1_port_4&#45;&gt;n0_place_5 -->
<g id="edge1" class="edge">
<title>n1_port_4&#45;&gt;n0_place_5</title>
<path fill="none" stroke="black" d="M3805.65,-521.96C3726.59,-513.74 3592.31,-499.67 3476.96,-487 3380.1,-476.36 3267.89,-463.47 3199.08,-455.5"/>
<polygon fill="black" stroke="black" points="3199.17,-451.99 3188.84,-454.31 3198.37,-458.94 3199.17,-451.99"/>
</g>
<!-- n1_port_6 -->
<g id="node31" class="node">
<title>n1_port_6</title>
<polygon fill="white" stroke="black" points="3485.15,-182.67 3874.78,-159.57 4264.42,-182.67 4264.05,-220.04 3485.51,-220.04 3485.15,-182.67"/>
<text text-anchor="middle" x="3874.78" y="-196.8" font-family="Times,serif" font-size="14.00">mi_ibp</text>
<text text-anchor="middle" x="3874.78" y="-181.8" font-family="Times,serif" font-size="14.00">feynman :: [MI :: string, reducedIBPs :: string, web :: string]</text>
</g>
<!-- n1_port_6&#45;&gt;n0_place_6 -->
<g id="edge2" class="edge">
<title>n1_port_6&#45;&gt;n0_place_6</title>
<path fill="none" stroke="black" d="M4192.75,-178.42C4237.72,-176.35 4283.76,-174.23 4328.12,-172.19"/>
<polygon fill="black" stroke="black" points="4328.33,-175.69 4338.16,-171.73 4328.01,-168.7 4328.33,-175.69"/>
</g>
<!-- n1_modcall -->
<g id="node32" class="node">
<title>n1_modcall</title>
<polygon fill="white" stroke="black" points="3973.28,-142 3776.28,-142 3776.28,-106 3973.28,-106 3973.28,-142"/>
<text text-anchor="middle" x="3874.78" y="-120.3" font-family="Times,serif" font-size="14.00">singular_template.output</text>
</g>
<!-- n2_condition -->
<g id="node33" class="node">
<title>n2_condition</title>
<polygon fill="white" stroke="black" points="3835.28,-1949 3835.28,-1985 3914.28,-1985 3914.28,-1949 3835.28,-1949"/>
<text text-anchor="middle" x="3874.78" y="-1963.3" font-family="Times,serif" font-size="14.00">counting</text>
</g>
<!-- n2_port_2 -->
<g id="node37" class="node">
<title>n2_port_2</title>
<polygon fill="white" stroke="black" points="3812.67,-1886.67 3874.78,-1863.57 3936.89,-1886.67 3936.84,-1924.04 3812.73,-1924.04 3812.67,-1886.67"/>
<text text-anchor="middle" x="3874.78" y="-1900.8" font-family="Times,serif" font-size="14.00">counter</text>
<text text-anchor="middle" x="3874.78" y="-1885.8" font-family="Times,serif" font-size="14.00">int</text>
</g>
<!-- n2_port_2&#45;&gt;n0_place_12 -->
<g id="edge7" class="edge">
<title>n2_port_2&#45;&gt;n0_place_12</title>
<path fill="none" stroke="black" d="M3812.66,-1899.74C3734.21,-1904.14 3594.2,-1914.97 3476.96,-1940 3163.26,-2006.96 3107.08,-2112.06 2790.22,-2162 2440.92,-2217.06 2345.59,-2204.92 1994.59,-2162 1891.37,-2149.38 1774.47,-2116.11 1707.44,-2095.13"/>
<polygon fill="black" stroke="black" points="1708.11,-2091.68 1697.52,-2092.01 1706,-2098.35 1708.11,-2091.68"/>
</g>
<!-- n2_port_4 -->
<g id="node38" class="node">
<title>n2_port_4</title>
<polygon fill="white" stroke="black" points="3830.88,-1634.67 3874.78,-1611.57 3918.69,-1634.67 3918.65,-1672.04 3830.92,-1672.04 3830.88,-1634.67"/>
<text text-anchor="middle" x="3874.78" y="-1648.8" font-family="Times,serif" font-size="14.00">limit</text>
<text text-anchor="middle" x="3874.78" y="-1633.8" font-family="Times,serif" font-size="14.00">int</text>
</g>
<!-- n2_port_4&#45;&gt;n0_place_0 -->
<g id="edge8" class="edge">
<title>n2_port_4&#45;&gt;n0_place_0</title>
<path fill="none" stroke="black" d="M3830.65,-1645C3700.4,-1645 3311.94,-1645 3179.45,-1645"/>
<polygon fill="black" stroke="black" points="3179.26,-1641.5 3169.26,-1645 3179.26,-1648.5 3179.26,-1641.5"/>
</g>
<!-- n2_modcall -->
<g id="node39" class="node">
<title>n2_modcall</title>
<polygon fill="white" stroke="black" points="3980.78,-1510 3768.78,-1510 3768.78,-1474 3980.78,-1474 3980.78,-1510"/>
<text text-anchor="middle" x="3874.78" y="-1488.3" font-family="Times,serif" font-size="14.00">singular_template.counting</text>
</g>
<!-- n3_condition -->
<g id="node40" class="node">
<title>n3_condition</title>
<polygon fill="white" stroke="black" points="2298.91,-2072.5 2298.91,-2149.5 2485.91,-2149.5 2485.91,-2072.5 2298.91,-2072.5"/>
<text text-anchor="middle" x="2392.41" y="-2134.3" font-family="Times,serif" font-size="14.00">compute_vec</text>
<polyline fill="none" stroke="black" points="2298.91,-2126.5 2485.91,-2126.5 "/>
<text text-anchor="middle" x="2392.41" y="-2111.3" font-family="Times,serif" font-size="14.00">((${myvec} != &quot;Done&quot;) </text>
<text text-anchor="middle" x="2392.41" y="-2096.3" font-family="Times,serif" font-size="14.00">(${counter} &gt; 0))</text>
</g>
<!-- n3_port_0 -->
<g id="node43" class="node">
<title>n3_port_0</title>
<polygon fill="white" stroke="black" points="2330.29,-1842.67 2392.41,-1819.57 2454.52,-1842.67 2454.46,-1880.04 2330.35,-1880.04 2330.29,-1842.67"/>
<text text-anchor="middle" x="2392.41" y="-1856.8" font-family="Times,serif" font-size="14.00">Sectors</text>
<text text-anchor="middle" x="2392.41" y="-1841.8" font-family="Times,serif" font-size="14.00">list</text>
</g>
<!-- n3_port_0&#45;&gt;n0_place_16 -->
<g id="edge14" class="edge">
<title>n3_port_0&#45;&gt;n0_place_16</title>
<path fill="none" stroke="black" d="M2330.21,-1854C2251.38,-1851.47 2110.74,-1842.75 1994.09,-1812.94 1882.2,-1784.26 1759.54,-1725.88 1695.59,-1693.21"/>
<path fill="none" stroke="transparent" d="M2330.27,-1852C2251.5,-1849.47 2110.86,-1840.76 1994.59,-1811 1883.06,-1782.46 1760.4,-1724.08 1696.5,-1691.43"/>
<path fill="none" stroke="black" d="M2330.34,-1850C2251.62,-1847.48 2110.99,-1838.76 1995.08,-1809.06 1883.92,-1780.65 1761.26,-1722.27 1697.41,-1689.65"/>
<polygon fill="black" stroke="black" points="1698,-1688.26 1687.51,-1686.8 1694.8,-1694.49 1698,-1688.26"/>
</g>
<!-- n3_port_1 -->
<g id="node44" class="node">
<title>n3_port_1</title>
<polygon fill="white" stroke="black" points="2360.98,-1926.67 2392.41,-1903.57 2423.84,-1926.67 2423.81,-1964.04 2361.01,-1964.04 2360.98,-1926.67"/>
<text text-anchor="middle" x="2392.41" y="-1940.8" font-family="Times,serif" font-size="14.00">m</text>
<text text-anchor="middle" x="2392.41" y="-1925.8" font-family="Times,serif" font-size="14.00">int</text>
</g>
<!-- n3_port_1&#45;&gt;n0_place_2 -->
<g id="edge13" class="edge">
<title>n3_port_1&#45;&gt;n0_place_2</title>
<path fill="none" stroke="black" d="M2424.23,-1934.41C2542.76,-1924.47 2968.95,-1888.73 3096.37,-1878.04"/>
<polygon fill="black" stroke="black" points="3096.72,-1881.52 3106.39,-1877.2 3096.13,-1874.55 3096.72,-1881.52"/>
</g>
<!-- n3_port_4 -->
<g id="node45" class="node">
<title>n3_port_4</title>
<polygon fill="white" stroke="black" points="2338.03,-1674.67 2392.41,-1651.57 2446.79,-1674.67 2446.74,-1712.04 2338.08,-1712.04 2338.03,-1674.67"/>
<text text-anchor="middle" x="2392.41" y="-1688.8" font-family="Times,serif" font-size="14.00">myvec</text>
<text text-anchor="middle" x="2392.41" y="-1673.8" font-family="Times,serif" font-size="14.00">string</text>
</g>
<!-- n3_port_4&#45;&gt;n0_place_1 -->
<g id="edge12" class="edge">
<title>n3_port_4&#45;&gt;n0_place_1</title>
<path fill="none" stroke="black" d="M2446.86,-1688.04C2583.42,-1695.8 2943.86,-1716.28 3079.75,-1724"/>
<polygon fill="black" stroke="black" points="3079.72,-1727.5 3089.9,-1724.57 3080.12,-1720.51 3079.72,-1727.5"/>
</g>
<!-- n3_modcall -->
<g id="node46" class="node">
<title>n3_modcall</title>
<polygon fill="white" stroke="black" points="2513.41,-1634 2271.41,-1634 2271.41,-1598 2513.41,-1598 2513.41,-1634"/>
<text text-anchor="middle" x="2392.41" y="-1612.3" font-family="Times,serif" font-size="14.00">singular_template.compute_vec</text>
</g>
<!-- n4_condition -->
<g id="node47" class="node">
<title>n4_condition</title>
<polygon fill="white" stroke="black" points="2335.91,-1537 2335.91,-1573 2448.91,-1573 2448.91,-1537 2335.91,-1537"/>
<text text-anchor="middle" x="2392.41" y="-1551.3" font-family="Times,serif" font-size="14.00">compute_size</text>
</g>
<!-- n4_port_3 -->
<g id="node51" class="node">
<title>n4_port_3</title>
<polygon fill="white" stroke="black" points="2348.5,-1138.67 2392.41,-1115.57 2436.31,-1138.67 2436.27,-1176.04 2348.54,-1176.04 2348.5,-1138.67"/>
<text text-anchor="middle" x="2392.41" y="-1152.8" font-family="Times,serif" font-size="14.00">total</text>
<text text-anchor="middle" x="2392.41" y="-1137.8" font-family="Times,serif" font-size="14.00">int</text>
</g>
<!-- n4_port_3&#45;&gt;n0_place_4 -->
<g id="edge17" class="edge">
<title>n4_port_3&#45;&gt;n0_place_4</title>
<path fill="none" stroke="black" d="M2436.38,-1153.93C2512.27,-1160.64 2673.07,-1165.85 2790.22,-1107 2947.52,-1027.99 3068.73,-844.61 3113.66,-769.25"/>
<polygon fill="black" stroke="black" points="3116.7,-771 3118.76,-760.61 3110.67,-767.44 3116.7,-771"/>
</g>
<!-- n4_port_4 -->
<g id="node52" class="node">
<title>n4_port_4</title>
<polygon fill="white" stroke="black" points="2338.03,-1222.67 2392.41,-1199.57 2446.79,-1222.67 2446.74,-1260.04 2338.08,-1260.04 2338.03,-1222.67"/>
<text text-anchor="middle" x="2392.41" y="-1236.8" font-family="Times,serif" font-size="14.00">myvec</text>
<text text-anchor="middle" x="2392.41" y="-1221.8" font-family="Times,serif" font-size="14.00">string</text>
</g>
<!-- n4_port_4&#45;&gt;n0_place_1 -->
<g id="edge18" class="edge">
<title>n4_port_4&#45;&gt;n0_place_1</title>
<path fill="none" stroke="black" d="M2442.4,-1220.67C2526.87,-1202.67 2699.55,-1180.79 2790.22,-1275 2854.48,-1341.76 2754.26,-1623.97 2818.22,-1691 2886,-1762.03 3012.35,-1751.43 3082.47,-1738.56"/>
<polygon fill="black" stroke="black" points="3083.23,-1741.98 3092.39,-1736.65 3081.91,-1735.1 3083.23,-1741.98"/>
</g>
<!-- n4_modcall -->
<g id="node53" class="node">
<title>n4_modcall</title>
<polygon fill="white" stroke="black" points="2515.41,-1098 2269.41,-1098 2269.41,-1062 2515.41,-1062 2515.41,-1098"/>
<text text-anchor="middle" x="2392.41" y="-1076.3" font-family="Times,serif" font-size="14.00">singular_template.compute_size</text>
</g>
<!-- n5_condition -->
<g id="node54" class="node">
<title>n5_condition</title>
<polygon fill="white" stroke="black" points="2348.91,-1001 2348.91,-1037 2435.91,-1037 2435.91,-1001 2348.91,-1001"/>
<text text-anchor="middle" x="2392.41" y="-1015.3" font-family="Times,serif" font-size="14.00">compute1</text>
</g>
<!-- n5_port_6 -->
<g id="node61" class="node">
<title>n5_port_6</title>
<polygon fill="white" stroke="black" points="2002.77,-518.67 2392.41,-495.57 2782.04,-518.67 2781.68,-556.04 2003.13,-556.04 2002.77,-518.67"/>
<text text-anchor="middle" x="2392.41" y="-532.8" font-family="Times,serif" font-size="14.00">data</text>
<text text-anchor="middle" x="2392.41" y="-517.8" font-family="Times,serif" font-size="14.00">feynman :: [MI :: string, reducedIBPs :: string, web :: string]</text>
</g>
<!-- n5_port_6&#45;&gt;n0_place_13 -->
<g id="edge24" class="edge">
<title>n5_port_6&#45;&gt;n0_place_13</title>
<path fill="none" stroke="black" d="M2129.86,-556.06C2084.73,-560.91 2038.29,-566.01 1994.59,-571 1944.11,-576.77 1889.48,-583.33 1839,-589.52"/>
<polygon fill="black" stroke="black" points="1838.46,-586.06 1828.97,-590.75 1839.32,-593 1838.46,-586.06"/>
</g>
<!-- n5_port_7 -->
<g id="node62" class="node">
<title>n5_port_7</title>
<polygon fill="white" stroke="black" points="2333.79,-350.67 2392.41,-327.57 2451.03,-350.67 2450.97,-388.04 2333.84,-388.04 2333.79,-350.67"/>
<text text-anchor="middle" x="2392.41" y="-364.8" font-family="Times,serif" font-size="14.00">slow</text>
<text text-anchor="middle" x="2392.41" y="-349.8" font-family="Times,serif" font-size="14.00">control</text>
</g>
<!-- n5_port_7&#45;&gt;n0_place_9 -->
<g id="edge23" class="edge">
<title>n5_port_7&#45;&gt;n0_place_9</title>
<path fill="none" stroke="black" d="M2445.79,-348.5C2530.64,-331.69 2697.89,-313.37 2790.22,-403 2856.52,-467.36 2753.53,-543.03 2818.22,-609 2885.77,-677.88 3007.49,-675.58 3078.01,-667.17"/>
<polygon fill="black" stroke="black" points="3078.55,-670.62 3088.03,-665.89 3077.67,-663.68 3078.55,-670.62"/>
</g>
<!-- n5_port_8 -->
<g id="node63" class="node">
<title>n5_port_8</title>
<polygon fill="white" stroke="black" points="2329.55,-182.67 2392.41,-159.57 2455.27,-182.67 2455.21,-220.04 2329.6,-220.04 2329.55,-182.67"/>
<text text-anchor="middle" x="2392.41" y="-196.8" font-family="Times,serif" font-size="14.00">number</text>
<text text-anchor="middle" x="2392.41" y="-181.8" font-family="Times,serif" font-size="14.00">control</text>
</g>
<!-- n5_port_8&#45;&gt;n0_place_3 -->
<g id="edge22" class="edge">
<title>n5_port_8&#45;&gt;n0_place_3</title>
<path fill="none" stroke="black" d="M2455.47,-196.53C2595.36,-204.47 2933.79,-223.7 3072.14,-231.56"/>
<polygon fill="black" stroke="black" points="3072.35,-235.08 3082.53,-232.16 3072.75,-228.09 3072.35,-235.08"/>
</g>
<!-- n5_port_9 -->
<g id="node64" class="node">
<title>n5_port_9</title>
<polygon fill="white" stroke="black" points="2002.77,-266.67 2392.41,-243.57 2782.04,-266.67 2781.68,-304.04 2003.13,-304.04 2002.77,-266.67"/>
<text text-anchor="middle" x="2392.41" y="-280.8" font-family="Times,serif" font-size="14.00">data_copy</text>
<text text-anchor="middle" x="2392.41" y="-265.8" font-family="Times,serif" font-size="14.00">feynman :: [MI :: string, reducedIBPs :: string, web :: string]</text>
</g>
<!-- n5_port_9&#45;&gt;n0_place_7 -->
<g id="edge25" class="edge">
<title>n5_port_9&#45;&gt;n0_place_7</title>
<path fill="none" stroke="black" d="M2541.12,-252.38C2624.73,-247.29 2725.25,-257.39 2790.22,-319 2847.38,-373.2 2765.02,-435.92 2818.22,-494 2841.84,-519.78 2872.5,-537.69 2905.4,-550.05"/>
<polygon fill="black" stroke="black" points="2904.61,-553.49 2915.21,-553.55 2906.96,-546.89 2904.61,-553.49"/>
</g>
<!-- n5_modcall -->
<g id="node65" class="node">
<title>n5_modcall</title>
<polygon fill="white" stroke="black" points="2502.91,-142 2281.91,-142 2281.91,-106 2502.91,-106 2502.91,-142"/>
<text text-anchor="middle" x="2392.41" y="-120.3" font-family="Times,serif" font-size="14.00">singular_template.compute1</text>
</g>
<!-- n6_condition -->
<g id="node66" class="node">
<title>n6_condition</title>
<polygon fill="white" stroke="black" points="871.03,-1169 871.03,-1205 949.03,-1205 949.03,-1169 871.03,-1169"/>
<text text-anchor="middle" x="910.03" y="-1183.3" font-family="Times,serif" font-size="14.00">compute</text>
</g>
<!-- n6_port_4 -->
<g id="node71" class="node">
<title>n6_port_4</title>
<polygon fill="white" stroke="black" points="813.74,-686.67 910.03,-663.57 1006.32,-686.67 1006.23,-724.04 813.83,-724.04 813.74,-686.67"/>
<text text-anchor="middle" x="910.03" y="-700.8" font-family="Times,serif" font-size="14.00">labeledgraph</text>
<text text-anchor="middle" x="910.03" y="-685.8" font-family="Times,serif" font-size="14.00">string</text>
</g>
<!-- n6_port_4&#45;&gt;n0_place_17 -->
<g id="edge34" class="edge">
<title>n6_port_4&#45;&gt;n0_place_17</title>
<path fill="none" stroke="black" d="M1006.53,-697C1151.12,-697 1423.49,-697 1563.01,-697"/>
<polygon fill="black" stroke="black" points="1563.23,-700.5 1573.23,-697 1563.23,-693.5 1563.23,-700.5"/>
</g>
<!-- n6_port_5 -->
<g id="node72" class="node">
<title>n6_port_5</title>
<polygon fill="white" stroke="black" points="834.7,-770.67 910.03,-747.57 985.36,-770.67 985.29,-808.04 834.77,-808.04 834.7,-770.67"/>
<text text-anchor="middle" x="910.03" y="-784.8" font-family="Times,serif" font-size="14.00">web_copy</text>
<text text-anchor="middle" x="910.03" y="-769.8" font-family="Times,serif" font-size="14.00">string</text>
</g>
<!-- n6_port_5&#45;&gt;n0_place_15 -->
<g id="edge33" class="edge">
<title>n6_port_5&#45;&gt;n0_place_15</title>
<path fill="none" stroke="black" d="M985.37,-772.12C1069.26,-765.73 1207.13,-766.42 1307.85,-823 1482.03,-920.86 1596.1,-1147.44 1635.19,-1235.29"/>
<polygon fill="black" stroke="black" points="1632.04,-1236.83 1639.26,-1244.57 1638.45,-1234.01 1632.04,-1236.83"/>
</g>
<!-- n6_port_6 -->
<g id="node73" class="node">
<title>n6_port_6</title>
<polygon fill="white" stroke="black" points="520.39,-602.67 910.03,-579.57 1299.67,-602.67 1299.3,-640.04 520.76,-640.04 520.39,-602.67"/>
<text text-anchor="middle" x="910.03" y="-616.8" font-family="Times,serif" font-size="14.00">data</text>
<text text-anchor="middle" x="910.03" y="-601.8" font-family="Times,serif" font-size="14.00">feynman :: [MI :: string, reducedIBPs :: string, web :: string]</text>
</g>
<!-- n6_port_6&#45;&gt;n0_place_13 -->
<g id="edge32" class="edge">
<title>n6_port_6&#45;&gt;n0_place_13</title>
<path fill="none" stroke="black" d="M1299.84,-613C1308.47,-613 1317.08,-613 1325.66,-613"/>
<polygon fill="black" stroke="black" points="1325.72,-616.5 1335.72,-613 1325.72,-609.5 1325.72,-616.5"/>
</g>
<!-- n6_modcall -->
<g id="node74" class="node">
<title>n6_modcall</title>
<polygon fill="white" stroke="black" points="1016.03,-562 804.03,-562 804.03,-526 1016.03,-526 1016.03,-562"/>
<text text-anchor="middle" x="910.03" y="-540.3" font-family="Times,serif" font-size="14.00">singular_template.compute</text>
</g>
</g>
</svg>
